<svg preserveAspectRatio="xMinYMin meet" class="h-full w-auto object-contain object-left-top origin-top-left" viewBox="0 0 181 1077" fill="none" xmlns="http://www.w3.org/2000/svg"><path d="M0.472046 428.337V611.167H74.2807V557.92H180.528V481.584H74.2807V428.337H0.472046Z" fill="#B7C4BC"></path><path d="M0.472046 182.83H74.2807V129.583H180.528V53.247H74.2807V0H0.472046V182.83Z" fill="#B7C4BC"></path><path d="M181 469.335V394.408L146.678 376.973L181 359.538V284.617L0 376.973L181 469.335Z" fill="#B7C4BC"></path><path d="M181 196.026H0V272.362H181V196.026Z" fill="#B7C4BC"></path><path d="M133.337 862.138H120.098V934.847H133.337V862.138Z" fill="#B7C4BC"></path><path d="M133.337 980.339H120.098V1053.05H133.337V980.339Z" fill="#B7C4BC"></path><path d="M157.071 862.138H144.29V934.847H157.071V862.138Z" fill="#B7C4BC"></path><path d="M61.2125 980.339H47.9733V1053.05H61.2125V980.339Z" fill="#B7C4BC"></path><path d="M108.936 980.339V934.852H109.14V862.138H95.9049V1053.05H109.14V980.339H108.936Z" fill="#B7C4BC"></path><path d="M61.2125 862.138H47.9733V934.847H61.2125V862.138Z" fill="#B7C4BC"></path><path d="M84.9471 862.138H72.1659V1053.05H84.9471V862.138Z" fill="#B7C4BC"></path><path d="M37.02 862.138H23.9288V934.847H37.02V862.138Z" fill="#B7C4BC"></path><path d="M157.071 980.339H144.29V1053.05H157.071V980.339Z" fill="#B7C4BC"></path><path d="M37.02 980.339H23.9288V1053.05H37.02V980.339Z" fill="#B7C4BC"></path><path d="M109.14 810.301V685.147L95.9049 695.161V800.287L109.14 810.301Z" fill="#B7C4BC"></path><path d="M84.9471 800.505V694.795L72.1659 685.124V810.176L84.9471 800.505Z" fill="#B7C4BC"></path><path d="M144.29 836.897L157.067 846.563V765.342L144.29 756.933V836.897Z" fill="#B7C4BC"></path><path d="M24.1093 648.76V729.99L37.02 738.483V658.528L24.1093 648.76Z" fill="#B7C4BC"></path><path d="M47.9733 828.478L61.2125 818.464V676.836L47.9733 666.817V828.478Z" fill="#B7C4BC"></path><path d="M133.332 828.604V666.845L120.098 676.859V818.59L133.332 828.604Z" fill="#B7C4BC"></path><path d="M24.0121 765.38V846.609L37.02 836.767V756.776L24.0121 765.38Z" fill="#B7C4BC"></path><path d="M157.067 730.097V648.886L144.29 658.552V738.552L157.067 730.097Z" fill="#B7C4BC"></path><path d="M0.347046 1077H180.648V624.971H0.347046V1077ZM167.867 1064.19H13.1282V637.782H167.867V1064.19Z" fill="#B7C4BC"></path></svg>