<?xml version="1.0" standalone="no"?>
<!DOCTYPE svg PUBLIC "-//W3C//DTD SVG 1.1//EN" "http://www.w3.org/Graphics/SVG/1.1/DTD/svg11.dtd" >
<svg xmlns="http://www.w3.org/2000/svg" xmlns:xlink="http://www.w3.org/1999/xlink" version="1.1">
<metadata>
Created by FontForge 20201107 at Fri Oct 28 15:58:20 2011
 By 
Copyright (c) 2008 by NORM, Dimitri Bruni + Manuel Krebs. All rights reserved.
</metadata>
<defs>
<font id="ReplicaPro-Italic" horiz-adv-x="580" >
  <font-face 
    font-family="Replica Pro"
    font-weight="400"
    font-style="italic"
    font-variant="small-caps"
    font-stretch="normal"
    units-per-em="1000"
    panose-1="2 11 5 4 2 1 1 2 1 2"
    ascent="800"
    descent="-200"
    x-height="500"
    cap-height="700"
    bbox="-113 -220 1567 900"
    underline-thickness="20"
    underline-position="-150"
    slope="-9"
    unicode-range="U+000D-FB04"
  />
<missing-glyph horiz-adv-x="660" 
d="M537 10l-10 -10h-480l-10 10l120 680l10 10h480l10 -10zM183 660l-109 -620l10 -10h418l10 10l109 620l-10 10h-418z" />
    <glyph glyph-name="f_i" unicode="fi" horiz-adv-x="589" 
d="M488 10l-10 -10h-81l-10 10l68 390l-10 10h-189l-10 -10l-69 -390l-10 -10h-81l-10 10l69 390l-10 10h-66l-10 10l12 70l10 10h73l10 10l7 40q23 130 153 130h90l10 -10l-13 -70l-10 -10h-81q-40 0 -48 -40l-7 -40l10 -10h287l10 -10zM589 590l-10 -10h-81l-10 10l14 80
l10 10h81l10 -10z" />
    <glyph glyph-name="f_l" unicode="fl" horiz-adv-x="589" 
d="M487 10l-10 -10h-81l-10 10l69 390l-10 10h-189l-10 -10l-69 -390l-10 -10h-81l-10 10l69 390l-10 10h-66l-10 10l12 70l10 10h73l10 10l7 40q23 130 153 130h90l10 -10l-13 -70l-10 -10h-81q-40 0 -48 -40l-7 -40l10 -10h189l10 10l32 180l10 10h81l10 -10z" />
    <glyph glyph-name="f_f" unicode="ff" horiz-adv-x="680" 
d="M670 410h-104l-10 -10l-69 -390l-10 -10h-81l-10 10l69 390l-10 10h-189l-10 -10l-69 -390l-10 -10h-81l-10 10l69 390l-10 10h-66l-10 10l12 70l10 10h73l10 10l7 40q23 130 153 130h90l10 -10l-13 -70l-10 -10h-81q-40 0 -48 -40l-7 -40l10 -10h189l10 10l7 40
q23 130 153 130h90l10 -10l-13 -70l-10 -10h-81q-40 0 -48 -40l-7 -40l10 -10h97l10 -10l-12 -70z" />
    <glyph glyph-name="f_f_i" unicode="ffi" horiz-adv-x="899" 
d="M798 10l-10 -10h-81l-10 10l68 390l-10 10h-189l-10 -10l-69 -390l-10 -10h-81l-10 10l69 390l-10 10h-189l-10 -10l-69 -390l-10 -10h-81l-10 10l69 390l-10 10h-66l-10 10l12 70l10 10h73l10 10l7 40q23 130 153 130h90l10 -10l-13 -70l-10 -10h-81q-40 0 -48 -40
l-7 -40l10 -10h189l10 10l7 40q23 130 153 130h90l10 -10l-13 -70l-10 -10h-81q-40 0 -48 -40l-7 -40l10 -10h287l10 -10zM899 590l-10 -10h-81l-10 10l14 80l10 10h81l10 -10z" />
    <glyph glyph-name="f_f_l" unicode="ffl" horiz-adv-x="900" 
d="M575 510l10 -10h189l10 10l32 180l10 10h81l10 -10l-120 -680l-10 -10h-81l-10 10l69 390l-10 10h-189l-10 -10l-69 -390l-10 -10h-81l-10 10l69 390l-10 10h-189l-10 -10l-69 -390l-10 -10h-81l-10 10l69 390l-10 10h-66l-10 10l12 70l10 10h73l10 10l7 40
q23 130 153 130h90l10 -10l-13 -70l-10 -10h-81q-40 0 -48 -40l-7 -40l10 -10h189l10 10l7 40q23 130 153 130h90l10 -10l-13 -70l-10 -10h-81q-40 0 -48 -40z" />
    <glyph glyph-name=".notdef" horiz-adv-x="660" 
d="M537 10l-10 -10h-480l-10 10l120 680l10 10h480l10 -10zM183 660l-109 -620l10 -10h418l10 10l109 620l-10 10h-418z" />
    <glyph glyph-name=".null" horiz-adv-x="0" 
 />
    <glyph glyph-name=".null" horiz-adv-x="0" 
 />
    <glyph glyph-name="uni000D" unicode="&#xd;" horiz-adv-x="0" 
 />
    <glyph glyph-name="space" unicode=" " horiz-adv-x="260" 
 />
    <glyph glyph-name="exclam" unicode="!" horiz-adv-x="360" 
d="M263 440l-60 -230l-10 -10h-41l-10 10l20 230l44 250l10 10h81l10 -10zM198 10l-10 -10h-101l-10 10l17 100l10 10h101l10 -10z" />
    <glyph glyph-name="quotedbl" unicode="&#x22;" horiz-adv-x="460" 
d="M206 400l-10 -10h-81l-10 10l51 290l10 10h81l10 -10zM407 400l-10 -10h-81l-10 10l51 290l10 10h81l10 -10z" />
    <glyph glyph-name="numbersign" unicode="#" horiz-adv-x="650" 
d="M284 80l49 110l-10 10h-108l-10 -10l-82 -180l-10 -10h-55l-10 10l13 70l49 110l-10 10h-66l-10 10l10 60l10 10h104l10 10l51 120l-10 10h-77l-10 10l11 60l10 10h113l10 10l82 180l10 10h55l10 -10l-12 -70l-50 -110l10 -10h108l10 10l82 180l10 10h56l10 -10l-12 -70
l-50 -110l10 -10h67l10 -10l-11 -60l-10 -10h-103l-10 -10l-51 -120l10 -10h76l10 -10l-10 -60l-10 -10h-114l-10 -10l-82 -180l-10 -10h-56l-10 10zM263 280h108l10 10l51 120l-10 10h-108l-10 -10l-51 -120z" />
    <glyph glyph-name="dollar" unicode="$" horiz-adv-x="600" 
d="M430 703q76 -16 117 -61t41 -112q0 -17 -4 -30l-10 -10h-80l-10 10q4 20 4 30q0 67 -77 83l-9 -9l-35 -200l10 -10q86 -24 130.5 -69.5t44.5 -124.5q0 -98 -71 -153t-180 -61l-10 -10l-10 -56l-10 -10h-60l-10 10l11 63l-10 10q-87 13 -129.5 66t-42.5 131q0 17 4 30
l10 10h81l9 -10q-4 -16 -4 -30q0 -93 91 -107l10 10l40 223l-10 10q-81 23 -123.5 65.5t-42.5 118.5q0 91 64 142.5t173 56.5l10 10l11 61l10 10h60l10 -10l-13 -67zM452 200q0 39 -21.5 62t-73.5 40l-10 -10l-36 -203l10 -10q58 5 94.5 38.5t36.5 82.5zM195 510
q0 -36 19 -56t67 -35l10 10l32 179l-10 10q-51 -5 -84.5 -30.5t-33.5 -77.5z" />
    <glyph glyph-name="percent" unicode="%" horiz-adv-x="900" 
d="M432 563q0 -60 -19 -111t-64.5 -86.5t-110.5 -35.5q-75 0 -115 41.5t-40 105.5q0 60 19 111t64.5 86.5t110.5 35.5q75 0 115 -41.5t40 -105.5zM173 477q0 -67 65 -67q52 0 78 46t26 107q0 67 -65 67q-52 0 -78 -46t-26 -107zM745 620l-509 -610l-20 -10h-29l-10 10l13 70
l508 610l20 10h29l10 -10zM852 223q0 -60 -19 -111t-64.5 -86.5t-110.5 -35.5q-75 0 -115 41.5t-40 105.5q0 60 19 111t64.5 86.5t110.5 35.5q75 0 115 -41.5t40 -105.5zM593 137q0 -67 65 -67q52 0 78 46t26 107q0 67 -65 67q-52 0 -78 -46t-26 -107z" />
    <glyph glyph-name="ampersand" unicode="&#x26;" horiz-adv-x="750" 
d="M647 10l-10 -10h-30l-20 10l-49 60h-10q-56 -41 -111 -60.5t-133 -19.5q-100 0 -158.5 56t-58.5 134q0 85 50.5 134.5t138.5 85.5l2 10q-49 59 -49 123q0 72 51 124.5t141 52.5q81 0 122.5 -45t41.5 -98q0 -108 -149 -179l-1 -10l121 -148h10q26 28 36 60.5t17 99.5
l10 10h80l10 -10q-6 -52 -11 -79t-25 -70t-56 -85l-2 -10l55 -66zM365 450q48 19 73.5 43.5t25.5 66.5q0 24 -15.5 42t-53.5 18q-43 0 -64 -26.5t-21 -60.5q0 -40 45 -83h10zM470 140l2 10l-155 188h-10q-75 -37 -106.5 -70.5t-31.5 -87.5q0 -46 37.5 -73t93.5 -27
q100 0 170 60z" />
    <glyph glyph-name="quotesingle" unicode="'" horiz-adv-x="260" 
d="M206 400l-10 -10h-80l-10 10l51 290l10 10h80l10 -10z" />
    <glyph glyph-name="parenleft" unicode="(" horiz-adv-x="420" 
d="M261 -190l-10 -10h-10l-20 10q-99 109 -130.5 161t-31.5 122q0 51 19 157q12 71 18.5 103.5t22 75.5t27.5 62t45.5 55.5t65.5 63.5t97 80l20 10h32l10 -10l-12 -70q-54 -43 -76 -61t-51 -48t-38 -46t-23 -52t-20 -69t-17 -94q-21 -121 -21 -165q0 -55 22.5 -92.5
t92.5 -112.5z" />
    <glyph glyph-name="parenright" unicode=")" horiz-adv-x="420" 
d="M158 690l10 10h10l20 -10q99 -109 130.5 -161t31.5 -122q0 -51 -19 -157q-12 -71 -18.5 -103.5t-22 -75.5t-27.5 -62t-45.5 -55.5t-65.5 -63.5t-97 -80l-20 -10h-32l-10 10l12 70q54 43 76 61t51 48t38 46t23 52t20 69t17 94q21 121 21 165q0 55 -22.5 92.5t-92.5 112.5z
" />
    <glyph glyph-name="asterisk" unicode="*" horiz-adv-x="590" 
d="M341 270h-10l-10 10v160h-10l-110 -110h-10l-10 10v10l110 110v10h-160l-10 10v10l10 10h160v10l-110 110v10l10 10h10l110 -110h10v160l10 10h10l10 -10v-160h10l110 110h10l10 -10v-10l-110 -110v-10h160l10 -10v-10l-10 -10h-160v-10l110 -110v-10l-10 -10h-10
l-110 110h-10v-160z" />
    <glyph glyph-name="plus" unicode="+" horiz-adv-x="590" 
d="M524 220l-10 -10h-172l-10 -10l-30 -170l-10 -10h-72l-10 10l30 170l-10 10h-166l-10 10l13 70l10 10h172l10 10l30 170l10 10h72l10 -10l-30 -170l10 -10h166l10 -10z" />
    <glyph glyph-name="comma" unicode="," horiz-adv-x="280" 
d="M155 0l-16 -30l-74 -80l-20 -10h-47l2 10l76 90l2 10l-10 10h-22l-10 10l18 100l10 10h101l10 -10z" />
    <glyph glyph-name="hyphen" unicode="-" horiz-adv-x="410" 
d="M344 220l-10 -10h-270l-10 10l13 70l10 10h270l10 -10z" />
    <glyph glyph-name="period" unicode="." horiz-adv-x="280" 
d="M157 10l-10 -10h-101l-10 10l18 100l10 10h101l10 -10z" />
    <glyph glyph-name="slash" unicode="/" horiz-adv-x="510" 
d="M535 620l-467 -610l-10 -10h-50l-10 10l12 70l467 610l10 10h50l10 -10z" />
    <glyph glyph-name="zero" unicode="0" 
d="M142 230q0 -73 33 -111.5t87 -38.5q60 0 104 40.5t65.5 104t31 125t9.5 120.5q0 73 -33 111.5t-87 38.5q-60 0 -104 -40.5t-65.5 -104t-31 -125t-9.5 -120.5zM572 470q0 -61 -8 -121t-29.5 -126.5t-55 -117t-89.5 -83t-128 -32.5q-95 0 -157.5 62.5t-62.5 177.5
q0 61 8 121t29.5 126.5t55 117t89.5 83t128 32.5q95 0 157.5 -62.5t62.5 -177.5z" />
    <glyph glyph-name="one" unicode="1" horiz-adv-x="380" 
d="M156 10l97 549h-10l-127 -109h-30l-10 10l14 80l176 150l20 10h81l10 -10l-120 -680l-11 -10h-80z" />
    <glyph glyph-name="two" unicode="2" horiz-adv-x="550" 
d="M21 110l287 215q130 98 130 205q0 36 -25.5 63t-74.5 27q-66 0 -105 -34t-50 -96l-10 -10h-80l-10 10q15 99 78 159.5t177 60.5q98 0 149 -53t51 -127q0 -159 -175 -282l-209 -148l-2 -10h318l10 -10l-13 -70l-10 -10h-449l-10 10l13 80z" />
    <glyph glyph-name="three" unicode="3" horiz-adv-x="550" 
d="M109 200l10 -10q-3 -13 -3 -30q0 -38 31 -59t90 -21q82 0 127.5 49t45.5 136q0 49 -25.5 77t-73.5 28q-64 0 -94 -30h-30l-10 10l12 70l212 180l2 10h-268l-10 10l12 70l10 10h390l10 -10l-14 -80l-13 -20l-165 -140l-2 -10h10q62 0 105 -44t43 -131q0 -121 -71.5 -198
t-202.5 -77q-103 0 -162 47t-59 123l3 30l10 10h80z" />
    <glyph glyph-name="four" unicode="4" horiz-adv-x="550" 
d="M427 10l-10 -10h-80l-10 10l31 180l-10 10h-325l-10 10l14 80l13 20l387 380l20 10h90l10 -10zM378 300l46 260h-10l-265 -260l-2 -10h219z" />
    <glyph glyph-name="five" unicode="5" 
d="M529 280q0 -126 -70 -208t-200 -82q-99 0 -154.5 52t-55.5 148l12 10h80l8 -10q0 -51 24 -80.5t86 -29.5q85 0 127.5 55.5t42.5 144.5q0 52 -28.5 81t-81.5 29q-37 0 -65.5 -13t-41.5 -27t-30 -40l-20 -10l-72 10l-10 10l85 370l10 10h392l10 -10l-12 -70l-10 -10h-302
l-10 -10l-39 -165h10q28 24 55 34.5t70 10.5q89 0 139.5 -54.5t50.5 -145.5z" />
    <glyph glyph-name="six" unicode="6" horiz-adv-x="570" 
d="M269 80q77 0 118.5 53t41.5 127q0 110 -120 110q-73 0 -116.5 -51.5t-43.5 -128.5q0 -51 33 -80.5t87 -29.5zM65 339q37 208 107 289.5t207 81.5q82 0 137.5 -45.5t55.5 -124.5l-10 -10h-80l-10 10q0 80 -113 80q-43 0 -73.5 -15t-49 -46t-28.5 -64.5t-19 -84.5h10
q50 50 135 50q89 0 142 -53t53 -137q0 -119 -69 -199.5t-191 -80.5q-98 0 -157.5 55t-59.5 145q0 77 13 149z" />
    <glyph glyph-name="seven" unicode="7" horiz-adv-x="510" 
d="M543 610l-397 -600l-10 -10h-58l-10 10l14 80l340 510l1 10h-308l-10 10l12 70l10 10h420l10 -10z" />
    <glyph glyph-name="eight" unicode="8" horiz-adv-x="560" 
d="M514 227q0 -106 -72 -171.5t-188 -65.5q-102 0 -164.5 57t-62.5 132q0 68 33.5 119.5t100.5 74.5l2 10q-59 44 -59 117q0 97 69 153.5t173 56.5q92 0 148 -50t56 -120q0 -56 -29 -99.5t-78 -63.5l-2 -10q28 -15 50.5 -52t22.5 -88zM313 410q57 0 96.5 31.5t39.5 88.5
q0 36 -27 63t-81 27q-57 0 -96.5 -30.5t-39.5 -89.5q0 -39 28.5 -64.5t79.5 -25.5zM254 80q67 0 113.5 38.5t46.5 108.5q0 45 -31.5 74t-93.5 29q-68 0 -114 -39t-46 -107q0 -42 32 -73t93 -31z" />
    <glyph glyph-name="nine" unicode="9" horiz-adv-x="570" 
d="M336 620q-78 0 -119 -51t-41 -124q0 -50 31 -77.5t91 -27.5q73 0 115.5 48t42.5 122q0 51 -33 80.5t-87 29.5zM236 -10q-80 0 -136.5 45.5t-56.5 124.5l10 10h80l10 -10q0 -80 103 -80q43 0 73.5 15.5t49.5 48t29 66t19 85.5h-10q-52 -45 -129 -45q-90 0 -146 51.5
t-56 133.5q0 118 70 196.5t194 78.5q102 0 158 -52.5t56 -137.5q0 -71 -14 -149q-37 -209 -104.5 -295t-199.5 -86z" />
    <glyph glyph-name="colon" unicode=":" horiz-adv-x="280" 
d="M158 10l-10 -10h-101l-10 10l18 100l10 10h101l10 -10zM225 390l-10 -10h-101l-10 10l18 100l10 10h101l10 -10z" />
    <glyph glyph-name="semicolon" unicode=";" horiz-adv-x="280" 
d="M155 0l-16 -30l-74 -80l-20 -10h-47l2 10l76 90l2 10l-10 10h-22l-10 10l18 100l10 10h101l10 -10zM225 390l-10 -10h-101l-10 10l18 100l10 10h101l10 -10z" />
    <glyph glyph-name="less" unicode="&#x3c;" 
d="M532 430l-14 -20l-337 -150l-3 -20l283 -150l8 -20l-11 -60l-10 -10h-20l-356 209l-7 20l11 60l13 20l402 191h42l10 -10z" />
    <glyph glyph-name="equal" unicode="=" horiz-adv-x="600" 
d="M531 310l-10 -10h-420l-10 10l12 70l10 10h420l10 -10zM498 120l-10 -10h-420l-10 10l12 70l10 10h420l10 -10z" />
    <glyph glyph-name="greater" unicode="&#x3e;" 
d="M48 70l14 20l337 150l3 20l-283 150l-8 20l11 60l10 10h20l356 -209l7 -20l-11 -60l-13 -20l-402 -191h-42l-10 10z" />
    <glyph glyph-name="question" unicode="?" horiz-adv-x="600" 
d="M570 545q0 -66 -29 -114.5t-94 -95.5q-59 -43 -84 -70t-32 -65l-10 -10h-80l-10 10q6 57 33 96t82 79q31 22 45 33.5t36.5 34t32 47.5t9.5 55q0 33 -27 54t-76 21q-121 0 -144 -130l-10 -10h-80l-10 10q14 102 75 161t169 59q91 0 147.5 -46t56.5 -119zM308 10l-10 -10
h-101l-10 10l17 100l10 10h101l10 -10z" />
    <glyph glyph-name="at" unicode="@" horiz-adv-x="920" 
d="M483 380q-45 0 -75.5 -29t-41.5 -67t-11 -81q0 -83 82 -83q45 0 73 32.5t36.5 70.5t8.5 81q0 41 -17.5 58.5t-54.5 17.5zM581 430l4 20l10 10h80l10 -10l-49 -279q-4 -20 -4 -34q0 -37 41 -37q28 0 48 27t29 67.5t13 73.5t4 58q0 109 -62 176.5t-189 67.5
q-107 0 -192 -59.5t-128 -149t-43 -188.5q0 -110 63.5 -176.5t186.5 -66.5q101 0 167 40h18l10 -10l-12 -70q-75 -50 -183 -50q-163 0 -256.5 90.5t-93.5 242.5q0 205 132.5 346t330.5 141q163 0 257 -91.5t94 -242.5q0 -56 -10 -106.5t-32.5 -97t-65 -74.5t-100.5 -28
q-81 0 -109 60h-10q-48 -50 -129 -50q-63 0 -109.5 48t-46.5 125q0 112 59.5 189.5t163.5 77.5q61 0 93 -40h10z" />
    <glyph glyph-name="A" unicode="A" horiz-adv-x="630" 
d="M567 10l-10 -10h-57l-10 10l-34 150l-20 10h-270l-20 -10l-86 -150l-10 -10h-62l-10 10l12 70l346 610l10 10h90l10 -10l133 -610zM435 270l-60 280h-10l-159 -280l10 -10h209z" />
    <glyph glyph-name="B" unicode="B" horiz-adv-x="640" 
d="M219 410h178q60 0 95 35t35 95q0 70 -90 70h-186l-10 -10l-32 -180zM397 320h-198l-10 -10l-37 -210l10 -10h189q59 0 97.5 37.5t38.5 102.5q0 44 -17.5 67t-72.5 23zM351 0h-304l-10 10l119 680l10 10h271q86 0 138 -40.5t52 -119.5q0 -58 -32.5 -102t-85.5 -68l-2 -10
q80 -27 80 -140q0 -96 -67.5 -158t-168.5 -62z" />
    <glyph glyph-name="C" unicode="C" horiz-adv-x="690" 
d="M633 220l10 -10q-25 -107 -105.5 -163.5t-198.5 -56.5q-128 0 -209 74.5t-81 205.5q0 84 25 162t71 140.5t120 100t164 37.5q115 0 190 -56t75 -154l-10 -10h-80l-10 10q0 56 -45.5 88t-119.5 32q-129 0 -204.5 -103.5t-75.5 -246.5q0 -88 53 -139t137 -51q156 0 202 130
l10 10h82z" />
    <glyph glyph-name="D" unicode="D" horiz-adv-x="670" 
d="M266 0h-219l-10 10l120 680l10 10h199q144 0 217 -71t73 -189q0 -93 -22 -170.5t-67.5 -139t-122 -96t-178.5 -34.5zM164 90h102q150 0 220 95t70 255q0 170 -190 170h-114l-10 -10l-88 -500z" />
    <glyph glyph-name="E" unicode="E" horiz-adv-x="610" 
d="M508 10l-10 -10h-451l-10 10l120 680l10 10h450l10 -10l-12 -70l-10 -10h-353l-10 -10l-33 -190l10 -10h326l10 -10l-13 -70l-10 -10h-333l-10 -10l-35 -200l10 -10h346l10 -10z" />
    <glyph glyph-name="F" unicode="F" horiz-adv-x="570" 
d="M595 620l-10 -10h-333l-10 -10l-35 -200l10 -10h306l10 -10l-13 -70l-10 -10h-312l-10 -10l-50 -280l-10 -10h-81l-10 10l120 680l10 10h430l10 -10z" />
    <glyph glyph-name="G" unicode="G" horiz-adv-x="720" 
d="M327 80q111 0 166.5 52.5t68.5 137.5l-10 10h-196l-10 10l12 70l10 10h300l10 -10l-61 -350l-10 -10h-60l-10 10v55h-10q-43 -39 -89 -57t-111 -18q-120 0 -200 72t-80 208q0 87 24.5 165.5t71 140.5t120 98t164.5 36q133 0 204.5 -63.5t71.5 -146.5l-12 -10h-80l-8 10
q0 49 -45.5 84.5t-130.5 35.5q-91 0 -156 -51t-94.5 -128.5t-29.5 -170.5t50.5 -141.5t129.5 -48.5z" />
    <glyph glyph-name="H" unicode="H" horiz-adv-x="710" 
d="M587 10l-10 -10h-81l-10 10l51 290l-10 10h-328l-10 -10l-51 -290l-10 -10h-81l-10 10l120 680l10 10h81l10 -10l-49 -280l10 -10h328l10 10l49 280l10 10h81l10 -10z" />
    <glyph glyph-name="I" unicode="I" horiz-adv-x="260" 
d="M137 10l-10 -10h-81l-10 10l120 680l10 10h81l10 -10z" />
    <glyph glyph-name="J" unicode="J" horiz-adv-x="510" 
d="M507 690l-88 -500q-16 -93 -69 -146.5t-164 -53.5q-89 0 -136 43.5t-47 96.5q0 13 2 30.5t4 28.5l2 11l11 10h81l8 -10q-7 -28 -7 -60q0 -60 82 -60q113 0 132 110l88 500l10 10h81z" />
    <glyph glyph-name="K" unicode="K" horiz-adv-x="620" 
d="M557 10l-10 -10h-27l-20 10l-191 317h-10l-112 -97l-13 -20l-36 -200l-10 -10h-81l-10 10l120 680l10 10h81l10 -10l-57 -321h10l375 321l20 10h41l10 -10l-12 -70l-259 -220l-2 -10l186 -310z" />
    <glyph glyph-name="L" unicode="L" horiz-adv-x="540" 
d="M488 10l-10 -10h-431l-10 10l120 680l10 10h81l10 -10l-104 -590l10 -10h326l10 -10z" />
    <glyph glyph-name="M" unicode="M" horiz-adv-x="890" 
d="M767 10l-10 -10h-81l-10 10l85 480h-10l-284 -480l-10 -10h-90l-10 10l-114 480h-10l-85 -480l-10 -10h-81l-10 10l120 680l10 10h103l10 -10l132 -550h10l326 550l10 10h119l10 -10z" />
    <glyph glyph-name="N" unicode="N" horiz-adv-x="730" 
d="M607 10l-12 -10h-81l-18 10l-256 520h-10l-92 -520l-12 -10h-81l-8 10l120 680l12 10h81l18 -10l256 -520h10l92 520l12 10h81l8 -10z" />
    <glyph glyph-name="O" unicode="O" horiz-adv-x="740" 
d="M150 270q0 -90 50.5 -140t140.5 -50q86 0 152 52.5t98 131.5t32 166q0 90 -51 140t-141 50q-65 0 -119.5 -30.5t-89 -81t-53.5 -112t-19 -126.5zM724 430q0 -80 -25.5 -157.5t-72 -141t-121 -102.5t-164.5 -39q-135 0 -213.5 76t-78.5 204q0 80 25 157.5t71.5 141
t121 102.5t164.5 39q135 0 214 -76t79 -204z" />
    <glyph glyph-name="P" unicode="P" horiz-adv-x="650" 
d="M678 530q0 -105 -70 -167.5t-190 -62.5h-220l-10 -10l-50 -280l-10 -10h-81l-10 10l120 680l10 10h291q105 0 162.5 -44t57.5 -126zM217 390h201q72 0 116 34.5t44 105.5q0 44 -29 62t-91 18h-206l-10 -10l-35 -200z" />
    <glyph glyph-name="Q" unicode="Q" horiz-adv-x="740" 
d="M724 430q0 -83 -27 -164t-77 -143l-2 -10l28 -33l-12 -70l-10 -10h-34l-40 48h-10q-89 -58 -198 -58q-129 0 -211 77t-82 203q0 80 25.5 157.5t72 141t121 102.5t164.5 39q129 0 210.5 -77t81.5 -203zM150 270q0 -88 53.5 -139t138.5 -51q76 0 138 41l2 10l-49 59l-20 10
h-101l-10 10l10 60l10 10h147l20 -10l58 -70h10q66 98 66 230q0 88 -53.5 139t-137.5 51q-86 0 -152 -52.5t-98 -131.5t-32 -166z" />
    <glyph glyph-name="R" unicode="R" horiz-adv-x="670" 
d="M678 530q0 -88 -49.5 -147t-137.5 -76l-1 -10l100 -217l-12 -70l-10 -10h-36l-18 10l-131 280l-20 10h-165l-10 -10l-50 -280l-10 -10h-81l-10 10l120 680l10 10h291q105 0 162.5 -44t57.5 -126zM217 390h201q72 0 116 34.5t44 105.5q0 44 -29 62t-91 18h-206l-10 -10
l-35 -200z" />
    <glyph glyph-name="S" unicode="S" horiz-adv-x="630" 
d="M581 200q0 -72 -42.5 -120.5t-108 -69t-149.5 -20.5q-122 0 -186 56.5t-64 143.5q0 16 3 30l10 10h81l9 -10q-3 -14 -3 -30q0 -53 40.5 -81.5t119.5 -28.5q86 0 138 31t52 89q0 50 -36.5 74.5t-132.5 45.5q-100 22 -154 65.5t-54 124.5q0 95 76.5 147.5t200.5 52.5
q106 0 171.5 -49t65.5 -131q0 -17 -4 -30l-10 -10h-80l-10 10q4 20 4 30q0 90 -147 90q-30 0 -57.5 -5t-53 -16.5t-41 -34.5t-15.5 -54q0 -44 38 -66.5t134 -43.5q99 -22 152 -68.5t53 -131.5z" />
    <glyph glyph-name="T" unicode="T" horiz-adv-x="600" 
d="M645 620l-10 -10h-213l-10 -10l-104 -590l-10 -10h-81l-10 10l104 590l-10 10h-206l-10 10l12 70l10 10h540l10 -10z" />
    <glyph glyph-name="U" unicode="U" horiz-adv-x="700" 
d="M697 690l-77 -440q-22 -127 -95.5 -193.5t-217.5 -66.5q-107 0 -169.5 55t-62.5 151q0 22 5 54l77 440l10 10h81l10 -10l-77 -440q-5 -32 -5 -53q0 -57 32.5 -87t109.5 -30q92 0 139 44.5t62 125.5l77 440l10 10h81z" />
    <glyph glyph-name="V" unicode="V" horiz-adv-x="630" 
d="M294 140l297 550l10 10h66l10 -10l-12 -70l-338 -610l-10 -10h-90l-10 10l-122 610l12 70l10 10h54l10 -10l103 -550h10z" />
    <glyph glyph-name="W" unicode="W" horiz-adv-x="930" 
d="M955 620l-268 -610l-10 -10h-89l-10 10l-57 530h-10l-244 -530l-10 -10h-90l-10 10l-52 610l12 70l10 10h61l10 -10l40 -510h10l237 510l10 10h90l10 -10l57 -510h10l217 510l10 10h68l10 -10z" />
    <glyph glyph-name="X" unicode="X" horiz-adv-x="650" 
d="M568 10l-10 -10h-29l-20 10l-168 268h-10l-254 -268l-20 -10h-50l-10 10l13 70l270 277l2 10l-167 253l12 70l10 10h28l20 -10l161 -255h10l241 255l20 10h50l10 -10l-12 -70l-259 -265l-2 -10l176 -265z" />
    <glyph glyph-name="Y" unicode="Y" 
d="M615 620l-269 -340l-48 -270l-10 -10h-81l-10 10l48 270l-150 340l12 70l10 10h44l10 -10l126 -300h20l231 300l20 10h49l10 -10z" />
    <glyph glyph-name="Z" unicode="Z" horiz-adv-x="600" 
d="M507 10l-10 -10h-480l-10 10l14 80l10 20l432 490l1 10h-329l-10 10l12 70l10 10h450l10 -10l-14 -80l-10 -20l-433 -490l-1 -10h361l10 -10z" />
    <glyph glyph-name="bracketleft" unicode="[" horiz-adv-x="370" 
d="M212 -190l-10 -10h-190l-10 10l155 880l10 10h190l10 -10l-12 -70l-10 -10h-93l-10 -10l-123 -700l10 -10h85l10 -10z" />
    <glyph glyph-name="backslash" unicode="\" horiz-adv-x="510" 
d="M370 10l-265 610l12 70l10 10h37l10 -10l266 -610l-13 -70l-10 -10h-37z" />
    <glyph glyph-name="bracketright" unicode="]" horiz-adv-x="370" 
d="M157 690l10 10h190l10 -10l-155 -880l-10 -10h-190l-10 10l12 70l10 10h93l10 10l123 700l-10 10h-85l-10 10z" />
    <glyph glyph-name="asciicircum" unicode="^" 
d="M508 240l-12 -10h-34l-18 10l-82 330h-20l-198 -330l-22 -10h-46l-8 10l12 70l237 380l12 10h80l8 -10l103 -380z" />
    <glyph glyph-name="underscore" unicode="_" 
d="M481 -80l-10 -10h-480l-10 10l13 70l10 10h480l10 -10z" />
    <glyph glyph-name="grave" unicode="`" horiz-adv-x="500" 
d="M341 570l-10 -10h-39l-20 10l-92 100l3 20l10 10h59l20 -10l72 -100z" />
    <glyph glyph-name="a" unicode="a" horiz-adv-x="550" 
d="M354 50h-10q-53 -60 -135 -60t-133.5 58t-51.5 150q0 127 70.5 219.5t187.5 92.5q94 0 133 -60h10l17 40l12 10h71l8 -10l-85 -480l-12 -10h-71l-8 10zM228 80q55 0 95 38t56.5 88t16.5 103q0 54 -27 82.5t-79 28.5q-53 0 -92 -34t-56 -83t-17 -105q0 -57 26.5 -87.5
t76.5 -30.5z" />
    <glyph glyph-name="b" unicode="b" horiz-adv-x="550" 
d="M527 308q0 -76 -28 -147t-90 -121t-145 -50q-86 0 -130 60h-10l-17 -40l-10 -10h-70l-10 10l120 680l10 10h81l10 -10l-42 -240h10q56 60 139 60q85 0 133.5 -57t48.5 -145zM260 80q53 0 92 37.5t56.5 88t17.5 102.5q0 112 -107 112q-55 0 -93.5 -36t-55 -86t-16.5 -106
q0 -112 106 -112z" />
    <glyph glyph-name="c" unicode="c" horiz-adv-x="520" 
d="M475 160q-14 -51 -38.5 -85.5t-56.5 -52.5t-65.5 -25t-75.5 -7q-93 0 -154.5 54t-61.5 146q0 64 16 119.5t48.5 101.5t86.5 72.5t125 26.5q93 0 149.5 -45t56.5 -107q0 -12 -1 -18l-10 -10h-80l-10 10v5q0 37 -27.5 56t-77.5 19q-88 0 -131.5 -65.5t-43.5 -164.5
q0 -57 33.5 -83.5t87.5 -26.5q97 0 130 80l10 10h80z" />
    <glyph glyph-name="d" unicode="d" horiz-adv-x="551" 
d="M447 10l-10 -10h-71l-10 10l-3 35h-10q-50 -55 -130 -55q-81 0 -136 57t-55 143q0 129 70.5 224.5t193.5 95.5q86 0 128 -60h10l42 240l10 10h81l10 -10zM229 80q55 0 93.5 35.5t55 85.5t16.5 106q0 113 -108 113q-53 0 -91.5 -38t-55 -88.5t-16.5 -103.5t28.5 -81.5
t77.5 -28.5z" />
    <glyph glyph-name="e" unicode="e" horiz-adv-x="520" 
d="M380 290l11 10q3 13 3 28q0 36 -23.5 64t-80.5 28q-38 0 -67.5 -14t-44.5 -35.5t-22.5 -38t-10.5 -32.5l9 -10h226zM234 -10q-99 0 -154.5 57.5t-55.5 147.5q0 137 70 226t201 89q97 0 149 -54.5t52 -141.5q0 -31 -6 -64l-6 -30l-11 -10h-333l-12 -10q-1 -4 -1 -18
q0 -16 4.5 -31t15 -32.5t35 -28t58.5 -10.5q75 0 110 60l12 10h80l8 -10q-45 -150 -216 -150z" />
    <glyph glyph-name="f" unicode="f" horiz-adv-x="370" 
d="M177 10l-10 -10h-81l-10 10l69 390l-10 10h-66l-10 10l12 70l10 10h73l10 10l7 40q23 130 153 130h90l10 -10l-13 -70l-10 -10h-81q-40 0 -48 -40l-7 -40l10 -10h97l10 -10l-12 -70l-10 -10h-104l-10 -10z" />
    <glyph glyph-name="g" unicode="g" horiz-adv-x="550" 
d="M229 80q55 0 93.5 35.5t55 85.5t16.5 106q0 113 -108 113q-53 0 -91.5 -38t-55 -88.5t-16.5 -103.5t28.5 -81.5t77.5 -28.5zM533 490l-78 -440q-25 -143 -87 -201.5t-162 -58.5q-88 0 -140.5 40t-52.5 100l10 10h80l10 -10q9 -29 31 -39.5t62 -10.5q65 0 98.5 39.5
t48.5 125.5h-10q-50 -55 -130 -55q-81 0 -136 57t-55 143q0 129 70.5 224.5t193.5 95.5q85 0 127 -60h11l17 40l10 10h72z" />
    <glyph glyph-name="h" unicode="h" horiz-adv-x="550" 
d="M448 10l-10 -10h-81l-10 10l49 280q5 28 5 47q0 83 -82 83q-63 0 -102.5 -37t-54.5 -123l-44 -250l-10 -10h-81l-10 10l120 680l10 10h81l10 -10l-42 -240h10q18 23 53.5 41.5t85.5 18.5q80 0 119 -44.5t39 -112.5q0 -30 -6 -63z" />
    <glyph glyph-name="i" unicode="i" horiz-adv-x="220" 
d="M220 590l-10 -10h-81l-10 10l14 80l10 10h81l10 -10zM118 10l-10 -10h-81l-10 10l85 480l10 10h81l10 -10z" />
    <glyph glyph-name="j" unicode="j" horiz-adv-x="220" 
d="M203 490l-95 -540q-13 -70 -53 -100t-95 -30h-63l-10 10l12 70l10 10h51q40 0 47 40l95 540l10 10h81zM220 590l-10 -10h-81l-10 10l14 80l10 10h81l10 -10z" />
    <glyph glyph-name="k" unicode="k" horiz-adv-x="500" 
d="M428 10l-10 -10h-25l-20 10l-123 197h-10l-91 -77l-13 -20l-18 -100l-10 -10h-81l-10 10l120 680l10 10h81l10 -10l-75 -422h10l262 222l20 10h38l10 -10l-12 -70l-166 -141l-1 -10l117 -189z" />
    <glyph glyph-name="l" unicode="l" horiz-adv-x="220" 
d="M118 10l-10 -10h-81l-10 10l120 680l10 10h81l10 -10z" />
    <glyph glyph-name="m" unicode="m" horiz-adv-x="810" 
d="M720 10l-10 -10h-81l-10 10l51 290q5 27 5 45q0 75 -73 75q-52 0 -87 -34.5t-46 -94.5l-50 -281l-10 -10h-81l-10 10l51 290q5 27 5 45q0 75 -73 75q-45 0 -83 -30.5t-50 -98.5l-50 -281l-10 -10h-81l-10 10l85 480l10 10h71l10 -10l3 -40h10q38 60 120 60q98 0 127 -70
h10q48 70 154 70q78 0 119.5 -39.5t41.5 -100.5q0 -28 -7 -70z" />
    <glyph glyph-name="n" unicode="n" horiz-adv-x="540" 
d="M449 10l-10 -10h-81l-10 10l49 280q4 24 4 47q0 83 -81 83q-63 0 -102.5 -37t-54.5 -123l-45 -250l-10 -10h-81l-10 10l85 480l10 10h71l10 -10l3 -40h10q43 60 140 60q80 0 119 -44.5t39 -112.5q0 -30 -6 -63z" />
    <glyph glyph-name="o" unicode="o" horiz-adv-x="540" 
d="M517 310q0 -134 -72.5 -227t-205.5 -93q-97 0 -156.5 53.5t-59.5 146.5q0 86 29.5 157t93.5 117t154 46q97 0 157 -53.5t60 -146.5zM124 190q0 -53 30 -81.5t85 -28.5q87 0 131.5 67.5t44.5 162.5q0 53 -30 81.5t-85 28.5q-87 0 -131.5 -67.5t-44.5 -162.5z" />
    <glyph glyph-name="p" unicode="p" horiz-adv-x="550" 
d="M102 490l10 10h71l10 -10l3 -35h10q50 55 130 55q81 0 136 -57t55 -143q0 -129 -70.5 -224.5t-193.5 -95.5q-86 0 -128 60h-10l-42 -240l-10 -10h-81l-10 10zM320 420q-55 0 -93.5 -35.5t-55 -85.5t-16.5 -106q0 -113 108 -113q53 0 91.5 38t55 88.5t16.5 103.5
t-28.5 81.5t-77.5 28.5z" />
    <glyph glyph-name="q" unicode="q" horiz-adv-x="550" 
d="M23 192q0 76 28 147t90 121t145 50q86 0 130 -60h10l17 40l10 10h70l10 -10l-120 -680l-10 -10h-81l-10 10l42 240h-10q-56 -60 -139 -60q-85 0 -133.5 57t-48.5 145zM290 420q-53 0 -92 -37.5t-56.5 -88t-17.5 -102.5q0 -112 107 -112q55 0 93.5 36t55 86t16.5 106
q0 112 -106 112z" />
    <glyph glyph-name="r" unicode="r" horiz-adv-x="370" 
d="M381 420l-10 -10h-52q-65 0 -103.5 -32.5t-53.5 -117.5l-44 -250l-10 -10h-81l-10 10l85 480l10 10h71l10 -10l3 -40h10q20 28 46 39t83 11h48l10 -10z" />
    <glyph glyph-name="s" unicode="s" horiz-adv-x="460" 
d="M413 156q0 -83 -61 -124.5t-152 -41.5q-86 0 -138 38t-52 102q0 15 4 30l11 10h80l9 -10q-3 -9 -3 -20q0 -60 89 -60q46 0 79 17t33 59q0 26 -24 37.5t-94 26.5q-64 14 -100 49t-36 86q0 75 58 115t144 40q82 0 131 -35t49 -95l-2 -20l-12 -10h-80l-8 10q2 5 2 15
q0 19 -19 32t-61 13q-100 0 -100 -65q0 -27 25.5 -38.5t101.5 -26.5q61 -13 93.5 -48.5t32.5 -85.5z" />
    <glyph glyph-name="t" unicode="t" horiz-adv-x="380" 
d="M297 10l-10 -10h-81q-51 0 -84.5 31t-33.5 83q0 18 4 38l44 248l-10 10h-66l-10 10l12 70l10 10h73l10 10l16 90l10 10h81l10 -10l-16 -90l10 -10h107l10 -10l-12 -70l-10 -10h-114l-10 -10l-46 -259q-2 -10 -2 -21q0 -30 34 -30h77l10 -10z" />
    <glyph glyph-name="u" unicode="u" horiz-adv-x="530" 
d="M428 10l-10 -10h-71l-10 10l-3 40h-10q-37 -60 -120 -60q-78 0 -123.5 43.5t-45.5 108.5q0 28 5 58l51 290l10 10h81l10 -10l-51 -290q-3 -15 -3 -35q0 -38 20.5 -61.5t61.5 -23.5q55 0 95 42t55 128l42 240l10 10h81l10 -10z" />
    <glyph glyph-name="v" unicode="v" horiz-adv-x="510" 
d="M510 420l-243 -410l-10 -10h-90l-10 10l-97 410l12 70l10 10h54l10 -10l78 -350h10l202 350l10 10h66l10 -10z" />
    <glyph glyph-name="w" unicode="w" horiz-adv-x="750" 
d="M740 420l-193 -410l-10 -10h-90l-10 10l-38 350h-10l-162 -350l-10 -10h-90l-10 10l-47 410l12 70l10 10h57l10 -10l30 -340h10l155 340l10 10h95l10 -10l36 -340h10l150 340l10 10h67l10 -10z" />
    <glyph glyph-name="x" unicode="x" horiz-adv-x="490" 
d="M417 10l-10 -10h-24l-20 10l-118 168h-10l-167 -168l-20 -10h-51l-10 10l13 70l180 177l1 10l-111 153l12 70l10 10h24l20 -10l110 -156h10l155 156l20 10h51l10 -10l-12 -70l-169 -165l-1 -10l120 -165z" />
    <glyph glyph-name="y" unicode="y" horiz-adv-x="510" 
d="M511 420l-242 -420q-58 -102 -99.5 -131t-128.5 -29h-32l-10 10l12 70l10 10h20q47 0 69.5 11.5t43.5 48.5l2 10l-96 420l12 70l10 10h54l10 -10l77 -370h10l203 370l10 10h67l10 -10z" />
    <glyph glyph-name="z" unicode="z" horiz-adv-x="500" 
d="M417 10l-10 -10h-400l-10 10l14 80l14 20l314 290l2 10h-251l-10 10l12 70l10 10h380l10 -10l-14 -80l-14 -20l-314 -290l-2 -10h272l10 -10z" />
    <glyph glyph-name="braceleft" unicode="{" horiz-adv-x="440" 
d="M109 -38l29 168q3 15 3 31q0 27 -13.5 38t-43.5 11l-10 10l11 60l10 10q38 0 58 18t28 62l31 180q26 150 161 150h55l10 -10l-12 -70l-10 -10h-42q-50 0 -61 -60l-33 -190q-14 -79 -68 -100l-3 -20q34 -25 34 -75q0 -16 -4 -36l-29 -167q-4 -20 -4 -29q0 -43 40 -43h39
l10 -10l-12 -70l-10 -10h-27q-56 0 -98 34.5t-42 93.5q0 19 3 34z" />
    <glyph glyph-name="bar" unicode="|" horiz-adv-x="340" 
d="M143 -190l-10 -10h-81l-10 10l155 880l10 10h81l10 -10z" />
    <glyph glyph-name="braceright" unicode="}" horiz-adv-x="440" 
d="M330 538l-29 -168q-3 -15 -3 -31q0 -27 13.5 -38t43.5 -11l10 -10l-11 -60l-10 -10q-38 0 -58 -18t-28 -62l-31 -180q-26 -150 -161 -150h-55l-10 10l12 70l10 10h42q23 0 39.5 15.5t21.5 44.5l33 190q14 79 68 100l3 20q-34 25 -34 75q0 16 4 36l29 167q4 20 4 29
q0 43 -40 43h-39l-10 10l12 70l10 10h27q56 0 98 -34.5t42 -93.5q0 -19 -3 -34z" />
    <glyph glyph-name="asciitilde" unicode="~" horiz-adv-x="620" 
d="M191 260q-28 0 -42.5 -19.5t-21.5 -60.5l-10 -10h-60l-10 10q32 180 172 180q39 0 72 -19t52 -41t42 -41t43 -19q28 0 42.5 19.5t21.5 60.5l10 10h60l10 -10q-32 -180 -172 -180q-39 0 -72 19t-52 41t-42 41t-43 19z" />
    <glyph glyph-name="uni00A0" unicode="&#xa0;" horiz-adv-x="260" 
 />
    <glyph glyph-name="exclamdown" unicode="&#xa1;" horiz-adv-x="360" 
d="M96 60l60 230l10 10h41l10 -10l-20 -230l-44 -250l-10 -10h-81l-10 10zM161 490l10 10h101l10 -10l-17 -100l-10 -10h-101l-10 10z" />
    <glyph glyph-name="cent" unicode="&#xa2;" horiz-adv-x="520" 
d="M201 98l54 305l-8 10q-13 -3 -26.5 -10t-31.5 -24t-32 -40t-23.5 -62t-9.5 -87q0 -81 67 -102zM337 404l-55 -309l10 -10q25 4 48.5 24t33.5 51l10 10h81l10 -10q-41 -157 -203 -169l-10 -10l-7 -41l-10 -10h-61l-10 10l9 48l-10 10q-20 4 -42.5 15.5t-48.5 32.5
t-42.5 58.5t-16.5 85.5q0 82 23 145.5t61 99t77.5 53.5t79.5 21l12 10l7 41l10 10h61l10 -10l-8 -47l8 -10q53 -10 97 -48.5t44 -96.5q0 -12 -1 -18l-10 -10h-80l-10 10q3 59 -55 74z" />
    <glyph glyph-name="sterling" unicode="&#xa3;" horiz-adv-x="600" 
d="M574 500l-10 -10h-80l-10 10q3 20 3 36q0 84 -80 84q-61 0 -92.5 -34.5t-44.5 -105.5l-19 -110l10 -10h196l10 -10l-10 -60l-10 -10h-204l-10 -10l-14 -80q-13 -70 -56 -90l-2 -10h380l10 -10l-13 -70l-10 -10h-522l-10 10l13 70l10 10h10q71 0 87 90l16 90l-10 10h-56
l-10 10l10 60l10 10h64l10 10l21 120q39 220 236 220q81 0 131.5 -44.5t50.5 -123.5q0 -23 -5 -42z" />
    <glyph glyph-name="currency" unicode="&#xa4;" horiz-adv-x="640" 
d="M55 209q0 105 67 190l2 10l-47 57l1 10l65 54h10l47 -57h9q69 37 146 37t137 -41h10l72 61h10l54 -65l-1 -10l-72 -61l-2 -9q21 -47 21 -95q0 -106 -67 -189l-2 -10l44 -53l-2 -10l-61 -58h-10l-46 57h-10q-66 -37 -146 -37q-79 0 -137 41h-10l-72 -61h-10l-54 65l2 10
l71 61l1 8q-20 45 -20 95zM350 420q-78 0 -135.5 -61t-57.5 -143q0 -59 35 -97.5t98 -38.5q78 0 135.5 61t57.5 142q0 60 -35 98.5t-98 38.5z" />
    <glyph glyph-name="yen" unicode="&#xa5;" horiz-adv-x="560" 
d="M308 120l-20 -110l-10 -10h-81l-10 10l20 110l-10 10h-107l-10 10l11 60l10 10h113l10 10l4 20l-13 40l-20 10h-107l-10 10l11 60l10 10h82l2 10l-78 240l12 70l10 10h43l20 -10l94 -320h20l206 320l20 10h58l10 -10l-12 -70l-162 -240l-2 -10h78l10 -10l-11 -60l-10 -10
h-113l-20 -10l-27 -40l-4 -20l10 -10h107l10 -10l-11 -60l-10 -10h-113z" />
    <glyph glyph-name="brokenbar" unicode="&#xa6;" horiz-adv-x="340" 
d="M179 10l-10 -10h-82l-10 10l48 270l10 10h82l10 -10zM251 420l-10 -10h-82l-10 10l48 270l10 10h82l10 -10z" />
    <glyph glyph-name="section" unicode="&#xa7;" horiz-adv-x="640" 
d="M223 380q-35 -9 -56 -37.5t-21 -66.5q0 -37 27 -61t60 -33.5t88 -24t87 -27.5h10q34 9 56 38.5t22 67.5q0 24 -14.5 42.5t-43.5 32t-57.5 22.5t-73.5 22.5t-74 24.5h-10zM481 90l-1 -10q45 -34 45 -99q0 -95 -75 -143t-186 -48q-114 0 -178.5 41t-64.5 124q0 23 5 45
l10 10h80l10 -10q-5 -20 -5 -38q0 -43 32 -62.5t111 -19.5q37 0 70 6.5t62 31t29 63.5q0 30 -28 50t-70 29.5t-91.5 25t-91.5 34t-70 58t-28 96.5q0 54 31.5 95t82.5 51l1 10q-44 38 -44 99q0 50 23.5 87t62.5 56.5t82 28.5t90 9q110 0 176.5 -42t66.5 -124q0 -21 -4 -44
l-10 -10h-80l-10 10q4 24 4 36q0 44 -32 64t-111 20q-158 0 -158 -91q0 -27 28 -47.5t70 -32t91.5 -29t91.5 -37t70 -58t28 -91.5t-32.5 -93.5t-82.5 -50.5z" />
    <glyph glyph-name="dieresis" unicode="&#xa8;" horiz-adv-x="500" 
d="M270 590l-10 -10h-81l-10 10l14 80l10 10h81l10 -10zM451 590l-10 -10h-81l-10 10l14 80l10 10h81l10 -10z" />
    <glyph glyph-name="copyright" unicode="&#xa9;" horiz-adv-x="840" 
d="M462 560q30 0 57.5 -6t53 -20t41 -40.5t15.5 -63.5q0 -13 -1 -20l-10 -10h-60l-10 10q0 48 -21.5 64t-64.5 16q-67 0 -103 -55.5t-36 -130.5q0 -94 90 -94q43 0 70.5 16t43.5 64l10 10h60l10 -10q-10 -56 -43 -91.5t-70 -47t-81 -11.5q-74 0 -122.5 43.5t-48.5 120.5
q0 106 58.5 181t161.5 75zM487 630q-138 0 -236.5 -98.5t-98.5 -234.5q0 -100 65 -163.5t171 -63.5q138 0 236 98.5t98 234.5q0 100 -64.5 163.5t-170.5 63.5zM70 297q0 107 52.5 201t149.5 153t215 59q140 0 228.5 -86t88.5 -221q0 -107 -52 -201t-149 -153t-215 -59
q-141 0 -229.5 86t-88.5 221z" />
    <glyph glyph-name="ordfeminine" unicode="&#xaa;" horiz-adv-x="560" 
d="M497 350l-10 -10h-33q-40 0 -64 30h-10q-36 -40 -106 -40q-69 0 -110.5 43t-41.5 110q0 92 51.5 159.5t147.5 67.5q30 0 53.5 -7.5t31.5 -14.5l8 -8h10l2 10l10 10h71l10 -10l-40 -229q-3 -13 -3 -23q0 -18 16 -18h8l10 -10zM327 630q-59 0 -86.5 -43t-27.5 -104
q0 -33 19.5 -53t55.5 -20q60 0 86.5 44t26.5 104q0 33 -20 52.5t-54 19.5zM473 270l-10 -10h-350l-10 10l2 10l10 10h350l10 -10z" />
    <glyph glyph-name="guillemotleft" unicode="&#xab;" horiz-adv-x="700" 
d="M323 40l-10 -10h-70l-20 10l-142 172l-7 20l11 60l13 20l176 148l20 10h93l10 -10l-6 -30l-210 -170l-3 -20l150 -170zM583 40l-10 -10h-70l-20 10l-142 172l-7 20l11 60l13 20l176 148l20 10h93l10 -10l-6 -30l-210 -170l-3 -20l150 -170z" />
    <glyph glyph-name="logicalnot" unicode="&#xac;" 
d="M474 100l-10 -10h-71l-10 10l18 100l-10 10h-327l-10 10l13 70l10 10h421l10 -10z" />
    <glyph glyph-name="uni00AD" unicode="&#xad;" horiz-adv-x="410" 
d="M344 220l-10 -10h-270l-10 10l13 70l10 10h270l10 -10z" />
    <glyph glyph-name="registered" unicode="&#xae;" horiz-adv-x="840" 
d="M374 380h119q24 0 41.5 18t17.5 44q0 17 -11.5 27.5t-30.5 10.5h-122l-10 -10l-14 -80zM530 310l63 -100l-9 -50l-10 -10h-23l-20 10l-86 140l-20 10h-67l-10 -10l-24 -140l-10 -10h-61l-10 10l67 380l10 10h191q52 0 87.5 -31t35.5 -77q0 -92 -102 -122zM487 630
q-138 0 -236.5 -98.5t-98.5 -234.5q0 -100 65 -163.5t171 -63.5q138 0 236 98.5t98 234.5q0 100 -64.5 163.5t-170.5 63.5zM70 297q0 107 52.5 201t149.5 153t215 59q140 0 228.5 -86t88.5 -221q0 -107 -52 -201t-149 -153t-215 -59q-141 0 -229.5 86t-88.5 221z" />
    <glyph glyph-name="macron" unicode="&#xaf;" horiz-adv-x="500" 
d="M470 590l-10 -10h-300l-10 10l10 60l10 10h300l10 -10z" />
    <glyph glyph-name="degree" unicode="&#xb0;" 
d="M120 471q0 97 68 168t169 71q84 0 137.5 -49.5t53.5 -131.5q0 -98 -67.5 -168.5t-169.5 -70.5q-84 0 -137.5 49.5t-53.5 131.5zM357 630q-63 0 -104.5 -48.5t-41.5 -110.5q0 -44 25 -72.5t75 -28.5q63 0 104.5 48.5t41.5 109.5q0 44 -25 73t-75 29z" />
    <glyph glyph-name="plusminus" unicode="&#xb1;" 
d="M528 290l-10 -10h-164l-10 -10l-19 -110l-10 -10h-71l-10 10l19 110l-10 10h-156l-10 10l12 70l10 10h164l10 10l19 110l10 10h71l10 -10l-19 -110l10 -10h156l10 -10zM478 10l-10 -10h-431l-10 10l13 70l10 10h431l10 -10z" />
    <glyph glyph-name="twosuperior" unicode="&#xb2;" horiz-adv-x="360" 
d="M337 350l-10 -10h-250l-10 10l11 60l13 20l101 60q89 53 89 107q0 14 -8.5 23.5t-25.5 9.5q-41 0 -47 -40l-10 -10h-70l-10 10q10 57 41.5 88.5t95.5 31.5q62 0 93.5 -32t31.5 -78q0 -80 -90 -140l-46 -30l-1 -10h103l10 -10z" />
    <glyph glyph-name="threesuperior" unicode="&#xb3;" horiz-adv-x="360" 
d="M184 490l-10 10l8 52l68 58l2 10h-115l-10 10l10 60l10 10h220l10 -10l-10 -60l-14 -20l-59 -50l-2 -10q3 0 7.5 -1t16 -7t20.5 -14t16 -24t7 -37q0 -62 -42.5 -99.5t-108.5 -37.5q-60 0 -97.5 27t-37.5 70q0 14 2 23l10 10h70l10 -10q-1 -5 -1 -9q0 -31 44 -31
q26 0 43 16.5t17 40.5q0 13 -9 22t-22 9q-11 0 -25 -8h-28z" />
    <glyph glyph-name="acute" unicode="&#xb4;" horiz-adv-x="500" 
d="M416 670l-128 -100l-20 -10h-54l-10 10l4 20l107 100l20 10h74l10 -10z" />
    <glyph glyph-name="mu" unicode="&#xb5;" 
d="M361 30h-10q-42 -40 -102 -40q-31 0 -55.5 10t-33.5 20l-9 10h-10l-39 -220l-10 -10h-81l-10 10l120 680l10 10h81l10 -10l-44 -249q-7 -35 -7 -61q0 -100 89 -100q109 0 136 150l46 260l10 10h81l10 -10l-85 -480l-10 -10h-71l-10 10z" />
    <glyph glyph-name="paragraph" unicode="&#xb6;" horiz-adv-x="710" 
d="M301 -190l-10 -10h-81l-10 10l85 480l-10 10q-81 0 -129.5 42t-48.5 119q0 117 69 178t191 61h371l10 -10l-12 -70l-10 -10h-64l-10 -10l-139 -790l-10 -10h-81l-10 10l139 790l-10 10h-81l-10 -10z" />
    <glyph glyph-name="periodcentered" unicode="&#xb7;" horiz-adv-x="280" 
d="M194 210l-10 -10h-101l-10 10l17 100l10 10h101l10 -10z" />
    <glyph glyph-name="cedilla" unicode="&#xb8;" horiz-adv-x="500" 
d="M148 -100h-10l-10 10l1 10l95 80h42l-83 -70h10q22 10 42 10q21 0 35 -14.5t14 -41.5q0 -47 -32 -70.5t-84 -23.5q-30 0 -47 8.5t-35 31.5l1 10l10 10h12q12 -14 25.5 -17t41.5 -3q24 0 41 12.5t17 36.5q0 31 -44 31q-20 0 -42 -10z" />
    <glyph glyph-name="onesuperior" unicode="&#xb9;" horiz-adv-x="360" 
d="M67 350l11 60l10 10h82l10 10l26 145h-10l-41 -35h-34l-10 10l11 60l94 80l20 10h71l10 -10l-46 -260l10 -10h57l10 -10l-11 -60l-10 -10h-250z" />
    <glyph glyph-name="ordmasculine" unicode="&#xba;" horiz-adv-x="520" 
d="M287 330q-81 0 -123 45.5t-42 112.5q0 93 54 157.5t151 64.5q81 0 123 -45t42 -111q0 -94 -53.5 -159t-151.5 -65zM327 630q-60 0 -87 -41t-27 -101q0 -35 19 -56.5t56 -21.5q60 0 87 42t27 101q0 34 -19 55.5t-56 21.5zM423 270l-10 -10h-300l-10 10l2 10l10 10h300
l10 -10z" />
    <glyph glyph-name="guillemotright" unicode="&#xbb;" horiz-adv-x="700" 
d="M53 30l-10 10l5 30l210 170l3 20l-150 170l6 30l10 10h67l20 -10l144 -172l7 -20l-11 -60l-13 -20l-174 -148l-20 -10h-94zM313 30l-10 10l5 30l210 170l3 20l-150 170l6 30l10 10h67l20 -10l144 -172l7 -20l-11 -60l-13 -20l-174 -148l-20 -10h-94z" />
    <glyph glyph-name="onequarter" unicode="&#xbc;" horiz-adv-x="860" 
d="M717 10l-10 -10h-71l-10 10l9 50l-10 10h-181l-10 10l14 80l13 20l200 170l20 10h86l10 -10zM653 160l16 90h-10l-106 -90l-2 -10h92zM725 620l-499 -610l-11 -10h-49l-9 10l13 70l498 610l12 10h49l8 -10zM67 350l11 60l10 10h82l10 10l26 145h-10l-41 -35h-34l-10 10
l11 60l94 80l20 10h71l10 -10l-46 -260l10 -10h57l10 -10l-11 -60l-10 -10h-250z" />
    <glyph glyph-name="onehalf" unicode="&#xbd;" horiz-adv-x="860" 
d="M725 620l-499 -610l-11 -10h-49l-9 10l13 70l498 610l12 10h49l8 -10zM67 350l11 60l10 10h82l10 10l26 145h-10l-41 -35h-34l-10 10l11 60l94 80l20 10h71l10 -10l-46 -260l10 -10h57l10 -10l-11 -60l-10 -10h-250zM757 10l-10 -10h-250l-10 10l11 60l13 20l101 60
q89 53 89 107q0 14 -8.5 23.5t-25.5 9.5q-41 0 -47 -40l-10 -10h-70l-10 10q10 57 41.5 88.5t95.5 31.5q62 0 93.5 -32t31.5 -78q0 -80 -90 -140l-46 -30l-1 -10h103l10 -10z" />
    <glyph glyph-name="threequarters" unicode="&#xbe;" horiz-adv-x="860" 
d="M725 620l-499 -610l-11 -10h-49l-9 10l13 70l498 610l12 10h49l8 -10zM717 10l-10 -10h-71l-10 10l9 50l-10 10h-181l-10 10l14 80l13 20l200 170l20 10h86l10 -10zM653 160l16 90h-10l-106 -90l-2 -10h92zM204 490l-10 10l8 52l68 58l2 10h-115l-10 10l10 60l10 10h220
l10 -10l-10 -60l-14 -20l-59 -50l-2 -10q3 0 7.5 -1t16 -7t20.5 -14t16 -24t7 -37q0 -62 -42.5 -99.5t-108.5 -37.5q-60 0 -97.5 27t-37.5 70q0 14 2 23l10 10h70l10 -10q-1 -5 -1 -9q0 -31 44 -31q26 0 43 16.5t17 40.5q0 13 -9 22t-22 9q-11 0 -25 -8h-28z" />
    <glyph glyph-name="questiondown" unicode="&#xbf;" horiz-adv-x="600" 
d="M30 -45q0 66 29 114.5t94 95.5q59 43 84 70t32 65l10 10h80l10 -10q-6 -57 -33 -96t-82 -79q-31 -22 -45 -33.5t-36.5 -34t-32 -47.5t-9.5 -55q0 -33 27 -54t76 -21q121 0 144 130l10 10h80l10 -10q-14 -102 -75 -161t-169 -59q-91 0 -147.5 46t-56.5 119zM292 490l10 10
h101l10 -10l-17 -100l-10 -10h-101l-10 10z" />
    <glyph glyph-name="Agrave" unicode="&#xc0;" horiz-adv-x="630" 
d="M567 10l-10 -10h-57l-10 10l-34 150l-20 10h-270l-20 -10l-86 -150l-10 -10h-62l-10 10l12 70l346 610l10 10h90l10 -10l133 -610zM435 270l-60 280h-10l-159 -280l10 -10h209zM465 770l-10 -10h-39l-20 10l-92 100l3 20l10 10h59l20 -10l72 -100z" />
    <glyph glyph-name="Aacute" unicode="&#xc1;" horiz-adv-x="630" 
d="M567 10l-10 -10h-57l-10 10l-34 150l-20 10h-270l-20 -10l-86 -150l-10 -10h-62l-10 10l12 70l346 610l10 10h90l10 -10l133 -610zM435 270l-60 280h-10l-159 -280l10 -10h209zM551 870l-128 -100l-20 -10h-54l-10 10l4 20l107 100l20 10h74l10 -10z" />
    <glyph glyph-name="Acircumflex" unicode="&#xc2;" horiz-adv-x="630" 
d="M560 770l-10 -10h-45l-20 10l-59 60h-10l-80 -60l-20 -10h-55l-10 10l4 20l107 100l20 10h89l20 -10l73 -100zM567 10l-10 -10h-57l-10 10l-34 150l-20 10h-270l-20 -10l-86 -150l-10 -10h-62l-10 10l12 70l346 610l10 10h90l10 -10l133 -610zM435 270l-60 280h-10
l-159 -280l10 -10h209z" />
    <glyph glyph-name="Atilde" unicode="&#xc3;" horiz-adv-x="630" 
d="M567 10l-10 -10h-57l-10 10l-34 150l-20 10h-270l-20 -10l-86 -150l-10 -10h-62l-10 10l12 70l346 610l10 10h90l10 -10l133 -610zM435 270l-60 280h-10l-159 -280l10 -10h209zM477 750q-34 0 -60 17.5t-43.5 35t-33.5 17.5q-41 0 -49 -50l-10 -10h-30l-10 10
q18 110 109 110q34 0 60 -17.5t44 -35t34 -17.5q39 0 49 50l10 10h30l10 -10q-20 -110 -110 -110z" />
    <glyph glyph-name="Adieresis" unicode="&#xc4;" horiz-adv-x="630" 
d="M365 790l-10 -10h-81l-10 10l14 80l10 10h81l10 -10zM556 790l-10 -10h-81l-10 10l14 80l10 10h81l10 -10zM567 10l-10 -10h-57l-10 10l-34 150l-20 10h-270l-20 -10l-86 -150l-10 -10h-62l-10 10l12 70l346 610l10 10h90l10 -10l133 -610zM435 270l-60 280h-10
l-159 -280l10 -10h209z" />
    <glyph glyph-name="Aring" unicode="&#xc5;" horiz-adv-x="630" 
d="M567 10l-10 -10h-57l-10 10l-34 150l-20 10h-270l-20 -10l-86 -150l-10 -10h-62l-10 10l12 70l346 610l10 10h90l10 -10l133 -610zM435 270l-60 280h-10l-159 -280l10 -10h209zM514 822q0 -44 -30 -73t-78 -29q-44 0 -69 22.5t-25 55.5q0 44 30 73t78 29q44 0 69 -22.5
t25 -55.5zM454 822q0 28 -34 28q-18 0 -33 -13.5t-15 -38.5q0 -28 34 -28q18 0 33 13.5t15 38.5z" />
    <glyph glyph-name="AE" unicode="&#xc6;" horiz-adv-x="960" 
d="M857 10l-10 -10h-408l-10 10l27 150l-10 10h-255l-20 -10l-107 -150l-20 -10h-57l-10 10l13 70l447 610l20 10h510l10 -10l-12 -70l-10 -10h-311l-10 -10l-33 -190l10 -10h283l10 -10l-12 -70l-10 -10h-291l-10 -10l-35 -200l10 -10h304l10 -10zM475 270l58 330l-10 10
h-15l-20 -10l-238 -330l10 -10h205z" />
    <glyph glyph-name="Ccedilla" unicode="&#xc7;" horiz-adv-x="690" 
d="M376 -10l-22 -10l-59 -50h10q22 10 42 10q21 0 35 -14.5t14 -41.5q0 -47 -32 -70.5t-84 -23.5q-30 0 -47 8.5t-35 31.5l1 10l10 10h12q12 -14 25.5 -17t41.5 -3q24 0 41 12.5t17 36.5q0 31 -44 31q-20 0 -42 -10h-10l-10 10l1 10l71 60l2 10q-118 7 -191.5 81t-73.5 199
q0 84 25 162t71 140.5t120 100t164 37.5q115 0 190 -56t75 -154l-10 -10h-80l-10 10q0 56 -45.5 88t-119.5 32q-129 0 -204.5 -103.5t-75.5 -246.5q0 -88 53 -139t137 -51q156 0 202 130l10 10h82l10 -10q-13 -57 -42.5 -100.5t-68.5 -67.5t-77.5 -36.5t-78.5 -15.5z" />
    <glyph glyph-name="Egrave" unicode="&#xc8;" horiz-adv-x="610" 
d="M508 10l-10 -10h-451l-10 10l120 680l10 10h450l10 -10l-12 -70l-10 -10h-353l-10 -10l-33 -190l10 -10h326l10 -10l-13 -70l-10 -10h-333l-10 -10l-35 -200l10 -10h346l10 -10zM465 770l-10 -10h-39l-20 10l-92 100l3 20l10 10h59l20 -10l72 -100z" />
    <glyph glyph-name="Eacute" unicode="&#xc9;" horiz-adv-x="610" 
d="M508 10l-10 -10h-451l-10 10l120 680l10 10h450l10 -10l-12 -70l-10 -10h-353l-10 -10l-33 -190l10 -10h326l10 -10l-13 -70l-10 -10h-333l-10 -10l-35 -200l10 -10h346l10 -10zM551 870l-128 -100l-20 -10h-54l-10 10l4 20l107 100l20 10h74l10 -10z" />
    <glyph glyph-name="Ecircumflex" unicode="&#xca;" horiz-adv-x="610" 
d="M508 10l-10 -10h-451l-10 10l120 680l10 10h450l10 -10l-12 -70l-10 -10h-353l-10 -10l-33 -190l10 -10h326l10 -10l-13 -70l-10 -10h-333l-10 -10l-35 -200l10 -10h346l10 -10zM570 770l-10 -10h-45l-20 10l-59 60h-21l-80 -60l-20 -10h-55l-10 10l4 20l107 100l20 10
h100l20 -10l73 -100z" />
    <glyph glyph-name="Edieresis" unicode="&#xcb;" horiz-adv-x="610" 
d="M508 10l-10 -10h-451l-10 10l120 680l10 10h450l10 -10l-12 -70l-10 -10h-353l-10 -10l-33 -190l10 -10h326l10 -10l-13 -70l-10 -10h-333l-10 -10l-35 -200l10 -10h346l10 -10zM375 790l-10 -10h-81l-10 10l14 80l10 10h81l10 -10zM556 790l-10 -10h-81l-10 10l14 80
l10 10h81l10 -10z" />
    <glyph glyph-name="Igrave" unicode="&#xcc;" horiz-adv-x="260" 
d="M137 10l-10 -10h-81l-10 10l120 680l10 10h81l10 -10zM277 770l-10 -10h-39l-20 10l-92 100l3 20l10 10h59l20 -10l72 -100z" />
    <glyph glyph-name="Iacute" unicode="&#xcd;" horiz-adv-x="260" 
d="M137 10l-10 -10h-81l-10 10l120 680l10 10h81l10 -10zM373 870l-128 -100l-20 -10h-54l-10 10l4 20l107 100l20 10h74l10 -10z" />
    <glyph glyph-name="Icircumflex" unicode="&#xce;" horiz-adv-x="260" 
d="M137 10l-10 -10h-81l-10 10l120 680l10 10h81l10 -10zM379 770l-10 -10h-45l-20 10l-59 60h-21l-80 -60l-20 -10h-55l-10 10l4 20l107 100l20 10h100l20 -10l73 -100z" />
    <glyph glyph-name="Idieresis" unicode="&#xcf;" horiz-adv-x="260" 
d="M137 10l-10 -10h-81l-10 10l120 680l10 10h81l10 -10zM185 790l-10 -10h-81l-10 10l14 80l10 10h81l10 -10zM366 790l-10 -10h-81l-10 10l14 80l10 10h81l10 -10z" />
    <glyph glyph-name="Eth" unicode="&#xd0;" horiz-adv-x="670" 
d="M266 0h-219l-10 10l51 290l-10 10h-58l-8 10l12 70l12 10h62l10 10l49 280l10 10h199q144 0 217 -71t73 -189q0 -93 -22 -170.5t-67.5 -139t-122 -96t-178.5 -34.5zM164 90h102q150 0 220 95t70 255q0 170 -190 170h-114l-10 -10l-33 -190l10 -10h148l8 -10l-12 -70
l-12 -10h-152l-10 -10l-35 -200z" />
    <glyph glyph-name="Ntilde" unicode="&#xd1;" horiz-adv-x="730" 
d="M607 10l-12 -10h-81l-18 10l-256 520h-10l-92 -520l-12 -10h-81l-8 10l120 680l12 10h81l18 -10l256 -520h10l92 520l12 10h81l8 -10zM524 750q-34 0 -60 17.5t-43.5 35t-33.5 17.5q-41 0 -49 -50l-10 -10h-30l-10 10q18 110 109 110q34 0 60 -17.5t44 -35t34 -17.5
q39 0 49 50l10 10h30l10 -10q-20 -110 -110 -110z" />
    <glyph glyph-name="Ograve" unicode="&#xd2;" horiz-adv-x="740" 
d="M150 270q0 -90 50.5 -140t140.5 -50q86 0 152 52.5t98 131.5t32 166q0 90 -51 140t-141 50q-65 0 -119.5 -30.5t-89 -81t-53.5 -112t-19 -126.5zM724 430q0 -80 -25.5 -157.5t-72 -141t-121 -102.5t-164.5 -39q-135 0 -213.5 76t-78.5 204q0 80 25 157.5t71.5 141
t121 102.5t164.5 39q135 0 214 -76t79 -204zM536 770l-10 -10h-39l-20 10l-92 100l3 20l10 10h59l20 -10l72 -100z" />
    <glyph glyph-name="Oacute" unicode="&#xd3;" horiz-adv-x="740" 
d="M150 270q0 -90 50.5 -140t140.5 -50q86 0 152 52.5t98 131.5t32 166q0 90 -51 140t-141 50q-65 0 -119.5 -30.5t-89 -81t-53.5 -112t-19 -126.5zM724 430q0 -80 -25.5 -157.5t-72 -141t-121 -102.5t-164.5 -39q-135 0 -213.5 76t-78.5 204q0 80 25 157.5t71.5 141
t121 102.5t164.5 39q135 0 214 -76t79 -204zM591 870l-128 -100l-20 -10h-54l-10 10l4 20l107 100l20 10h74l10 -10z" />
    <glyph glyph-name="Ocircumflex" unicode="&#xd4;" horiz-adv-x="740" 
d="M150 270q0 -90 50.5 -140t140.5 -50q86 0 152 52.5t98 131.5t32 166q0 90 -51 140t-141 50q-65 0 -119.5 -30.5t-89 -81t-53.5 -112t-19 -126.5zM724 430q0 -80 -25.5 -157.5t-72 -141t-121 -102.5t-164.5 -39q-135 0 -213.5 76t-78.5 204q0 80 25 157.5t71.5 141
t121 102.5t164.5 39q135 0 214 -76t79 -204zM620 770l-10 -10h-45l-20 10l-59 60h-21l-80 -60l-20 -10h-55l-10 10l4 20l107 100l20 10h100l20 -10l73 -100z" />
    <glyph glyph-name="Otilde" unicode="&#xd5;" horiz-adv-x="740" 
d="M150 270q0 -90 50.5 -140t140.5 -50q86 0 152 52.5t98 131.5t32 166q0 90 -51 140t-141 50q-65 0 -119.5 -30.5t-89 -81t-53.5 -112t-19 -126.5zM724 430q0 -80 -25.5 -157.5t-72 -141t-121 -102.5t-164.5 -39q-135 0 -213.5 76t-78.5 204q0 80 25 157.5t71.5 141
t121 102.5t164.5 39q135 0 214 -76t79 -204zM528 750q-34 0 -60 17.5t-43.5 35t-33.5 17.5q-41 0 -49 -50l-10 -10h-30l-10 10q18 110 109 110q34 0 60 -17.5t44 -35t34 -17.5q39 0 49 50l10 10h30l10 -10q-20 -110 -110 -110z" />
    <glyph glyph-name="Odieresis" unicode="&#xd6;" horiz-adv-x="740" 
d="M150 270q0 -90 50.5 -140t140.5 -50q86 0 152 52.5t98 131.5t32 166q0 90 -51 140t-141 50q-65 0 -119.5 -30.5t-89 -81t-53.5 -112t-19 -126.5zM724 430q0 -80 -25.5 -157.5t-72 -141t-121 -102.5t-164.5 -39q-135 0 -213.5 76t-78.5 204q0 80 25 157.5t71.5 141
t121 102.5t164.5 39q135 0 214 -76t79 -204zM425 790l-10 -10h-81l-10 10l14 80l10 10h81l10 -10zM606 790l-10 -10h-81l-10 10l14 80l10 10h81l10 -10z" />
    <glyph glyph-name="multiply" unicode="&#xd7;" horiz-adv-x="610" 
d="M499 76l-54 -46h-10l-131 159h-10l-187 -159h-10l-46 55l1 10l189 160l1 10l-131 159l1 10l54 46h10l131 -160h10l189 160h10l44 -55l-1 -10l-188 -160l-1 -10l130 -159z" />
    <glyph glyph-name="Oslash" unicode="&#xd8;" horiz-adv-x="740" 
d="M171 194l405 346l4 20q-49 60 -149 60q-65 0 -119.5 -30.5t-89 -81t-53.5 -112t-19 -126.5q0 -41 11 -76h10zM341 -10q-148 0 -228 91h-10l-48 -41l-22 -10h-12l-8 10l3 23l57 47l4 26q-28 56 -28 134q0 80 25 157.5t71.5 141t121 102.5t164.5 39q148 0 228 -91h10l48 41
l22 10h12l8 -10l-3 -23l-57 -47l-4 -26q28 -56 28 -134q0 -80 -25 -157.5t-71.5 -141t-121 -102.5t-164.5 -39zM601 506l-405 -346l-4 -20q49 -60 149 -60q65 0 119.5 30.5t89 81t53.5 112t19 126.5q0 41 -11 76h-10z" />
    <glyph glyph-name="Ugrave" unicode="&#xd9;" horiz-adv-x="700" 
d="M697 690l-77 -440q-22 -127 -95.5 -193.5t-217.5 -66.5q-107 0 -169.5 55t-62.5 151q0 22 5 54l77 440l10 10h81l10 -10l-77 -440q-5 -32 -5 -53q0 -57 32.5 -87t109.5 -30q92 0 139 44.5t62 125.5l77 440l10 10h81zM495 770l-10 -10h-39l-20 10l-92 100l3 20l10 10h59
l20 -10l72 -100z" />
    <glyph glyph-name="Uacute" unicode="&#xda;" horiz-adv-x="700" 
d="M697 690l-77 -440q-22 -127 -95.5 -193.5t-217.5 -66.5q-107 0 -169.5 55t-62.5 151q0 22 5 54l77 440l10 10h81l10 -10l-77 -440q-5 -32 -5 -53q0 -57 32.5 -87t109.5 -30q92 0 139 44.5t62 125.5l77 440l10 10h81zM590 870l-128 -100l-20 -10h-54l-10 10l4 20l107 100
l20 10h74l10 -10z" />
    <glyph glyph-name="Ucircumflex" unicode="&#xdb;" horiz-adv-x="700" 
d="M697 690l-77 -440q-22 -127 -95.5 -193.5t-217.5 -66.5q-107 0 -169.5 55t-62.5 151q0 22 5 54l77 440l10 10h81l10 -10l-77 -440q-5 -32 -5 -53q0 -57 32.5 -87t109.5 -30q92 0 139 44.5t62 125.5l77 440l10 10h81zM601 770l-10 -10h-45l-20 10l-59 60h-21l-80 -60
l-20 -10h-55l-10 10l4 20l107 100l20 10h100l20 -10l73 -100z" />
    <glyph glyph-name="Udieresis" unicode="&#xdc;" horiz-adv-x="700" 
d="M697 690l-77 -440q-22 -127 -95.5 -193.5t-217.5 -66.5q-107 0 -169.5 55t-62.5 151q0 22 5 54l77 440l10 10h81l10 -10l-77 -440q-5 -32 -5 -53q0 -57 32.5 -87t109.5 -30q92 0 139 44.5t62 125.5l77 440l10 10h81zM404 790l-10 -10h-81l-10 10l14 80l10 10h81l10 -10z
M585 790l-10 -10h-81l-10 10l14 80l10 10h81l10 -10z" />
    <glyph glyph-name="Yacute" unicode="&#xdd;" 
d="M522 870l-128 -100l-20 -10h-54l-10 10l4 20l107 100l20 10h74l10 -10zM615 620l-269 -340l-48 -270l-10 -10h-81l-10 10l48 270l-150 340l12 70l10 10h44l10 -10l126 -300h20l231 300l20 10h49l10 -10z" />
    <glyph glyph-name="Thorn" unicode="&#xde;" horiz-adv-x="620" 
d="M138 10l-10 -10h-81l-10 10l120 680l10 10h81l10 -10l-23 -130l10 -10h157q93 0 146.5 -42.5t53.5 -125.5q0 -108 -69 -170t-191 -62h-171l-10 -10zM191 240h147q162 0 162 142q0 45 -30 61.5t-93 16.5h-151l-10 -10l-35 -200z" />
    <glyph glyph-name="germandbls" unicode="&#xdf;" 
d="M301 -10q-28 0 -51 5t-32 10l-10 5l-10 10l11 60l10 10q45 -10 82 -10q75 0 110.5 41.5t35.5 104.5q0 52 -30 78t-102 26l-10 10l11 60l10 10q71 2 106.5 31.5t35.5 93.5q0 85 -102 85q-112 0 -131 -110l-88 -500l-10 -10h-81l-10 10l71 400l-10 10h-47l-10 10l11 60
l10 10h53l10 10l2 10q18 91 76 140.5t154 49.5q99 0 152 -50.5t53 -124.5q0 -58 -29.5 -99.5t-78.5 -55.5l-2 -10q36 -15 61 -50.5t25 -93.5q0 -109 -64 -172.5t-182 -63.5z" />
    <glyph glyph-name="agrave" unicode="&#xe0;" horiz-adv-x="550" 
d="M382 570l-10 -10h-39l-20 10l-92 100l3 20l10 10h59l20 -10l72 -100zM354 50h-10q-53 -60 -135 -60t-133.5 58t-51.5 150q0 127 70.5 219.5t187.5 92.5q94 0 133 -60h10l17 40l12 10h71l8 -10l-85 -480l-12 -10h-71l-8 10zM228 80q55 0 95 38t56.5 88t16.5 103
q0 54 -27 82.5t-79 28.5q-53 0 -92 -34t-56 -83t-17 -105q0 -57 26.5 -87.5t76.5 -30.5z" />
    <glyph glyph-name="aacute" unicode="&#xe1;" horiz-adv-x="550" 
d="M456 670l-128 -100l-20 -10h-54l-10 10l4 20l107 100l20 10h74l10 -10zM354 50h-10q-53 -60 -135 -60t-133.5 58t-51.5 150q0 127 70.5 219.5t187.5 92.5q94 0 133 -60h10l17 40l12 10h71l8 -10l-85 -480l-12 -10h-71l-8 10zM228 80q55 0 95 38t56.5 88t16.5 103
q0 54 -27 82.5t-79 28.5q-53 0 -92 -34t-56 -83t-17 -105q0 -57 26.5 -87.5t76.5 -30.5z" />
    <glyph glyph-name="acircumflex" unicode="&#xe2;" horiz-adv-x="550" 
d="M476 570l-10 -10h-45l-20 10l-59 60h-21l-80 -60l-20 -10h-55l-10 10l4 20l107 100l20 10h100l20 -10l73 -100zM354 50h-10q-53 -60 -135 -60t-133.5 58t-51.5 150q0 127 70.5 219.5t187.5 92.5q94 0 133 -60h10l17 40l12 10h71l8 -10l-85 -480l-12 -10h-71l-8 10z
M228 80q55 0 95 38t56.5 88t16.5 103q0 54 -27 82.5t-79 28.5q-53 0 -92 -34t-56 -83t-17 -105q0 -57 26.5 -87.5t76.5 -30.5z" />
    <glyph glyph-name="atilde" unicode="&#xe3;" horiz-adv-x="550" 
d="M382 550q-34 0 -60 17.5t-43.5 35t-33.5 17.5q-41 0 -49 -50l-10 -10h-30l-10 10q18 110 109 110q34 0 60 -17.5t44 -35t34 -17.5q39 0 49 50l10 10h30l10 -10q-20 -110 -110 -110zM354 50h-10q-53 -60 -135 -60t-133.5 58t-51.5 150q0 127 70.5 219.5t187.5 92.5
q94 0 133 -60h10l17 40l12 10h71l8 -10l-85 -480l-12 -10h-71l-8 10zM228 80q55 0 95 38t56.5 88t16.5 103q0 54 -27 82.5t-79 28.5q-53 0 -92 -34t-56 -83t-17 -105q0 -57 26.5 -87.5t76.5 -30.5z" />
    <glyph glyph-name="adieresis" unicode="&#xe4;" horiz-adv-x="550" 
d="M280 590l-10 -10h-81l-10 10l14 80l10 10h81l10 -10zM461 590l-10 -10h-81l-10 10l14 80l10 10h81l10 -10zM354 50h-10q-53 -60 -135 -60t-133.5 58t-51.5 150q0 127 70.5 219.5t187.5 92.5q94 0 133 -60h10l17 40l12 10h71l8 -10l-85 -480l-12 -10h-71l-8 10zM228 80
q55 0 95 38t56.5 88t16.5 103q0 54 -27 82.5t-79 28.5q-53 0 -92 -34t-56 -83t-17 -105q0 -57 26.5 -87.5t76.5 -30.5z" />
    <glyph glyph-name="aring" unicode="&#xe5;" horiz-adv-x="550" 
d="M354 50h-10q-53 -60 -135 -60t-133.5 58t-51.5 150q0 127 70.5 219.5t187.5 92.5q94 0 133 -60h10l17 40l12 10h71l8 -10l-85 -480l-12 -10h-71l-8 10zM228 80q55 0 95 38t56.5 88t16.5 103q0 54 -27 82.5t-79 28.5q-53 0 -92 -34t-56 -83t-17 -105q0 -57 26.5 -87.5
t76.5 -30.5zM429 652q0 -44 -30 -73t-78 -29q-44 0 -69 22.5t-25 55.5q0 44 30 73t78 29q44 0 69 -22.5t25 -55.5zM369 652q0 28 -34 28q-18 0 -33 -13.5t-15 -38.5q0 -28 34 -28q18 0 33 13.5t15 38.5z" />
    <glyph glyph-name="ae" unicode="&#xe6;" horiz-adv-x="830" 
d="M438 450h10q65 60 160 60q97 0 149 -54.5t52 -141.5q0 -31 -6 -64l-6 -30l-11 -10h-333l-12 -10q-1 -4 -1 -17q0 -16 4.5 -31.5t15 -33t35 -28t58.5 -10.5q75 0 110 60l12 10h80l8 -10q-45 -150 -216 -150q-54 0 -100 18.5t-72 51.5h-10q-70 -70 -191 -70q-76 0 -121 41
t-45 101q0 95 70 136.5t182 41.5q22 0 44.5 -2.5t33.5 -5.5l12 -2l10 10l4 20q3 16 3 29q0 34 -20.5 47.5t-66.5 13.5q-100 0 -111 -60l-10 -10h-80l-10 10q5 30 16 53.5t33.5 47t63.5 36.5t98 13q112 0 158 -60zM337 180l6 30l-10 10q-27 10 -77 10q-146 0 -146 -92
q0 -58 80 -58q59 0 98.5 27t48.5 73zM693 290l11 10q3 14 3 28q0 36 -23.5 64t-80.5 28q-38 0 -67.5 -14t-44.5 -35.5t-22.5 -38t-10.5 -32.5l9 -10h226z" />
    <glyph glyph-name="ccedilla" unicode="&#xe7;" horiz-adv-x="520" 
d="M152 -100h-10l-10 10l1 10l71 60l2 10q-79 9 -131 62.5t-52 137.5q0 64 16 119.5t48.5 101.5t86.5 72.5t125 26.5q93 0 149.5 -45t56.5 -107q0 -12 -1 -18l-10 -10h-80l-10 10q2 40 -25.5 60t-79.5 20q-88 0 -131.5 -65.5t-43.5 -164.5q0 -57 33.5 -83.5t87.5 -26.5
q97 0 130 80l10 10h80l10 -10q-25 -89 -77.5 -126.5t-129.5 -43.5l-22 -10l-59 -50h10q22 10 42 10q21 0 35 -14.5t14 -41.5q0 -47 -32 -70.5t-84 -23.5q-30 0 -47 8.5t-35 31.5l1 10l10 10h12q12 -14 25.5 -17t41.5 -3q24 0 41 12.5t17 36.5q0 31 -44 31q-20 0 -42 -10z
" />
    <glyph glyph-name="egrave" unicode="&#xe8;" horiz-adv-x="520" 
d="M380 290l11 10q3 13 3 28q0 36 -23.5 64t-80.5 28q-38 0 -67.5 -14t-44.5 -35.5t-22.5 -38t-10.5 -32.5l9 -10h226zM234 -10q-99 0 -154.5 57.5t-55.5 147.5q0 137 70 226t201 89q97 0 149 -54.5t52 -141.5q0 -31 -6 -64l-6 -30l-11 -10h-333l-12 -10q-1 -4 -1 -17
q0 -16 4.5 -31.5t15 -33t35 -28t58.5 -10.5q75 0 110 60l12 10h80l8 -10q-45 -150 -216 -150zM381 570l-10 -10h-39l-20 10l-92 100l3 20l10 10h59l20 -10l72 -100z" />
    <glyph glyph-name="eacute" unicode="&#xe9;" horiz-adv-x="520" 
d="M380 290l11 10q3 13 3 28q0 36 -23.5 64t-80.5 28q-38 0 -67.5 -14t-44.5 -35.5t-22.5 -38t-10.5 -32.5l9 -10h226zM234 -10q-99 0 -154.5 57.5t-55.5 147.5q0 137 70 226t201 89q97 0 149 -54.5t52 -141.5q0 -31 -6 -64l-6 -30l-11 -10h-333l-12 -10q-1 -4 -1 -17
q0 -16 4.5 -31.5t15 -33t35 -28t58.5 -10.5q75 0 110 60l12 10h80l8 -10q-45 -150 -216 -150zM459 670l-128 -100l-20 -10h-54l-10 10l4 20l107 100l20 10h74l10 -10z" />
    <glyph glyph-name="ecircumflex" unicode="&#xea;" horiz-adv-x="520" 
d="M380 290l11 10q3 13 3 28q0 36 -23.5 64t-80.5 28q-38 0 -67.5 -14t-44.5 -35.5t-22.5 -38t-10.5 -32.5l9 -10h226zM234 -10q-99 0 -154.5 57.5t-55.5 147.5q0 137 70 226t201 89q97 0 149 -54.5t52 -141.5q0 -31 -6 -64l-6 -30l-11 -10h-333l-12 -10q-1 -4 -1 -17
q0 -16 4.5 -31.5t15 -33t35 -28t58.5 -10.5q75 0 110 60l12 10h80l8 -10q-45 -150 -216 -150zM476 570l-10 -10h-45l-20 10l-59 60h-21l-80 -60l-20 -10h-55l-10 10l4 20l107 100l20 10h100l20 -10l73 -100z" />
    <glyph glyph-name="edieresis" unicode="&#xeb;" horiz-adv-x="520" 
d="M380 290l11 10q3 13 3 28q0 36 -23.5 64t-80.5 28q-38 0 -67.5 -14t-44.5 -35.5t-22.5 -38t-10.5 -32.5l9 -10h226zM234 -10q-99 0 -154.5 57.5t-55.5 147.5q0 137 70 226t201 89q97 0 149 -54.5t52 -141.5q0 -31 -6 -64l-6 -30l-11 -10h-333l-12 -10q-1 -4 -1 -17
q0 -16 4.5 -31.5t15 -33t35 -28t58.5 -10.5q75 0 110 60l12 10h80l8 -10q-45 -150 -216 -150zM280 590l-10 -10h-81l-10 10l14 80l10 10h81l10 -10zM461 590l-10 -10h-81l-10 10l14 80l10 10h81l10 -10z" />
    <glyph glyph-name="igrave" unicode="&#xec;" horiz-adv-x="220" 
d="M118 10l-10 -10h-81l-10 10l85 480l10 10h81l10 -10zM220 570l-10 -10h-39l-20 10l-92 100l3 20l10 10h59l20 -10l72 -100z" />
    <glyph glyph-name="iacute" unicode="&#xed;" horiz-adv-x="220" 
d="M118 10l-10 -10h-81l-10 10l85 480l10 10h81l10 -10zM316 670l-128 -100l-20 -10h-54l-10 10l4 20l107 100l20 10h74l10 -10z" />
    <glyph glyph-name="icircumflex" unicode="&#xee;" horiz-adv-x="220" 
d="M118 10l-10 -10h-81l-10 10l85 480l10 10h81l10 -10zM325 570l-10 -10h-45l-20 10l-59 60h-21l-80 -60l-20 -10h-55l-10 10l4 20l107 100l20 10h100l20 -10l73 -100z" />
    <glyph glyph-name="idieresis" unicode="&#xef;" horiz-adv-x="220" 
d="M118 10l-10 -10h-81l-10 10l85 480l10 10h81l10 -10zM130 590l-10 -10h-81l-10 10l14 80l10 10h81l10 -10zM311 590l-10 -10h-81l-10 10l14 80l10 10h81l10 -10z" />
    <glyph glyph-name="eth" unicode="&#xf0;" horiz-adv-x="520" 
d="M398 470h10q0 73 -50 102h-10l-37 -32l-20 -10h-55l-10 10l5 30l37 32l2 10q-28 10 -68 10l-8 10l1 10l45 38l22 10q40 0 78 -10h10l36 30l20 10h65l10 -10l-4 -20l-47 -40l-2 -10q46 -38 63 -87t17 -125q0 -50 -4.5 -95.5t-14.5 -97.5t-30.5 -94t-49.5 -77t-74 -54.5
t-101 -19.5q-89 0 -149.5 53t-60.5 149q0 131 67 224.5t190 93.5q36 0 65 -10t40 -20zM234 80q80 0 120.5 68t40.5 159q0 113 -109 113q-78 0 -120 -69t-42 -159q0 -58 31 -85t79 -27z" />
    <glyph glyph-name="ntilde" unicode="&#xf1;" horiz-adv-x="540" 
d="M449 10l-10 -10h-81l-10 10l49 280q4 24 4 47q0 83 -81 83q-63 0 -102.5 -37t-54.5 -123l-45 -250l-10 -10h-81l-10 10l85 480l10 10h71l10 -10l3 -40h10q43 60 140 60q80 0 119 -44.5t39 -112.5q0 -30 -6 -63zM402 550q-34 0 -60 17.5t-43.5 35t-33.5 17.5
q-41 0 -49 -50l-10 -10h-30l-10 10q18 110 109 110q34 0 60 -17.5t44 -35t34 -17.5q39 0 49 50l10 10h30l10 -10q-20 -110 -110 -110z" />
    <glyph glyph-name="ograve" unicode="&#xf2;" horiz-adv-x="540" 
d="M517 310q0 -134 -72.5 -227t-205.5 -93q-97 0 -156.5 53.5t-59.5 146.5q0 86 29.5 157t93.5 117t154 46q97 0 157 -53.5t60 -146.5zM124 190q0 -53 30 -81.5t85 -28.5q87 0 131.5 67.5t44.5 162.5q0 53 -30 81.5t-85 28.5q-87 0 -131.5 -67.5t-44.5 -162.5zM392 570
l-10 -10h-39l-20 10l-92 100l3 20l10 10h59l20 -10l72 -100z" />
    <glyph glyph-name="oacute" unicode="&#xf3;" horiz-adv-x="540" 
d="M517 310q0 -134 -72.5 -227t-205.5 -93q-97 0 -156.5 53.5t-59.5 146.5q0 86 29.5 157t93.5 117t154 46q97 0 157 -53.5t60 -146.5zM124 190q0 -53 30 -81.5t85 -28.5q87 0 131.5 67.5t44.5 162.5q0 53 -30 81.5t-85 28.5q-87 0 -131.5 -67.5t-44.5 -162.5zM468 670
l-128 -100l-20 -10h-54l-10 10l4 20l107 100l20 10h74l10 -10z" />
    <glyph glyph-name="ocircumflex" unicode="&#xf4;" horiz-adv-x="540" 
d="M517 310q0 -134 -72.5 -227t-205.5 -93q-97 0 -156.5 53.5t-59.5 146.5q0 86 29.5 157t93.5 117t154 46q97 0 157 -53.5t60 -146.5zM124 190q0 -53 30 -81.5t85 -28.5q87 0 131.5 67.5t44.5 162.5q0 53 -30 81.5t-85 28.5q-87 0 -131.5 -67.5t-44.5 -162.5zM487 570
l-10 -10h-45l-20 10l-59 60h-21l-80 -60l-20 -10h-55l-10 10l4 20l107 100l20 10h100l20 -10l73 -100z" />
    <glyph glyph-name="otilde" unicode="&#xf5;" horiz-adv-x="540" 
d="M517 310q0 -134 -72.5 -227t-205.5 -93q-97 0 -156.5 53.5t-59.5 146.5q0 86 29.5 157t93.5 117t154 46q97 0 157 -53.5t60 -146.5zM124 190q0 -53 30 -81.5t85 -28.5q87 0 131.5 67.5t44.5 162.5q0 53 -30 81.5t-85 28.5q-87 0 -131.5 -67.5t-44.5 -162.5zM402 550
q-34 0 -60 17.5t-43.5 35t-33.5 17.5q-41 0 -49 -50l-10 -10h-30l-10 10q18 110 109 110q34 0 60 -17.5t44 -35t34 -17.5q39 0 49 50l10 10h30l10 -10q-20 -110 -110 -110z" />
    <glyph glyph-name="odieresis" unicode="&#xf6;" horiz-adv-x="540" 
d="M517 310q0 -134 -72.5 -227t-205.5 -93q-97 0 -156.5 53.5t-59.5 146.5q0 86 29.5 157t93.5 117t154 46q97 0 157 -53.5t60 -146.5zM124 190q0 -53 30 -81.5t85 -28.5q87 0 131.5 67.5t44.5 162.5q0 53 -30 81.5t-85 28.5q-87 0 -131.5 -67.5t-44.5 -162.5zM291 590
l-10 -10h-81l-10 10l14 80l10 10h81l10 -10zM472 590l-10 -10h-81l-10 10l14 80l10 10h81l10 -10z" />
    <glyph glyph-name="divide" unicode="&#xf7;" horiz-adv-x="600" 
d="M535 220l-10 -10h-461l-10 10l13 70l10 10h461l10 -10zM321 20l-10 -10h-101l-10 10l17 100l10 10h101l10 -10zM386 390l-10 -10h-101l-10 10l17 100l10 10h101l10 -10z" />
    <glyph glyph-name="oslash" unicode="&#xf8;" horiz-adv-x="540" 
d="M239 -10q-105 0 -163 60h-10l-35 -30l-22 -10h-12l-8 10l4 22l50 42l1 10q-21 40 -21 96q0 86 29.5 157t93.5 117t154 46q105 0 163 -60h10l35 30l22 10h12l8 -10l-4 -22l-50 -42l-1 -10q21 -41 21 -96q0 -86 -29.5 -157t-93.5 -117t-154 -46zM239 80q87 0 131.5 67.5
t44.5 162.5q0 18 -2 26h-10l-246 -209l-3 -19q30 -28 85 -28zM136 164l246 209l3 19q-30 28 -85 28q-87 0 -131.5 -67.5t-44.5 -162.5q0 -18 2 -26h10z" />
    <glyph glyph-name="ugrave" unicode="&#xf9;" horiz-adv-x="530" 
d="M428 10l-10 -10h-71l-10 10l-3 40h-10q-37 -60 -120 -60q-78 0 -123.5 43.5t-45.5 108.5q0 28 5 58l51 290l10 10h81l10 -10l-51 -290q-3 -15 -3 -35q0 -38 20.5 -61.5t61.5 -23.5q55 0 95 42t55 128l42 240l10 10h81l10 -10zM372 570l-10 -10h-39l-20 10l-92 100l3 20
l10 10h59l20 -10l72 -100z" />
    <glyph glyph-name="uacute" unicode="&#xfa;" horiz-adv-x="530" 
d="M428 10l-10 -10h-71l-10 10l-3 40h-10q-37 -60 -120 -60q-78 0 -123.5 43.5t-45.5 108.5q0 28 5 58l51 290l10 10h81l10 -10l-51 -290q-3 -15 -3 -35q0 -38 20.5 -61.5t61.5 -23.5q55 0 95 42t55 128l42 240l10 10h81l10 -10zM467 670l-128 -100l-20 -10h-54l-10 10l4 20
l107 100l20 10h74l10 -10z" />
    <glyph glyph-name="ucircumflex" unicode="&#xfb;" horiz-adv-x="530" 
d="M428 10l-10 -10h-71l-10 10l-3 40h-10q-37 -60 -120 -60q-78 0 -123.5 43.5t-45.5 108.5q0 28 5 58l51 290l10 10h81l10 -10l-51 -290q-3 -15 -3 -35q0 -38 20.5 -61.5t61.5 -23.5q55 0 95 42t55 128l42 240l10 10h81l10 -10zM477 570l-10 -10h-45l-20 10l-59 60h-21
l-80 -60l-20 -10h-55l-10 10l4 20l107 100l20 10h100l20 -10l73 -100z" />
    <glyph glyph-name="udieresis" unicode="&#xfc;" horiz-adv-x="530" 
d="M428 10l-10 -10h-71l-10 10l-3 40h-10q-37 -60 -120 -60q-78 0 -123.5 43.5t-45.5 108.5q0 28 5 58l51 290l10 10h81l10 -10l-51 -290q-3 -15 -3 -35q0 -38 20.5 -61.5t61.5 -23.5q55 0 95 42t55 128l42 240l10 10h81l10 -10zM281 590l-10 -10h-81l-10 10l14 80l10 10h81
l10 -10zM462 590l-10 -10h-81l-10 10l14 80l10 10h81l10 -10z" />
    <glyph glyph-name="yacute" unicode="&#xfd;" horiz-adv-x="510" 
d="M456 670l-128 -100l-20 -10h-54l-10 10l4 20l107 100l20 10h74l10 -10zM511 420l-242 -420q-58 -102 -99.5 -131t-128.5 -29h-32l-10 10l12 70l10 10h20q47 0 69.5 11.5t43.5 48.5l2 10l-96 420l12 70l10 10h54l10 -10l77 -370h10l203 370l10 10h67l10 -10z" />
    <glyph glyph-name="thorn" unicode="&#xfe;" horiz-adv-x="550" 
d="M73 -200h-81l-10 10l155 880l10 10h81l10 -10l-42 -240h10q56 60 139 60q85 0 133.5 -57t48.5 -145q0 -129 -70.5 -223.5t-193.5 -94.5q-86 0 -128 60h-10l-42 -240zM426 308q0 112 -107 112q-55 0 -93.5 -35.5t-54.5 -85t-16 -106.5q0 -113 108 -113q53 0 91.5 37.5
t55 87.5t16.5 103z" />
    <glyph glyph-name="ydieresis" unicode="&#xff;" horiz-adv-x="510" 
d="M270 590l-10 -10h-81l-10 10l14 80l10 10h81l10 -10zM461 590l-10 -10h-81l-10 10l14 80l10 10h81l10 -10zM511 420l-242 -420q-58 -102 -99.5 -131t-128.5 -29h-32l-10 10l12 70l10 10h20q47 0 69.5 11.5t43.5 48.5l2 10l-96 420l12 70l10 10h54l10 -10l77 -370h10
l203 370l10 10h67l10 -10z" />
    <glyph glyph-name="Amacron" unicode="&#x100;" horiz-adv-x="630" 
d="M575 790l-10 -10h-310l-10 10l10 60l10 10h310l10 -10zM567 10l-10 -10h-57l-10 10l-34 150l-20 10h-270l-20 -10l-86 -150l-10 -10h-62l-10 10l12 70l346 610l10 10h90l10 -10l133 -610zM435 270l-60 280h-10l-159 -280l10 -10h209z" />
    <glyph glyph-name="amacron" unicode="&#x101;" horiz-adv-x="550" 
d="M354 50h-10q-53 -60 -135 -60t-133.5 58t-51.5 150q0 127 70.5 219.5t187.5 92.5q94 0 133 -60h10l17 40l12 10h71l8 -10l-85 -480l-12 -10h-71l-8 10zM228 80q55 0 95 38t56.5 88t16.5 103q0 54 -27 82.5t-79 28.5q-53 0 -92 -34t-56 -83t-17 -105q0 -57 26.5 -87.5
t76.5 -30.5zM480 590l-10 -10h-300l-10 10l10 60l10 10h300l10 -10z" />
    <glyph glyph-name="Abreve" unicode="&#x102;" horiz-adv-x="630" 
d="M422 750h-10q-65 0 -98.5 32t-33.5 83q0 10 1 15l10 10h51l10 -10q-1 -5 -1 -15q0 -21 16.5 -33t44.5 -12h10q68 0 79 60l10 10h51l10 -10q-11 -60 -50.5 -95t-99.5 -35zM567 10l-10 -10h-57l-10 10l-34 150l-20 10h-270l-20 -10l-86 -150l-10 -10h-62l-10 10l12 70
l346 610l10 10h90l10 -10l133 -610zM435 270l-60 280h-10l-159 -280l10 -10h209z" />
    <glyph glyph-name="abreve" unicode="&#x103;" horiz-adv-x="550" 
d="M354 50h-10q-53 -60 -135 -60t-133.5 58t-51.5 150q0 127 70.5 219.5t187.5 92.5q94 0 133 -60h10l17 40l12 10h71l8 -10l-85 -480l-12 -10h-71l-8 10zM228 80q55 0 95 38t56.5 88t16.5 103q0 54 -27 82.5t-79 28.5q-53 0 -92 -34t-56 -83t-17 -105q0 -57 26.5 -87.5
t76.5 -30.5zM256 690l10 -10q-1 -5 -1 -15q0 -21 16.5 -33t44.5 -12q31 0 52.5 15.5t26.5 44.5l10 10h51l10 -10q-11 -60 -50.5 -95t-99.5 -35q-65 0 -98.5 32t-33.5 83q0 10 1 15l10 10h51z" />
    <glyph glyph-name="Aogonek" unicode="&#x104;" horiz-adv-x="630" 
d="M567 10l-10 -10q-26 -4 -50.5 -13t-46 -29.5t-21.5 -47.5q0 -18 11.5 -29t31.5 -11q13 0 26 2.5t19 5.5l6 2l9 -10l-7 -40l-12 -10q-29 -20 -69 -20q-41 0 -70 25t-29 62q0 49 36.5 82t98.5 41l-34 150l-20 10h-270l-20 -10l-86 -150l-10 -10h-62l-10 10l12 70l346 610
l10 10h90l10 -10l133 -610zM435 270l-60 280h-10l-159 -280l10 -10h209z" />
    <glyph glyph-name="aogonek" unicode="&#x105;" horiz-adv-x="550" 
d="M228 80q55 0 95 38t56.5 88t16.5 103q0 54 -27 82.5t-79 28.5q-53 0 -92 -34t-56 -83t-17 -105q0 -57 26.5 -87.5t76.5 -30.5zM358 10l-4 40h-10q-53 -60 -135 -60t-133.5 58t-51.5 150q0 127 70.5 219.5t187.5 92.5q94 0 133 -60h10l17 40l12 10h71l8 -10l-85 -480
l-10 -10q-26 -4 -50.5 -13t-46 -29.5t-21.5 -47.5q0 -18 11.5 -29t31.5 -11q13 0 26 2.5t19 5.5l6 2l9 -10l-7 -40l-12 -10q-29 -20 -69 -20q-41 0 -70 25t-29 62q0 47 34.5 79.5t87.5 43.5z" />
    <glyph glyph-name="Cacute" unicode="&#x106;" horiz-adv-x="690" 
d="M591 870l-128 -100l-20 -10h-54l-10 10l4 20l107 100l20 10h74l10 -10zM633 220l10 -10q-25 -107 -105.5 -163.5t-198.5 -56.5q-128 0 -209 74.5t-81 205.5q0 84 25 162t71 140.5t120 100t164 37.5q115 0 190 -56t75 -154l-10 -10h-80l-10 10q0 56 -45.5 88t-119.5 32
q-129 0 -204.5 -103.5t-75.5 -246.5q0 -88 53 -139t137 -51q156 0 202 130l10 10h82z" />
    <glyph glyph-name="cacute" unicode="&#x107;" horiz-adv-x="520" 
d="M475 160q-14 -51 -38.5 -85.5t-56.5 -52.5t-65.5 -25t-75.5 -7q-93 0 -154.5 54t-61.5 146q0 64 16 119.5t48.5 101.5t86.5 72.5t125 26.5q93 0 149.5 -45t56.5 -107q0 -12 -1 -18l-10 -10h-80l-10 10q2 40 -25.5 60t-79.5 20q-88 0 -131.5 -65.5t-43.5 -164.5
q0 -57 33.5 -83.5t87.5 -26.5q97 0 130 80l10 10h80zM466 670l-128 -100l-20 -10h-54l-10 10l4 20l107 100l20 10h74l10 -10z" />
    <glyph glyph-name="Ccircumflex" unicode="&#x108;" horiz-adv-x="690" 
d="M621 770l-10 -10h-45l-20 10l-59 60h-21l-80 -60l-20 -10h-55l-10 10l4 20l107 100l20 10h100l20 -10l73 -100zM633 220l10 -10q-25 -107 -105.5 -163.5t-198.5 -56.5q-128 0 -209 74.5t-81 205.5q0 84 25 162t71 140.5t120 100t164 37.5q115 0 190 -56t75 -154l-10 -10
h-80l-10 10q0 56 -45.5 88t-119.5 32q-129 0 -204.5 -103.5t-75.5 -246.5q0 -88 53 -139t137 -51q156 0 202 130l10 10h82z" />
    <glyph glyph-name="ccircumflex" unicode="&#x109;" horiz-adv-x="520" 
d="M475 160q-14 -51 -38.5 -85.5t-56.5 -52.5t-65.5 -25t-75.5 -7q-93 0 -154.5 54t-61.5 146q0 64 16 119.5t48.5 101.5t86.5 72.5t125 26.5q93 0 149.5 -45t56.5 -107q0 -12 -1 -18l-10 -10h-80l-10 10q2 40 -25.5 60t-79.5 20q-88 0 -131.5 -65.5t-43.5 -164.5
q0 -57 33.5 -83.5t87.5 -26.5q97 0 130 80l10 10h80zM486 570l-10 -10h-45l-20 10l-59 60h-21l-80 -60l-20 -10h-55l-10 10l4 20l107 100l20 10h100l20 -10l73 -100z" />
    <glyph glyph-name="Cdotaccent" unicode="&#x10a;" horiz-adv-x="690" 
d="M633 220l10 -10q-25 -107 -105.5 -163.5t-198.5 -56.5q-128 0 -209 74.5t-81 205.5q0 84 25 162t71 140.5t120 100t164 37.5q115 0 190 -56t75 -154l-10 -10h-80l-10 10q0 56 -45.5 88t-119.5 32q-129 0 -204.5 -103.5t-75.5 -246.5q0 -88 53 -139t137 -51q156 0 202 130
l10 10h82zM516 790l-10 -10h-81l-10 10l14 80l10 10h81l10 -10z" />
    <glyph glyph-name="cdotaccent" unicode="&#x10b;" horiz-adv-x="520" 
d="M475 160q-14 -51 -38.5 -85.5t-56.5 -52.5t-65.5 -25t-75.5 -7q-93 0 -154.5 54t-61.5 146q0 64 16 119.5t48.5 101.5t86.5 72.5t125 26.5q93 0 149.5 -45t56.5 -107q0 -12 -1 -18l-10 -10h-80l-10 10q2 40 -25.5 60t-79.5 20q-88 0 -131.5 -65.5t-43.5 -164.5
q0 -57 33.5 -83.5t87.5 -26.5q97 0 130 80l10 10h80zM380 590l-10 -10h-81l-10 10l14 80l10 10h81l10 -10z" />
    <glyph glyph-name="Ccaron" unicode="&#x10c;" horiz-adv-x="690" 
d="M323 890l10 10h44l20 -10l59 -60h21l80 60l20 10h56l10 -10l-4 -20l-107 -100l-20 -10h-100l-20 10l-73 100zM633 220l10 -10q-25 -107 -105.5 -163.5t-198.5 -56.5q-128 0 -209 74.5t-81 205.5q0 84 25 162t71 140.5t120 100t164 37.5q115 0 190 -56t75 -154l-10 -10
h-80l-10 10q0 56 -45.5 88t-119.5 32q-129 0 -204.5 -103.5t-75.5 -246.5q0 -88 53 -139t137 -51q156 0 202 130l10 10h82z" />
    <glyph glyph-name="ccaron" unicode="&#x10d;" horiz-adv-x="520" 
d="M475 160q-14 -51 -38.5 -85.5t-56.5 -52.5t-65.5 -25t-75.5 -7q-93 0 -154.5 54t-61.5 146q0 64 16 119.5t48.5 101.5t86.5 72.5t125 26.5q93 0 149.5 -45t56.5 -107q0 -12 -1 -18l-10 -10h-80l-10 10q2 40 -25.5 60t-79.5 20q-88 0 -131.5 -65.5t-43.5 -164.5
q0 -57 33.5 -83.5t87.5 -26.5q97 0 130 80l10 10h80zM188 690l10 10h44l20 -10l59 -60h21l80 60l20 10h56l10 -10l-4 -20l-107 -100l-20 -10h-100l-20 10l-73 100z" />
    <glyph glyph-name="Dcaron" unicode="&#x10e;" horiz-adv-x="670" 
d="M266 0h-219l-10 10l120 680l10 10h199q144 0 217 -71t73 -189q0 -93 -22 -170.5t-67.5 -139t-122 -96t-178.5 -34.5zM164 90h102q150 0 220 95t70 255q0 170 -190 170h-114l-10 -10l-88 -500zM278 890l10 10h44l20 -10l59 -60h21l80 60l20 10h56l10 -10l-4 -20l-107 -100
l-20 -10h-100l-20 10l-73 100z" />
    <glyph glyph-name="dcaron" unicode="&#x10f;" horiz-adv-x="640" 
d="M701 590l-16 -30l-62 -70l-12 -10h-31l2 10l64 80l2 10l-10 10h-17l-10 10l16 90l10 10h71l10 -10zM447 10l-10 -10h-71l-10 10l-3 35h-10q-50 -55 -130 -55q-81 0 -136 57t-55 143q0 129 70.5 224.5t193.5 95.5q86 0 128 -60h10l42 240l10 10h81l10 -10zM229 80
q55 0 93.5 35.5t55 85.5t16.5 106q0 113 -108 113q-53 0 -91.5 -38t-55 -88.5t-16.5 -103.5t28.5 -81.5t77.5 -28.5z" />
    <glyph glyph-name="Dcroat" unicode="&#x110;" horiz-adv-x="670" 
d="M266 0h-219l-10 10l51 290l-10 10h-58l-8 10l12 70l12 10h62l10 10l49 280l10 10h199q144 0 217 -71t73 -189q0 -93 -22 -170.5t-67.5 -139t-122 -96t-178.5 -34.5zM164 90h102q150 0 220 95t70 255q0 170 -190 170h-114l-10 -10l-33 -190l10 -10h148l8 -10l-12 -70
l-12 -10h-152l-10 -10l-35 -200z" />
    <glyph glyph-name="dcroat" unicode="&#x111;" horiz-adv-x="551" 
d="M447 10l-10 -10h-71l-10 10l-3 35h-10q-50 -55 -130 -55q-81 0 -136 57t-55 143q0 129 70.5 224.5t193.5 95.5q86 0 128 -60h10l16 90l-9 10h-100l-8 10l11 60l12 10h100l11 10l9 50l10 10h81l10 -10l-9 -50l9 -10h50l8 -10l-11 -60l-12 -10h-51l-11 -10zM229 80
q55 0 93.5 35.5t55 85.5t16.5 106q0 113 -108 113q-53 0 -91.5 -38t-55 -88.5t-16.5 -103.5t28.5 -81.5t77.5 -28.5z" />
    <glyph glyph-name="Emacron" unicode="&#x112;" horiz-adv-x="610" 
d="M508 10l-10 -10h-451l-10 10l120 680l10 10h450l10 -10l-12 -70l-10 -10h-353l-10 -10l-33 -190l10 -10h326l10 -10l-13 -70l-10 -10h-333l-10 -10l-35 -200l10 -10h346l10 -10zM575 790l-10 -10h-300l-10 10l10 60l10 10h300l10 -10z" />
    <glyph glyph-name="emacron" unicode="&#x113;" horiz-adv-x="520" 
d="M380 290l11 10q3 13 3 28q0 36 -23.5 64t-80.5 28q-38 0 -67.5 -14t-44.5 -35.5t-22.5 -38t-10.5 -32.5l9 -10h226zM234 -10q-99 0 -154.5 57.5t-55.5 147.5q0 137 70 226t201 89q97 0 149 -54.5t52 -141.5q0 -31 -6 -64l-6 -30l-11 -10h-333l-12 -10q-1 -4 -1 -18
q0 -16 4.5 -31t15 -32.5t35 -28t58.5 -10.5q75 0 110 60l12 10h80l8 -10q-45 -150 -216 -150zM480 590l-10 -10h-300l-10 10l10 60l10 10h300l10 -10z" />
    <glyph glyph-name="Ebreve" unicode="&#x114;" horiz-adv-x="610" 
d="M508 10l-10 -10h-451l-10 10l120 680l10 10h450l10 -10l-12 -70l-10 -10h-353l-10 -10l-33 -190l10 -10h326l10 -10l-13 -70l-10 -10h-333l-10 -10l-35 -200l10 -10h346l10 -10zM351 890l10 -10q-1 -5 -1 -15q0 -21 16.5 -33t44.5 -12q68 0 79 60l10 10h51l10 -10
q-11 -60 -50.5 -95t-99.5 -35q-65 0 -98.5 32t-33.5 83q0 10 1 15l10 10h51z" />
    <glyph glyph-name="ebreve" unicode="&#x115;" horiz-adv-x="520" 
d="M380 290l11 10q3 13 3 28q0 36 -23.5 64t-80.5 28q-38 0 -67.5 -14t-44.5 -35.5t-22.5 -38t-10.5 -32.5l9 -10h226zM234 -10q-99 0 -154.5 57.5t-55.5 147.5q0 137 70 226t201 89q97 0 149 -54.5t52 -141.5q0 -31 -6 -64l-6 -30l-11 -10h-333l-12 -10q-1 -4 -1 -18
q0 -16 4.5 -31t15 -32.5t35 -28t58.5 -10.5q75 0 110 60l12 10h80l8 -10q-45 -150 -216 -150zM255 690l10 -10q-1 -5 -1 -15q0 -21 16.5 -33t44.5 -12q31 0 52.5 15.5t26.5 44.5l10 10h51l10 -10q-11 -60 -50.5 -95t-99.5 -35q-65 0 -98.5 32t-33.5 83q0 10 1 15l10 10h51z
" />
    <glyph glyph-name="Edotaccent" unicode="&#x116;" horiz-adv-x="610" 
d="M508 10l-10 -10h-451l-10 10l120 680l10 10h450l10 -10l-12 -70l-10 -10h-353l-10 -10l-33 -190l10 -10h326l10 -10l-13 -70l-10 -10h-333l-10 -10l-35 -200l10 -10h346l10 -10zM465 790l-10 -10h-81l-10 10l14 80l10 10h81l10 -10z" />
    <glyph glyph-name="edotaccent" unicode="&#x117;" horiz-adv-x="520" 
d="M380 290l11 10q3 13 3 28q0 36 -23.5 64t-80.5 28q-38 0 -67.5 -14t-44.5 -35.5t-22.5 -38t-10.5 -32.5l9 -10h226zM234 -10q-99 0 -154.5 57.5t-55.5 147.5q0 137 70 226t201 89q97 0 149 -54.5t52 -141.5q0 -31 -6 -64l-6 -30l-11 -10h-333l-12 -10q-1 -4 -1 -18
q0 -16 4.5 -31t15 -32.5t35 -28t58.5 -10.5q75 0 110 60l12 10h80l8 -10q-45 -150 -216 -150zM370 590l-10 -10h-81l-10 10l14 80l10 10h81l10 -10z" />
    <glyph glyph-name="Eogonek" unicode="&#x118;" horiz-adv-x="610" 
d="M366 0h-319l-10 10l120 680l10 10h450l10 -10l-12 -70l-10 -10h-353l-10 -10l-33 -190l10 -10h326l10 -10l-13 -70l-10 -10h-333l-10 -10l-35 -200l10 -10h346l10 -10l-12 -70l-10 -10q-49 -7 -87.5 -29t-38.5 -61q0 -18 11.5 -29t31.5 -11q13 0 26 2.5t19 5.5l6 2l9 -10
l-7 -40l-12 -10q-29 -20 -69 -20q-41 0 -70 25t-29 62q0 73 76 103z" />
    <glyph glyph-name="eogonek" unicode="&#x119;" horiz-adv-x="520" 
d="M380 290l11 10q3 13 3 28q0 36 -23.5 64t-80.5 28q-38 0 -67.5 -14t-44.5 -35.5t-22.5 -38t-10.5 -32.5l9 -10h226zM204 -9q-90 11 -135 68t-45 136q0 137 70 226t201 89q97 0 149 -54.5t52 -141.5q0 -31 -6 -64l-6 -30l-11 -10h-333l-12 -10q-1 -4 -1 -18q0 -16 4.5 -31
t15 -32.5t35 -28t58.5 -10.5q75 0 110 60l12 10h80l8 -10q-14 -49 -43.5 -81.5t-60.5 -47.5t-60 -27t-47.5 -29.5t-18.5 -44.5q0 -18 11.5 -29t31.5 -11q13 0 26 2.5t19 5.5l6 2l9 -10l-7 -40l-12 -10q-29 -20 -69 -20q-41 0 -70 25t-29 62q0 61 66 94z" />
    <glyph glyph-name="Ecaron" unicode="&#x11a;" horiz-adv-x="610" 
d="M508 10l-10 -10h-451l-10 10l120 680l10 10h450l10 -10l-12 -70l-10 -10h-353l-10 -10l-33 -190l10 -10h326l10 -10l-13 -70l-10 -10h-333l-10 -10l-35 -200l10 -10h346l10 -10zM273 890l10 10h44l20 -10l59 -60h21l80 60l20 10h56l10 -10l-4 -20l-107 -100l-20 -10h-100
l-20 10l-73 100z" />
    <glyph glyph-name="ecaron" unicode="&#x11b;" horiz-adv-x="520" 
d="M380 290l11 10q3 13 3 28q0 36 -23.5 64t-80.5 28q-38 0 -67.5 -14t-44.5 -35.5t-22.5 -38t-10.5 -32.5l9 -10h226zM234 -10q-99 0 -154.5 57.5t-55.5 147.5q0 137 70 226t201 89q97 0 149 -54.5t52 -141.5q0 -31 -6 -64l-6 -30l-11 -10h-333l-12 -10q-1 -4 -1 -18
q0 -16 4.5 -31t15 -32.5t35 -28t58.5 -10.5q75 0 110 60l12 10h80l8 -10q-45 -150 -216 -150zM178 690l10 10h44l20 -10l59 -60h21l80 60l20 10h56l10 -10l-4 -20l-107 -100l-20 -10h-100l-20 10l-73 100z" />
    <glyph glyph-name="Gcircumflex" unicode="&#x11c;" horiz-adv-x="720" 
d="M327 80q111 0 166.5 52.5t68.5 137.5l-10 10h-196l-10 10l12 70l10 10h300l10 -10l-61 -350l-10 -10h-60l-10 10v55h-10q-43 -39 -89 -57t-111 -18q-120 0 -200 72t-80 208q0 87 24.5 165.5t71 140.5t120 98t164.5 36q133 0 204.5 -63.5t71.5 -146.5l-12 -10h-80l-8 10
q0 49 -45.5 84.5t-130.5 35.5q-91 0 -156 -51t-94.5 -128.5t-29.5 -170.5t50.5 -141.5t129.5 -48.5zM611 770l-10 -10h-45l-20 10l-59 60h-21l-80 -60l-20 -10h-55l-10 10l4 20l107 100l20 10h100l20 -10l73 -100z" />
    <glyph glyph-name="gcircumflex" unicode="&#x11d;" horiz-adv-x="550" 
d="M229 80q55 0 93.5 35.5t55 85.5t16.5 106q0 113 -108 113q-53 0 -91.5 -38t-55 -88.5t-16.5 -103.5t28.5 -81.5t77.5 -28.5zM533 490l-78 -440q-25 -143 -87 -201.5t-162 -58.5q-88 0 -140.5 40t-52.5 100l10 10h80l10 -10q9 -29 31 -39.5t62 -10.5q65 0 98.5 39.5
t48.5 125.5h-10q-50 -55 -130 -55q-81 0 -136 57t-55 143q0 129 70.5 224.5t193.5 95.5q85 0 127 -60h11l17 40l10 10h72zM491 570l-10 -10h-45l-20 10l-59 60h-21l-80 -60l-20 -10h-55l-10 10l4 20l107 100l20 10h100l20 -10l73 -100z" />
    <glyph glyph-name="Gbreve" unicode="&#x11e;" horiz-adv-x="720" 
d="M327 80q111 0 166.5 52.5t68.5 137.5l-10 10h-196l-10 10l12 70l10 10h300l10 -10l-61 -350l-10 -10h-60l-10 10v55h-10q-43 -39 -89 -57t-111 -18q-120 0 -200 72t-80 208q0 87 24.5 165.5t71 140.5t120 98t164.5 36q133 0 204.5 -63.5t71.5 -146.5l-12 -10h-80l-8 10
q0 49 -45.5 84.5t-130.5 35.5q-91 0 -156 -51t-94.5 -128.5t-29.5 -170.5t50.5 -141.5t129.5 -48.5zM391 890l10 -10q-1 -5 -1 -15q0 -21 16.5 -33t44.5 -12q31 0 52.5 15.5t26.5 44.5l10 10h51l10 -10q-11 -60 -50.5 -95t-99.5 -35q-65 0 -98.5 32t-33.5 83q0 10 1 15
l10 10h51z" />
    <glyph glyph-name="gbreve" unicode="&#x11f;" horiz-adv-x="550" 
d="M229 80q55 0 93.5 35.5t55 85.5t16.5 106q0 113 -108 113q-53 0 -91.5 -38t-55 -88.5t-16.5 -103.5t28.5 -81.5t77.5 -28.5zM533 490l-78 -440q-25 -143 -87 -201.5t-162 -58.5q-88 0 -140.5 40t-52.5 100l10 10h80l10 -10q9 -29 31 -39.5t62 -10.5q65 0 98.5 39.5
t48.5 125.5h-10q-50 -55 -130 -55q-81 0 -136 57t-55 143q0 129 70.5 224.5t193.5 95.5q85 0 127 -60h11l17 40l10 10h72zM255 690l10 -10q-1 -5 -1 -15q0 -21 16.5 -33t44.5 -12q31 0 52.5 15.5t26.5 44.5l10 10h51l10 -10q-11 -60 -50.5 -95t-99.5 -35q-65 0 -98.5 32
t-33.5 83q0 10 1 15l10 10h51z" />
    <glyph glyph-name="Gdotaccent" unicode="&#x120;" horiz-adv-x="720" 
d="M327 80q111 0 166.5 52.5t68.5 137.5l-10 10h-196l-10 10l12 70l10 10h300l10 -10l-61 -350l-10 -10h-60l-10 10v55h-10q-43 -39 -89 -57t-111 -18q-120 0 -200 72t-80 208q0 87 24.5 165.5t71 140.5t120 98t164.5 36q133 0 204.5 -63.5t71.5 -146.5l-12 -10h-80l-8 10
q0 49 -45.5 84.5t-130.5 35.5q-91 0 -156 -51t-94.5 -128.5t-29.5 -170.5t50.5 -141.5t129.5 -48.5zM505 790l-10 -10h-81l-10 10l14 80l10 10h81l10 -10z" />
    <glyph glyph-name="gdotaccent" unicode="&#x121;" horiz-adv-x="550" 
d="M229 80q55 0 93.5 35.5t55 85.5t16.5 106q0 113 -108 113q-53 0 -91.5 -38t-55 -88.5t-16.5 -103.5t28.5 -81.5t77.5 -28.5zM533 490l-78 -440q-25 -143 -87 -201.5t-162 -58.5q-88 0 -140.5 40t-52.5 100l10 10h80l10 -10q9 -29 31 -39.5t62 -10.5q65 0 98.5 39.5
t48.5 125.5h-10q-50 -55 -130 -55q-81 0 -136 57t-55 143q0 129 70.5 224.5t193.5 95.5q85 0 127 -60h11l17 40l10 10h72zM370 590l-10 -10h-81l-10 10l14 80l10 10h81l10 -10z" />
    <glyph glyph-name="Gcommaaccent" unicode="&#x122;" horiz-adv-x="720" 
d="M327 80q111 0 166.5 52.5t68.5 137.5l-10 10h-196l-10 10l12 70l10 10h300l10 -10l-61 -350l-10 -10h-60l-10 10v55h-10q-43 -39 -89 -57t-111 -18q-120 0 -200 72t-80 208q0 87 24.5 165.5t71 140.5t120 98t164.5 36q133 0 204.5 -63.5t71.5 -146.5l-12 -10h-80l-8 10
q0 49 -45.5 84.5t-130.5 35.5q-91 0 -156 -51t-94.5 -128.5t-29.5 -170.5t50.5 -141.5t129.5 -48.5zM344 -130l-16 -30l-59 -50l-20 -10h-22l1 10l51 60l2 10l-10 10h-17l-10 10l13 70l10 10h81l10 -10z" />
    <glyph glyph-name="gcommaaccent" unicode="&#x123;" horiz-adv-x="550" 
d="M229 80q55 0 93.5 35.5t55 85.5t16.5 106q0 113 -108 113q-53 0 -91.5 -38t-55 -88.5t-16.5 -103.5t28.5 -81.5t77.5 -28.5zM533 490l-78 -440q-25 -143 -87 -201.5t-162 -58.5q-88 0 -140.5 40t-52.5 100l10 10h80l10 -10q9 -29 31 -39.5t62 -10.5q65 0 98.5 39.5
t48.5 125.5h-10q-50 -55 -130 -55q-81 0 -136 57t-55 143q0 129 70.5 224.5t193.5 95.5q85 0 127 -60h11l17 40l10 10h72zM283 670l16 30l59 50l20 10h22l-1 -10l-51 -60l-2 -10l10 -10h17l10 -10l-13 -70l-10 -10h-81l-10 10z" />
    <glyph glyph-name="Hcircumflex" unicode="&#x124;" horiz-adv-x="710" 
d="M601 770l-10 -10h-45l-20 10l-59 60h-11l-80 -60l-20 -10h-55l-10 10l4 20l107 100l20 10h90l20 -10l73 -100zM587 10l-10 -10h-81l-10 10l51 290l-10 10h-328l-10 -10l-51 -290l-10 -10h-81l-10 10l120 680l10 10h81l10 -10l-49 -280l10 -10h328l10 10l49 280l10 10h81
l10 -10z" />
    <glyph glyph-name="hcircumflex" unicode="&#x125;" horiz-adv-x="550" 
d="M448 10l-10 -10h-81l-10 10l49 280q5 28 5 47q0 83 -82 83q-63 0 -102.5 -37t-54.5 -123l-44 -250l-10 -10h-81l-10 10l120 680l10 10h81l10 -10l-42 -240h10q18 23 53.5 41.5t85.5 18.5q80 0 119 -44.5t39 -112.5q0 -30 -6 -63zM354 730l-10 -10h-45l-20 10l-59 60h-21
l-80 -60l-20 -10h-55l-10 10l4 20l107 100l20 10h100l20 -10l73 -100z" />
    <glyph glyph-name="Hbar" unicode="&#x126;" horiz-adv-x="710" 
d="M587 10l-10 -10h-81l-10 10l51 290l-10 10h-328l-10 -10l-51 -290l-10 -10h-81l-10 10l87 490l-10 10h-57l-10 10l11 60l10 10h63l10 10l16 90l10 10h81l10 -10l-16 -90l10 -10h328l10 10l16 90l10 10h81l10 -10l-16 -90l10 -10h57l10 -10l-11 -60l-10 -10h-63l-10 -10z
M547 400l10 10l16 90l-10 10h-328l-10 -10l-16 -90l10 -10h328z" />
    <glyph glyph-name="hbar" unicode="&#x127;" horiz-adv-x="550" 
d="M448 10l-10 -10h-81l-10 10l49 280q5 28 5 47q0 83 -82 83q-63 0 -102.5 -37t-54.5 -123l-44 -250l-10 -10h-81l-10 10l92 520l-10 10h-47l-10 10l11 60l10 10h53l10 9l11 61l10 10h81l10 -10l-11 -61l10 -9h137l10 -10l-11 -60l-10 -10h-143l-10 -10l-14 -80h10
q18 23 53.5 41.5t85.5 18.5q80 0 119 -44.5t39 -112.5q0 -30 -6 -63z" />
    <glyph glyph-name="Itilde" unicode="&#x128;" horiz-adv-x="260" 
d="M137 10l-10 -10h-81l-10 10l120 680l10 10h81l10 -10zM297 750q-34 0 -60 17.5t-43.5 35t-33.5 17.5q-41 0 -49 -50l-10 -10h-30l-10 10q18 110 109 110q34 0 60 -17.5t44 -35t34 -17.5q39 0 49 50l10 10h30l10 -10q-20 -110 -110 -110z" />
    <glyph glyph-name="itilde" unicode="&#x129;" horiz-adv-x="220" 
d="M118 10l-10 -10h-81l-10 10l85 480l10 10h81l10 -10zM242 550q-34 0 -60 17.5t-43.5 35t-33.5 17.5q-41 0 -49 -50l-10 -10h-30l-10 10q18 110 109 110q34 0 60 -17.5t44 -35t34 -17.5q39 0 49 50l10 10h30l10 -10q-20 -110 -110 -110z" />
    <glyph glyph-name="Imacron" unicode="&#x12a;" horiz-adv-x="260" 
d="M137 10l-10 -10h-81l-10 10l120 680l10 10h81l10 -10zM385 790l-10 -10h-300l-10 10l10 60l10 10h300l10 -10z" />
    <glyph glyph-name="imacron" unicode="&#x12b;" horiz-adv-x="220" 
d="M118 10l-10 -10h-81l-10 10l85 480l10 10h81l10 -10zM330 590l-10 -10h-300l-10 10l10 60l10 10h300l10 -10z" />
    <glyph glyph-name="Ibreve" unicode="&#x12c;" horiz-adv-x="260" 
d="M137 10l-10 -10h-81l-10 10l120 680l10 10h81l10 -10zM161 890l10 -10q-1 -5 -1 -15q0 -21 16.5 -33t44.5 -12q31 0 52.5 15.5t26.5 44.5l10 10h51l10 -10q-11 -60 -50.5 -95t-99.5 -35q-65 0 -98.5 32t-33.5 83q0 10 1 15l10 10h51z" />
    <glyph glyph-name="ibreve" unicode="&#x12d;" horiz-adv-x="220" 
d="M118 10l-10 -10h-81l-10 10l85 480l10 10h81l10 -10zM105 690l10 -10q-1 -5 -1 -15q0 -21 16.5 -33t44.5 -12q31 0 52.5 15.5t26.5 44.5l10 10h51l10 -10q-11 -60 -50.5 -95t-99.5 -35q-65 0 -98.5 32t-33.5 83q0 10 1 15l10 10h51z" />
    <glyph glyph-name="Iogonek" unicode="&#x12e;" horiz-adv-x="260" 
d="M36 10l120 680l10 10h81l10 -10l-120 -680l-10 -10q-42 -13 -74.5 -38t-32.5 -62q0 -20 13 -30t29 -10q31 0 53 20h10l25 -30l-2 -10q-42 -50 -104 -50q-48 0 -78.5 26t-30.5 67q0 46 27.5 78.5t73.5 48.5z" />
    <glyph glyph-name="iogonek" unicode="&#x12f;" horiz-adv-x="220" 
d="M17 10l85 480l10 10h81l10 -10l-85 -480l-10 -10q-42 -13 -74.5 -38t-32.5 -62q0 -20 13 -30t29 -10q31 0 53 20h10l25 -30l-2 -10q-42 -50 -104 -50q-48 0 -78.5 26t-30.5 67q0 46 27.5 78.5t73.5 48.5zM220 590l-10 -10h-81l-10 10l14 80l10 10h81l10 -10z" />
    <glyph glyph-name="Idotaccent" unicode="&#x130;" horiz-adv-x="260" 
d="M137 10l-10 -10h-81l-10 10l120 680l10 10h81l10 -10zM275 790l-10 -10h-81l-10 10l14 80l10 10h81l10 -10z" />
    <glyph glyph-name="dotlessi" unicode="&#x131;" horiz-adv-x="220" 
d="M118 10l-10 -10h-81l-10 10l85 480l10 10h81l10 -10z" />
    <glyph glyph-name="IJ" unicode="&#x132;" horiz-adv-x="620" 
d="M138 10l-10 -10h-81l-10 10l120 680l10 10h81l10 -10zM227 0l-10 10l13 70l10 10h59q112 0 131 110l86 490l10 10h81l10 -10l-86 -490q-17 -93 -70 -146.5t-162 -53.5h-72z" />
    <glyph glyph-name="ij" unicode="&#x133;" horiz-adv-x="420" 
d="M220 590l-10 -10h-81l-10 10l14 80l10 10h81l10 -10zM118 10l-10 -10h-81l-10 10l85 480l10 10h81l10 -10zM402 490l-95 -540q-13 -70 -53 -100t-95 -30h-63l-10 10l12 70l10 10h51q40 0 47 40l95 540l10 10h81zM419 590l-10 -10h-81l-10 10l14 80l10 10h81l10 -10z" />
    <glyph glyph-name="Jcircumflex" unicode="&#x134;" horiz-adv-x="510" 
d="M507 690l-88 -500q-16 -93 -69 -146.5t-164 -53.5q-89 0 -136 43.5t-47 96.5q0 13 2 30.5t4 28.5l2 11l11 10h81l8 -10q-7 -28 -7 -60q0 -60 82 -60q113 0 132 110l88 500l10 10h81zM631 770l-10 -10h-45l-20 10l-59 60h-21l-80 -60l-20 -10h-55l-10 10l4 20l107 100
l20 10h100l20 -10l73 -100z" />
    <glyph glyph-name="jcircumflex" unicode="&#x135;" horiz-adv-x="220" 
d="M203 490l-95 -540q-13 -70 -53 -100t-95 -30h-63l-10 10l12 70l10 10h51q40 0 47 40l95 540l10 10h81zM326 570l-10 -10h-45l-20 10l-59 60h-21l-80 -60l-20 -10h-55l-10 10l4 20l107 100l20 10h100l20 -10l73 -100z" />
    <glyph glyph-name="Kcommaaccent" unicode="&#x136;" horiz-adv-x="620" 
d="M557 10l-10 -10h-27l-20 10l-191 317h-10l-112 -97l-13 -20l-36 -200l-10 -10h-81l-10 10l120 680l10 10h81l10 -10l-57 -321h10l375 321l20 10h41l10 -10l-12 -70l-259 -220l-2 -10l186 -310zM304 -130l-16 -30l-59 -50l-20 -10h-22l1 10l51 60l2 10l-10 10h-17l-10 10
l13 70l10 10h81l10 -10z" />
    <glyph glyph-name="kcommaaccent" unicode="&#x137;" horiz-adv-x="500" 
d="M428 10l-10 -10h-25l-20 10l-123 197h-10l-91 -77l-13 -20l-18 -100l-10 -10h-81l-10 10l120 680l10 10h81l10 -10l-75 -422h10l262 222l20 10h38l10 -10l-12 -70l-166 -141l-1 -10l117 -189zM244 -130l-16 -30l-59 -50l-20 -10h-22l1 10l51 60l2 10l-10 10h-17l-10 10
l13 70l10 10h81l10 -10z" />
    <glyph glyph-name="kgreenlandic" unicode="&#x138;" horiz-adv-x="500" 
d="M428 10l-10 -10h-25l-20 10l-123 197h-10l-91 -77l-13 -20l-18 -100l-10 -10h-81l-10 10l85 480l10 10h81l10 -10l-40 -222h10l262 222l20 10h38l10 -10l-12 -70l-166 -141l-1 -10l117 -189z" />
    <glyph glyph-name="Lacute" unicode="&#x139;" horiz-adv-x="540" 
d="M488 10l-10 -10h-431l-10 10l120 680l10 10h81l10 -10l-104 -590l10 -10h326l10 -10zM371 870l-128 -100l-20 -10h-54l-10 10l4 20l107 100l20 10h74l10 -10z" />
    <glyph glyph-name="lacute" unicode="&#x13a;" horiz-adv-x="220" 
d="M118 10l-10 -10h-81l-10 10l120 680l10 10h81l10 -10zM351 870l-128 -100l-20 -10h-54l-10 10l4 20l107 100l20 10h74l10 -10z" />
    <glyph glyph-name="Lcommaaccent" unicode="&#x13b;" horiz-adv-x="540" 
d="M488 10l-10 -10h-431l-10 10l120 680l10 10h81l10 -10l-104 -590l10 -10h326l10 -10zM284 -130l-16 -30l-59 -50l-20 -10h-22l1 10l51 60l2 10l-10 10h-17l-10 10l13 70l10 10h81l10 -10z" />
    <glyph glyph-name="lcommaaccent" unicode="&#x13c;" horiz-adv-x="220" 
d="M118 10l-10 -10h-81l-10 10l120 680l10 10h81l10 -10zM94 -130l-16 -30l-59 -50l-20 -10h-22l1 10l51 60l2 10l-10 10h-17l-10 10l13 70l10 10h81l10 -10z" />
    <glyph glyph-name="Lcaron" unicode="&#x13d;" horiz-adv-x="540" 
d="M488 10l-10 -10h-431l-10 10l120 680l10 10h81l10 -10l-104 -590l10 -10h326l10 -10zM411 590l-16 -30l-62 -70l-12 -10h-31l2 10l64 80l2 10l-10 10h-17l-10 10l16 90l10 10h71l10 -10z" />
    <glyph glyph-name="lcaron" unicode="&#x13e;" horiz-adv-x="310" 
d="M118 10l-10 -10h-81l-10 10l120 680l10 10h81l10 -10zM371 590l-16 -30l-62 -70l-12 -10h-31l2 10l64 80l2 10l-10 10h-17l-10 10l16 90l10 10h71l10 -10z" />
    <glyph glyph-name="Ldot" unicode="&#x13f;" horiz-adv-x="540" 
d="M488 10l-10 -10h-431l-10 10l120 680l10 10h81l10 -10l-104 -590l10 -10h326l10 -10zM457 350l-10 -10h-81l-10 10l14 80l10 10h81l10 -10z" />
    <glyph glyph-name="ldot" unicode="&#x140;" horiz-adv-x="370" 
d="M118 10l-10 -10h-81l-10 10l120 680l10 10h81l10 -10zM357 350l-10 -10h-81l-10 10l14 80l10 10h81l10 -10z" />
    <glyph glyph-name="Lslash" unicode="&#x141;" horiz-adv-x="540" 
d="M69 191h-10l-47 -30h-26l-10 10l12 69l90 60l14 20l65 370l10 10h81l10 -10l-54 -310h10l181 120h28l10 -10l-13 -69l-225 -150l-14 -20l-27 -151l10 -10h327l10 -10l-13 -70l-10 -10h-431l-10 10z" />
    <glyph glyph-name="lslash" unicode="&#x142;" horiz-adv-x="210" 
d="M209 470h10l46 30h28l10 -10l-12 -68l-89 -60l-14 -20l-60 -332l-10 -10h-81l-10 10l50 272h-10l-46 -30h-29l-10 10l12 68l90 60l14 20l49 280l10 10h81l10 -10z" />
    <glyph glyph-name="Nacute" unicode="&#x143;" horiz-adv-x="730" 
d="M607 10l-12 -10h-81l-18 10l-256 520h-10l-92 -520l-12 -10h-81l-8 10l120 680l12 10h81l18 -10l256 -520h10l92 520l12 10h81l8 -10zM591 870l-128 -100l-20 -10h-54l-10 10l4 20l107 100l20 10h74l10 -10z" />
    <glyph glyph-name="nacute" unicode="&#x144;" horiz-adv-x="540" 
d="M449 10l-10 -10h-81l-10 10l49 280q4 24 4 47q0 83 -81 83q-63 0 -102.5 -37t-54.5 -123l-45 -250l-10 -10h-81l-10 10l85 480l10 10h71l10 -10l3 -40h10q43 60 140 60q80 0 119 -44.5t39 -112.5q0 -30 -6 -63zM476 670l-128 -100l-20 -10h-54l-10 10l4 20l107 100l20 10
h74l10 -10z" />
    <glyph glyph-name="Ncommaaccent" unicode="&#x145;" horiz-adv-x="730" 
d="M607 10l-12 -10h-81l-18 10l-256 520h-10l-92 -520l-12 -10h-81l-8 10l120 680l12 10h81l18 -10l256 -520h10l92 520l12 10h81l8 -10zM354 -130l-16 -30l-59 -50l-20 -10h-22l1 10l51 60l2 10l-10 10h-17l-10 10l13 70l10 10h81l10 -10z" />
    <glyph glyph-name="ncommaaccent" unicode="&#x146;" horiz-adv-x="540" 
d="M449 10l-10 -10h-81l-10 10l49 280q4 24 4 47q0 83 -81 83q-63 0 -102.5 -37t-54.5 -123l-45 -250l-10 -10h-81l-10 10l85 480l10 10h71l10 -10l3 -40h10q43 60 140 60q80 0 119 -44.5t39 -112.5q0 -30 -6 -63zM264 -130l-16 -30l-59 -50l-20 -10h-22l1 10l51 60l2 10
l-10 10h-17l-10 10l13 70l10 10h81l10 -10z" />
    <glyph glyph-name="Ncaron" unicode="&#x147;" horiz-adv-x="730" 
d="M607 10l-12 -10h-81l-18 10l-256 520h-10l-92 -520l-12 -10h-81l-8 10l120 680l12 10h81l18 -10l256 -520h10l92 520l12 10h81l8 -10zM323 890l10 10h44l20 -10l59 -60h21l80 60l20 10h56l10 -10l-4 -20l-107 -100l-20 -10h-100l-20 10l-73 100z" />
    <glyph glyph-name="ncaron" unicode="&#x148;" horiz-adv-x="540" 
d="M449 10l-10 -10h-81l-10 10l49 280q4 24 4 47q0 83 -81 83q-63 0 -102.5 -37t-54.5 -123l-45 -250l-10 -10h-81l-10 10l85 480l10 10h71l10 -10l3 -40h10q43 60 140 60q80 0 119 -44.5t39 -112.5q0 -30 -6 -63zM198 690l10 10h44l20 -10l59 -60h21l80 60l20 10h56l10 -10
l-4 -20l-107 -100l-20 -10h-100l-20 10l-73 100z" />
    <glyph glyph-name="napostrophe" unicode="&#x149;" horiz-adv-x="540" 
d="M449 10l-10 -10h-81l-10 10l49 280q4 24 4 47q0 83 -81 83q-63 0 -102.5 -37t-54.5 -123l-45 -250l-10 -10h-81l-10 10l85 480l10 10h71l10 -10l3 -40h10q43 60 140 60q80 0 119 -44.5t39 -112.5q0 -30 -6 -63zM164 610l-16 -30l-62 -70l-12 -10h-31l2 10l64 80l2 10
l-10 10h-17l-10 10l16 90l10 10h71l10 -10z" />
    <glyph glyph-name="Eng" unicode="&#x14a;" horiz-adv-x="730" 
d="M370 -210h-10l-10 10l12 72l10 8q114 0 132 115l-264 535h-10l-92 -520l-12 -10h-81l-8 10l120 680l12 10h81l18 -10l256 -520h10l92 520l12 10h81l8 -10l-123 -700q-16 -93 -69 -146.5t-165 -53.5z" />
    <glyph glyph-name="eng" unicode="&#x14b;" horiz-adv-x="540" 
d="M211 -210h-12l-10 10l12 72l10 8q114 0 134 115l52 295q4 24 4 47q0 83 -81 83q-63 0 -102.5 -37t-54.5 -123l-45 -250l-10 -10h-81l-10 10l85 480l10 10h71l10 -10l3 -40h10q43 60 140 60q80 0 119 -44.5t39 -112.5q0 -30 -6 -63l-53 -300q-16 -93 -69.5 -146.5
t-164.5 -53.5z" />
    <glyph glyph-name="Omacron" unicode="&#x14c;" horiz-adv-x="740" 
d="M150 270q0 -90 50.5 -140t140.5 -50q86 0 152 52.5t98 131.5t32 166q0 90 -51 140t-141 50q-65 0 -119.5 -30.5t-89 -81t-53.5 -112t-19 -126.5zM724 430q0 -80 -25.5 -157.5t-72 -141t-121 -102.5t-164.5 -39q-135 0 -213.5 76t-78.5 204q0 80 25 157.5t71.5 141
t121 102.5t164.5 39q135 0 214 -76t79 -204zM625 790l-10 -10h-300l-10 10l10 60l10 10h300l10 -10z" />
    <glyph glyph-name="omacron" unicode="&#x14d;" horiz-adv-x="540" 
d="M517 310q0 -134 -72.5 -227t-205.5 -93q-97 0 -156.5 53.5t-59.5 146.5q0 86 29.5 157t93.5 117t154 46q97 0 157 -53.5t60 -146.5zM124 190q0 -53 30 -81.5t85 -28.5q87 0 131.5 67.5t44.5 162.5q0 53 -30 81.5t-85 28.5q-87 0 -131.5 -67.5t-44.5 -162.5zM490 590
l-10 -10h-300l-10 10l10 60l10 10h300l10 -10z" />
    <glyph glyph-name="Obreve" unicode="&#x14e;" horiz-adv-x="740" 
d="M150 270q0 -90 50.5 -140t140.5 -50q86 0 152 52.5t98 131.5t32 166q0 90 -51 140t-141 50q-65 0 -119.5 -30.5t-89 -81t-53.5 -112t-19 -126.5zM724 430q0 -80 -25.5 -157.5t-72 -141t-121 -102.5t-164.5 -39q-135 0 -213.5 76t-78.5 204q0 80 25 157.5t71.5 141
t121 102.5t164.5 39q135 0 214 -76t79 -204zM401 890l10 -10q-1 -5 -1 -15q0 -21 16.5 -33t44.5 -12q31 0 52.5 15.5t26.5 44.5l10 10h51l10 -10q-11 -60 -50.5 -95t-99.5 -35q-65 0 -98.5 32t-33.5 83q0 10 1 15l10 10h51z" />
    <glyph glyph-name="obreve" unicode="&#x14f;" horiz-adv-x="540" 
d="M517 310q0 -134 -72.5 -227t-205.5 -93q-97 0 -156.5 53.5t-59.5 146.5q0 86 29.5 157t93.5 117t154 46q97 0 157 -53.5t60 -146.5zM124 190q0 -53 30 -81.5t85 -28.5q87 0 131.5 67.5t44.5 162.5q0 53 -30 81.5t-85 28.5q-87 0 -131.5 -67.5t-44.5 -162.5zM265 690
l10 -10q-1 -5 -1 -15q0 -21 16.5 -33t44.5 -12q31 0 52.5 15.5t26.5 44.5l10 10h51l10 -10q-11 -60 -50.5 -95t-99.5 -35q-65 0 -98.5 32t-33.5 83q0 10 1 15l10 10h51z" />
    <glyph glyph-name="Ohungarumlaut" unicode="&#x150;" horiz-adv-x="740" 
d="M150 270q0 -90 50.5 -140t140.5 -50q86 0 152 52.5t98 131.5t32 166q0 90 -51 140t-141 50q-65 0 -119.5 -30.5t-89 -81t-53.5 -112t-19 -126.5zM724 430q0 -80 -25.5 -157.5t-72 -141t-121 -102.5t-164.5 -39q-135 0 -213.5 76t-78.5 204q0 80 25 157.5t71.5 141
t121 102.5t164.5 39q135 0 214 -76t79 -204zM503 870l-128 -100l-20 -10h-54l-10 10l4 20l107 100l20 10h74l10 -10zM699 870l-128 -100l-20 -10h-54l-10 10l4 20l107 100l20 10h74l10 -10z" />
    <glyph glyph-name="ohungarumlaut" unicode="&#x151;" horiz-adv-x="540" 
d="M517 310q0 -134 -72.5 -227t-205.5 -93q-97 0 -156.5 53.5t-59.5 146.5q0 86 29.5 157t93.5 117t154 46q97 0 157 -53.5t60 -146.5zM124 190q0 -53 30 -81.5t85 -28.5q87 0 131.5 67.5t44.5 162.5q0 53 -30 81.5t-85 28.5q-87 0 -131.5 -67.5t-44.5 -162.5zM378 670
l-128 -100l-20 -10h-54l-10 10l4 20l107 100l20 10h74l10 -10zM574 670l-128 -100l-20 -10h-54l-10 10l4 20l107 100l20 10h74l10 -10z" />
    <glyph glyph-name="OE" unicode="&#x152;" horiz-adv-x="1010" 
d="M908 10l-10 -10h-421l-10 10l6 30h-10q-58 -50 -160 -50q-132 0 -198.5 74.5t-66.5 205.5q0 65 13 126.5t42 119t71 100.5t103.5 68.5t135.5 25.5q115 0 168 -50h10l5 30l10 10h421l10 -10l-12 -70l-10 -10h-323l-10 -10l-34 -190l10 -10h297l10 -10l-13 -70l-10 -10
h-303l-10 -10l-36 -200l10 -10h317l10 -10zM138 270q0 -94 39 -142t126 -48q147 0 193 96l62 354q-6 40 -46.5 65t-108.5 25q-67 0 -119 -30.5t-83 -81t-47 -111.5t-16 -127z" />
    <glyph glyph-name="oe" unicode="&#x153;" horiz-adv-x="890" 
d="M436 60h-10q-72 -70 -187 -70q-97 0 -156.5 53.5t-59.5 146.5q0 86 29.5 157t93.5 117t154 46q115 0 173 -70h10q70 70 182 70q97 0 149 -54.5t52 -141.5q0 -31 -6 -64l-6 -30l-11 -10h-333l-12 -10q-1 -4 -1 -17q0 -16 4.5 -31.5t15 -33t35 -28t58.5 -10.5q75 0 110 60
l12 10h80l8 -10q-45 -150 -216 -150q-111 0 -168 70zM124 190q0 -53 30 -81.5t85 -28.5q87 0 131.5 67.5t44.5 162.5q0 53 -30 81.5t-85 28.5q-87 0 -131.5 -67.5t-44.5 -162.5zM750 290l11 10q3 14 3 28q0 36 -23.5 64t-80.5 28q-38 0 -67.5 -14t-44.5 -35.5t-22.5 -38
t-10.5 -32.5l9 -10h226z" />
    <glyph glyph-name="Racute" unicode="&#x154;" horiz-adv-x="670" 
d="M678 530q0 -88 -49.5 -147t-137.5 -76l-1 -10l100 -217l-12 -70l-12 -10h-34l-18 10l-131 280l-20 10h-165l-10 -10l-50 -280l-10 -10h-81l-10 10l120 680l10 10h291q105 0 162.5 -44t57.5 -126zM217 390h201q72 0 116 34.5t44 105.5q0 44 -29 62t-91 18h-206l-10 -10
l-35 -200zM561 870l-128 -100l-20 -10h-54l-10 10l4 20l107 100l20 10h74l10 -10z" />
    <glyph glyph-name="racute" unicode="&#x155;" horiz-adv-x="370" 
d="M381 420l-10 -10h-52q-65 0 -103.5 -32.5t-53.5 -117.5l-44 -250l-10 -10h-81l-10 10l85 480l10 10h71l10 -10l3 -40h10q20 28 46 39t83 11h48l10 -10zM386 670l-128 -100l-20 -10h-54l-10 10l4 20l107 100l20 10h74l10 -10z" />
    <glyph glyph-name="Rcommaaccent" unicode="&#x156;" horiz-adv-x="670" 
d="M678 530q0 -88 -49.5 -147t-137.5 -76l-1 -10l100 -217l-12 -70l-12 -10h-34l-18 10l-131 280l-20 10h-165l-10 -10l-50 -280l-10 -10h-81l-10 10l120 680l10 10h291q105 0 162.5 -44t57.5 -126zM217 390h201q72 0 116 34.5t44 105.5q0 44 -29 62t-91 18h-206l-10 -10
l-35 -200zM334 -130l-16 -30l-59 -50l-20 -10h-22l1 10l51 60l2 10l-10 10h-17l-10 10l13 70l10 10h81l10 -10z" />
    <glyph glyph-name="rcommaaccent" unicode="&#x157;" horiz-adv-x="370" 
d="M381 420l-10 -10h-52q-65 0 -103.5 -32.5t-53.5 -117.5l-44 -250l-10 -10h-81l-10 10l85 480l10 10h71l10 -10l3 -40h10q20 28 46 39t83 11h48l10 -10zM94 -130l-16 -30l-59 -50l-20 -10h-22l1 10l51 60l2 10l-10 10h-17l-10 10l13 70l10 10h81l10 -10z" />
    <glyph glyph-name="Rcaron" unicode="&#x158;" horiz-adv-x="670" 
d="M678 530q0 -88 -49.5 -147t-137.5 -76l-1 -10l100 -217l-12 -70l-12 -10h-34l-18 10l-131 280l-20 10h-165l-10 -10l-50 -280l-10 -10h-81l-10 10l120 680l10 10h291q105 0 162.5 -44t57.5 -126zM217 390h201q72 0 116 34.5t44 105.5q0 44 -29 62t-91 18h-206l-10 -10
l-35 -200zM293 890l10 10h44l20 -10l59 -60h21l80 60l20 10h56l10 -10l-4 -20l-107 -100l-20 -10h-100l-20 10l-73 100z" />
    <glyph glyph-name="rcaron" unicode="&#x159;" horiz-adv-x="370" 
d="M381 420l-10 -10h-52q-65 0 -103.5 -32.5t-53.5 -117.5l-44 -250l-10 -10h-81l-10 10l85 480l10 10h71l10 -10l3 -40h10q20 28 46 39t83 11h48l10 -10zM118 690l10 10h44l20 -10l59 -60h21l80 60l20 10h56l10 -10l-4 -20l-107 -100l-20 -10h-100l-20 10l-73 100z" />
    <glyph glyph-name="Sacute" unicode="&#x15a;" horiz-adv-x="630" 
d="M581 200q0 -72 -42.5 -120.5t-108 -69t-149.5 -20.5q-122 0 -186 56.5t-64 143.5q0 16 3 30l10 10h81l9 -10q-3 -14 -3 -30q0 -53 40.5 -81.5t119.5 -28.5q86 0 138 31t52 89q0 50 -36.5 74.5t-132.5 45.5q-100 22 -154 65.5t-54 124.5q0 95 76.5 147.5t200.5 52.5
q106 0 171.5 -49t65.5 -131q0 -17 -4 -30l-10 -10h-80l-10 10q4 20 4 30q0 90 -147 90q-30 0 -57.5 -5t-53 -16.5t-41 -34.5t-15.5 -54q0 -44 38 -66.5t134 -43.5q99 -22 152 -68.5t53 -131.5zM531 870l-128 -100l-20 -10h-54l-10 10l4 20l107 100l20 10h74l10 -10z" />
    <glyph glyph-name="sacute" unicode="&#x15b;" horiz-adv-x="460" 
d="M413 156q0 -83 -61 -124.5t-152 -41.5q-86 0 -138 38t-52 102q0 15 4 30l11 10h80l9 -10q-3 -9 -3 -20q0 -60 89 -60q46 0 79 17t33 59q0 26 -24 37.5t-94 26.5q-64 14 -100 49t-36 86q0 75 58 115t144 40q82 0 131 -35t49 -95l-2 -20l-12 -10h-80l-8 10q2 5 2 15
q0 19 -19 32t-61 13q-100 0 -100 -65q0 -27 25.5 -38.5t101.5 -26.5q61 -13 93.5 -48.5t32.5 -85.5zM426 670l-128 -100l-20 -10h-54l-10 10l4 20l107 100l20 10h74l10 -10z" />
    <glyph glyph-name="Scircumflex" unicode="&#x15c;" horiz-adv-x="630" 
d="M581 200q0 -72 -42.5 -120.5t-108 -69t-149.5 -20.5q-122 0 -186 56.5t-64 143.5q0 16 3 30l10 10h81l9 -10q-3 -14 -3 -30q0 -53 40.5 -81.5t119.5 -28.5q86 0 138 31t52 89q0 50 -36.5 74.5t-132.5 45.5q-100 22 -154 65.5t-54 124.5q0 95 76.5 147.5t200.5 52.5
q106 0 171.5 -49t65.5 -131q0 -17 -4 -30l-10 -10h-80l-10 10q4 20 4 30q0 90 -147 90q-30 0 -57.5 -5t-53 -16.5t-41 -34.5t-15.5 -54q0 -44 38 -66.5t134 -43.5q99 -22 152 -68.5t53 -131.5zM571 770l-10 -10h-45l-20 10l-59 60h-21l-80 -60l-20 -10h-55l-10 10l4 20
l107 100l20 10h100l20 -10l73 -100z" />
    <glyph glyph-name="scircumflex" unicode="&#x15d;" horiz-adv-x="460" 
d="M413 156q0 -83 -61 -124.5t-152 -41.5q-86 0 -138 38t-52 102q0 15 4 30l11 10h80l9 -10q-3 -9 -3 -20q0 -60 89 -60q46 0 79 17t33 59q0 26 -24 37.5t-94 26.5q-64 14 -100 49t-36 86q0 75 58 115t144 40q82 0 131 -35t49 -95l-2 -20l-12 -10h-80l-8 10q2 5 2 15
q0 19 -19 32t-61 13q-100 0 -100 -65q0 -27 25.5 -38.5t101.5 -26.5q61 -13 93.5 -48.5t32.5 -85.5zM446 570l-10 -10h-45l-20 10l-59 60h-21l-80 -60l-20 -10h-55l-10 10l4 20l107 100l20 10h100l20 -10l73 -100z" />
    <glyph glyph-name="Scedilla" unicode="&#x15e;" horiz-adv-x="630" 
d="M200 -100h-10l-10 10l1 10l71 60l2 11q-109 6 -166 61.5t-57 137.5q0 16 3 30l10 10h81l9 -10q-3 -14 -3 -30q0 -53 40.5 -81.5t119.5 -28.5q86 0 138 31t52 89q0 50 -36.5 74.5t-132.5 45.5q-100 22 -154 65.5t-54 124.5q0 95 76.5 147.5t200.5 52.5q106 0 171.5 -49
t65.5 -131q0 -17 -4 -30l-10 -10h-80l-10 10q4 20 4 30q0 90 -147 90q-30 0 -57.5 -5t-53 -16.5t-41 -34.5t-15.5 -54q0 -44 38 -66.5t134 -43.5q99 -22 152 -68.5t53 -131.5q0 -98 -73 -150t-190 -59l-24 -11l-59 -50h10q22 10 42 10q21 0 35 -14.5t14 -41.5
q0 -47 -32 -70.5t-84 -23.5q-30 0 -47 8.5t-35 31.5l1 10l10 10h12q12 -14 25.5 -17t41.5 -3q24 0 41 12.5t17 36.5q0 31 -44 31q-20 0 -42 -10z" />
    <glyph glyph-name="scedilla" unicode="&#x15f;" horiz-adv-x="460" 
d="M110 -100h-10l-10 10l1 10l71 60l2 12q-71 8 -112.5 44.5t-41.5 93.5q0 15 4 30l11 10h80l9 -10q-3 -9 -3 -20q0 -60 89 -60q46 0 79 17t33 59q0 26 -24 37.5t-94 26.5q-64 14 -100 49t-36 86q0 75 58 115t144 40q82 0 131 -35t49 -95l-2 -20l-12 -10h-80l-8 10q2 5 2 15
q0 19 -19 32t-61 13q-100 0 -100 -65q0 -27 25.5 -38.5t101.5 -26.5q61 -13 93.5 -48.5t32.5 -85.5q0 -76 -52 -116.5t-132 -47.5l-25 -12l-59 -50h10q22 10 42 10q21 0 35 -14.5t14 -41.5q0 -47 -32 -70.5t-84 -23.5q-30 0 -47 8.5t-35 31.5l1 10l10 10h12q12 -14 25.5 -17
t41.5 -3q24 0 41 12.5t17 36.5q0 31 -44 31q-20 0 -42 -10z" />
    <glyph glyph-name="Scaron" unicode="&#x160;" horiz-adv-x="630" 
d="M263 890l10 10h44l20 -10l59 -60h21l80 60l20 10h56l10 -10l-4 -20l-107 -100l-20 -10h-100l-20 10l-73 100zM581 200q0 -72 -42.5 -120.5t-108 -69t-149.5 -20.5q-122 0 -186 56.5t-64 143.5q0 16 3 30l10 10h81l9 -10q-3 -14 -3 -30q0 -53 40.5 -81.5t119.5 -28.5
q86 0 138 31t52 89q0 50 -36.5 74.5t-132.5 45.5q-100 22 -154 65.5t-54 124.5q0 95 76.5 147.5t200.5 52.5q106 0 171.5 -49t65.5 -131q0 -17 -4 -30l-10 -10h-80l-10 10q4 20 4 30q0 90 -147 90q-30 0 -57.5 -5t-53 -16.5t-41 -34.5t-15.5 -54q0 -44 38 -66.5t134 -43.5
q99 -22 152 -68.5t53 -131.5z" />
    <glyph glyph-name="scaron" unicode="&#x161;" horiz-adv-x="460" 
d="M147 690l10 10h44l20 -10l59 -60h21l80 60l20 10h56l10 -10l-4 -20l-107 -100l-20 -10h-100l-20 10l-73 100zM413 156q0 -83 -61 -124.5t-152 -41.5q-86 0 -138 38t-52 102q0 15 4 30l11 10h80l9 -10q-3 -9 -3 -20q0 -60 89 -60q46 0 79 17t33 59q0 26 -24 37.5t-94 26.5
q-64 14 -100 49t-36 86q0 75 58 115t144 40q82 0 131 -35t49 -95l-2 -20l-12 -10h-80l-8 10q2 5 2 15q0 19 -19 32t-61 13q-100 0 -100 -65q0 -27 25.5 -38.5t101.5 -26.5q61 -13 93.5 -48.5t32.5 -85.5z" />
    <glyph glyph-name="Tcommaaccent" unicode="&#x162;" horiz-adv-x="600" 
d="M645 620l-10 -10h-213l-10 -10l-104 -590l-10 -10h-81l-10 10l104 590l-10 10h-206l-10 10l12 70l10 10h540l10 -10zM284 -130l-16 -30l-59 -50l-20 -10h-22l1 10l51 60l2 10l-10 10h-17l-10 10l13 70l10 10h81l10 -10z" />
    <glyph glyph-name="tcommaaccent" unicode="&#x163;" horiz-adv-x="380" 
d="M297 10l-10 -10h-81q-51 0 -84.5 31t-33.5 83q0 18 4 38l44 248l-10 10h-66l-10 10l12 70l10 10h73l10 10l16 90l10 10h81l10 -10l-16 -90l10 -10h107l10 -10l-12 -70l-10 -10h-114l-10 -10l-46 -259q-2 -10 -2 -21q0 -30 34 -30h77l10 -10zM194 -130l-16 -30l-59 -50
l-20 -10h-22l1 10l51 60l2 10l-10 10h-17l-10 10l13 70l10 10h81l10 -10z" />
    <glyph glyph-name="Tcaron" unicode="&#x164;" horiz-adv-x="600" 
d="M645 620l-10 -10h-213l-10 -10l-104 -590l-10 -10h-81l-10 10l104 590l-10 10h-206l-10 10l12 70l10 10h540l10 -10zM253 890l10 10h44l20 -10l59 -60h21l80 60l20 10h56l10 -10l-4 -20l-107 -100l-20 -10h-100l-20 10l-73 100z" />
    <glyph glyph-name="tcaron" unicode="&#x165;" horiz-adv-x="380" 
d="M297 10l-10 -10h-81q-51 0 -84.5 31t-33.5 83q0 18 4 38l44 248l-10 10h-66l-10 10l12 70l10 10h73l10 10l16 90l10 10h81l10 -10l-16 -90l10 -10h107l10 -10l-12 -70l-10 -10h-114l-10 -10l-46 -259q-2 -10 -2 -21q0 -30 34 -30h77l10 -10zM420 640l-16 -30l-62 -70
l-12 -10h-31l2 10l64 80l2 10l-10 10h-17l-10 10l16 90l10 10h71l10 -10z" />
    <glyph glyph-name="Tbar" unicode="&#x166;" horiz-adv-x="680" 
d="M403 320l-55 -310l-10 -10h-81l-10 10l55 310l-10 10h-167l-10 10l11 60l10 10h174l10 10l31 180l-10 10h-206l-10 10l12 70l10 10h541l10 -10l-12 -70l-10 -10h-214l-10 -10l-31 -180l10 -10h166l10 -10l-11 -60l-10 -10h-173z" />
    <glyph glyph-name="tbar" unicode="&#x167;" horiz-adv-x="380" 
d="M297 10l-10 -10h-81q-51 0 -84.5 31t-33.5 83q0 18 4 38l16 88l-10 10h-57l-10 10l11 60l10 10h63l10 10l11 60l-10 10h-66l-10 10l12 70l10 10h73l10 10l16 90l10 10h81l10 -10l-16 -90l10 -10h107l10 -10l-12 -70l-10 -10h-114l-10 -10l-11 -61l10 -9h87l10 -10
l-11 -60l-10 -10h-93l-10 -10l-18 -99q-2 -10 -2 -21q0 -30 34 -30h77l10 -10z" />
    <glyph glyph-name="Utilde" unicode="&#x168;" horiz-adv-x="700" 
d="M697 690l-77 -440q-22 -127 -95.5 -193.5t-217.5 -66.5q-107 0 -169.5 55t-62.5 151q0 22 5 54l77 440l10 10h81l10 -10l-77 -440q-5 -32 -5 -53q0 -57 32.5 -87t109.5 -30q92 0 139 44.5t62 125.5l77 440l10 10h81zM517 750q-34 0 -60 17.5t-43.5 35t-33.5 17.5
q-41 0 -49 -50l-10 -10h-30l-10 10q18 110 109 110q34 0 60 -17.5t44 -35t34 -17.5q39 0 49 50l10 10h30l10 -10q-20 -110 -110 -110z" />
    <glyph glyph-name="utilde" unicode="&#x169;" horiz-adv-x="530" 
d="M428 10l-10 -10h-71l-10 10l-3 40h-10q-37 -60 -120 -60q-78 0 -123.5 43.5t-45.5 108.5q0 28 5 58l51 290l10 10h81l10 -10l-51 -290q-3 -15 -3 -35q0 -38 20.5 -61.5t61.5 -23.5q55 0 95 42t55 128l42 240l10 10h81l10 -10zM392 550q-34 0 -60 17.5t-43.5 35
t-33.5 17.5q-41 0 -49 -50l-10 -10h-30l-10 10q18 110 109 110q34 0 60 -17.5t44 -35t34 -17.5q39 0 49 50l10 10h30l10 -10q-20 -110 -110 -110z" />
    <glyph glyph-name="Umacron" unicode="&#x16a;" horiz-adv-x="700" 
d="M697 690l-77 -440q-22 -127 -95.5 -193.5t-217.5 -66.5q-107 0 -169.5 55t-62.5 151q0 22 5 54l77 440l10 10h81l10 -10l-77 -440q-5 -32 -5 -53q0 -57 32.5 -87t109.5 -30q92 0 139 44.5t62 125.5l77 440l10 10h81zM605 790l-10 -10h-300l-10 10l10 60l10 10h300l10 -10
z" />
    <glyph glyph-name="umacron" unicode="&#x16b;" horiz-adv-x="530" 
d="M428 10l-10 -10h-71l-10 10l-3 40h-10q-37 -60 -120 -60q-78 0 -123.5 43.5t-45.5 108.5q0 28 5 58l51 290l10 10h81l10 -10l-51 -290q-3 -15 -3 -35q0 -38 20.5 -61.5t61.5 -23.5q55 0 95 42t55 128l42 240l10 10h81l10 -10zM480 590l-10 -10h-300l-10 10l10 60l10 10
h300l10 -10z" />
    <glyph glyph-name="Ubreve" unicode="&#x16c;" horiz-adv-x="700" 
d="M697 690l-77 -440q-22 -127 -95.5 -193.5t-217.5 -66.5q-107 0 -169.5 55t-62.5 151q0 22 5 54l77 440l10 10h81l10 -10l-77 -440q-5 -32 -5 -53q0 -57 32.5 -87t109.5 -30q92 0 139 44.5t62 125.5l77 440l10 10h81zM381 890l10 -10q-1 -5 -1 -15q0 -21 16.5 -33
t44.5 -12q31 0 52.5 15.5t26.5 44.5l10 10h51l10 -10q-11 -60 -50.5 -95t-99.5 -35q-65 0 -98.5 32t-33.5 83q0 10 1 15l10 10h51z" />
    <glyph glyph-name="ubreve" unicode="&#x16d;" horiz-adv-x="530" 
d="M428 10l-10 -10h-71l-10 10l-3 40h-10q-37 -60 -120 -60q-78 0 -123.5 43.5t-45.5 108.5q0 28 5 58l51 290l10 10h81l10 -10l-51 -290q-3 -15 -3 -35q0 -38 20.5 -61.5t61.5 -23.5q55 0 95 42t55 128l42 240l10 10h81l10 -10zM255 690l10 -10q-1 -5 -1 -15
q0 -21 16.5 -33t44.5 -12q31 0 52.5 15.5t26.5 44.5l10 10h51l10 -10q-11 -60 -50.5 -95t-99.5 -35q-65 0 -98.5 32t-33.5 83q0 10 1 15l10 10h51z" />
    <glyph glyph-name="Uring" unicode="&#x16e;" horiz-adv-x="700" 
d="M697 690l-77 -440q-22 -127 -95.5 -193.5t-217.5 -66.5q-107 0 -169.5 55t-62.5 151q0 22 5 54l77 440l10 10h81l10 -10l-77 -440q-5 -32 -5 -53q0 -57 32.5 -87t109.5 -30q92 0 139 44.5t62 125.5l77 440l10 10h81zM549 822q0 -44 -30 -73t-78 -29q-44 0 -69 22.5
t-25 55.5q0 44 30 73t78 29q44 0 69 -22.5t25 -55.5zM489 822q0 28 -34 28q-18 0 -33 -13.5t-15 -38.5q0 -28 34 -28q18 0 33 13.5t15 38.5z" />
    <glyph glyph-name="uring" unicode="&#x16f;" horiz-adv-x="530" 
d="M428 10l-10 -10h-71l-10 10l-3 40h-10q-37 -60 -120 -60q-78 0 -123.5 43.5t-45.5 108.5q0 28 5 58l51 290l10 10h81l10 -10l-51 -290q-3 -15 -3 -35q0 -38 20.5 -61.5t61.5 -23.5q55 0 95 42t55 128l42 240l10 10h81l10 -10zM429 652q0 -44 -30 -73t-78 -29
q-44 0 -69 22.5t-25 55.5q0 44 30 73t78 29q44 0 69 -22.5t25 -55.5zM369 652q0 28 -34 28q-18 0 -33 -13.5t-15 -38.5q0 -28 34 -28q18 0 33 13.5t15 38.5z" />
    <glyph glyph-name="Uhungarumlaut" unicode="&#x170;" horiz-adv-x="700" 
d="M697 690l-77 -440q-22 -127 -95.5 -193.5t-217.5 -66.5q-107 0 -169.5 55t-62.5 151q0 22 5 54l77 440l10 10h81l10 -10l-77 -440q-5 -32 -5 -53q0 -57 32.5 -87t109.5 -30q92 0 139 44.5t62 125.5l77 440l10 10h81zM483 870l-128 -100l-20 -10h-54l-10 10l4 20l107 100
l20 10h74l10 -10zM679 870l-128 -100l-20 -10h-54l-10 10l4 20l107 100l20 10h74l10 -10z" />
    <glyph glyph-name="uhungarumlaut" unicode="&#x171;" horiz-adv-x="530" 
d="M428 10l-10 -10h-71l-10 10l-3 40h-10q-37 -60 -120 -60q-78 0 -123.5 43.5t-45.5 108.5q0 28 5 58l51 290l10 10h81l10 -10l-51 -290q-3 -15 -3 -35q0 -38 20.5 -61.5t61.5 -23.5q55 0 95 42t55 128l42 240l10 10h81l10 -10zM368 670l-128 -100l-20 -10h-54l-10 10l4 20
l107 100l20 10h74l10 -10zM564 670l-128 -100l-20 -10h-54l-10 10l4 20l107 100l20 10h74l10 -10z" />
    <glyph glyph-name="Uogonek" unicode="&#x172;" horiz-adv-x="700" 
d="M697 690l-77 -440q-9 -55 -28.5 -98t-39.5 -67.5t-50.5 -44t-50 -27.5t-50.5 -18q-91 -29 -91 -85q0 -18 11.5 -29t31.5 -11q13 0 26 2.5t19 5.5l6 2l9 -10l-7 -40l-12 -10q-29 -20 -69 -20q-41 0 -70 25t-29 62q0 61 66 94l2 9q-101 4 -160 59t-59 147q0 22 5 54l77 440
l10 10h81l10 -10l-77 -440q-5 -32 -5 -53q0 -57 32.5 -87t109.5 -30q92 0 139 44.5t62 125.5l77 440l10 10h81z" />
    <glyph glyph-name="uogonek" unicode="&#x173;" horiz-adv-x="530" 
d="M428 10l-10 -10q-26 -4 -50.5 -13t-46 -29.5t-21.5 -47.5q0 -18 11.5 -29t31.5 -11q13 0 26 2.5t19 5.5l6 2l9 -10l-7 -40l-12 -10q-29 -20 -69 -20q-41 0 -70 25t-29 62q0 47 34 79.5t87 43.5l-3 40h-10q-37 -60 -120 -60q-78 0 -123.5 43.5t-45.5 108.5q0 28 5 58
l51 290l10 10h81l10 -10l-51 -290q-3 -15 -3 -35q0 -38 20.5 -61.5t61.5 -23.5q55 0 95 42t55 128l42 240l10 10h81l10 -10z" />
    <glyph glyph-name="Wcircumflex" unicode="&#x174;" horiz-adv-x="930" 
d="M711 770l-10 -10h-45l-20 10l-59 60h-11l-80 -60l-20 -10h-55l-10 10l4 20l107 100l20 10h90l20 -10l73 -100zM955 620l-268 -610l-10 -10h-89l-10 10l-57 530h-10l-244 -530l-10 -10h-90l-10 10l-52 610l12 70l10 10h61l10 -10l40 -510h10l237 510l10 10h90l10 -10
l57 -510h10l217 510l10 10h68l10 -10z" />
    <glyph glyph-name="wcircumflex" unicode="&#x175;" horiz-adv-x="750" 
d="M586 570l-10 -10h-45l-20 10l-59 60h-11l-80 -60l-20 -10h-55l-10 10l4 20l107 100l20 10h90l20 -10l73 -100zM740 420l-193 -410l-10 -10h-90l-10 10l-38 350h-10l-162 -350l-10 -10h-90l-10 10l-47 410l12 70l10 10h57l10 -10l30 -340h10l155 340l10 10h95l10 -10
l36 -340h10l150 340l10 10h67l10 -10z" />
    <glyph glyph-name="Ycircumflex" unicode="&#x176;" 
d="M615 620l-269 -340l-48 -270l-10 -10h-81l-10 10l48 270l-150 340l12 70l10 10h44l10 -10l126 -300h20l231 300l20 10h49l10 -10zM541 770l-10 -10h-45l-20 10l-59 60h-21l-80 -60l-20 -10h-55l-10 10l4 20l107 100l20 10h100l20 -10l73 -100z" />
    <glyph glyph-name="ycircumflex" unicode="&#x177;" horiz-adv-x="510" 
d="M511 420l-242 -420q-58 -102 -99.5 -131t-128.5 -29h-32l-10 10l12 70l10 10h20q47 0 69.5 11.5t43.5 48.5l2 10l-96 420l12 70l10 10h54l10 -10l77 -370h10l203 370l10 10h67l10 -10zM476 570l-10 -10h-45l-20 10l-59 60h-21l-80 -60l-20 -10h-55l-10 10l4 20l107 100
l20 10h100l20 -10l73 -100z" />
    <glyph glyph-name="Ydieresis" unicode="&#x178;" 
d="M615 620l-269 -340l-48 -270l-10 -10h-81l-10 10l48 270l-150 340l12 70l10 10h44l10 -10l126 -300h20l231 300l20 10h49l10 -10zM345 790l-10 -10h-81l-10 10l14 80l10 10h81l10 -10zM526 790l-10 -10h-81l-10 10l14 80l10 10h81l10 -10z" />
    <glyph glyph-name="Zacute" unicode="&#x179;" horiz-adv-x="600" 
d="M507 10l-10 -10h-480l-10 10l14 80l10 20l432 490l1 10h-329l-10 10l12 70l10 10h450l10 -10l-14 -80l-10 -20l-433 -490l-1 -10h361l10 -10zM521 870l-128 -100l-20 -10h-54l-10 10l4 20l107 100l20 10h74l10 -10z" />
    <glyph glyph-name="zacute" unicode="&#x17a;" horiz-adv-x="500" 
d="M417 10l-10 -10h-400l-10 10l14 80l14 20l314 290l2 10h-251l-10 10l12 70l10 10h380l10 -10l-14 -80l-14 -20l-314 -290l-2 -10h272l10 -10zM446 670l-128 -100l-20 -10h-54l-10 10l4 20l107 100l20 10h74l10 -10z" />
    <glyph glyph-name="Zdotaccent" unicode="&#x17b;" horiz-adv-x="600" 
d="M507 10l-10 -10h-480l-10 10l14 80l10 20l432 490l1 10h-329l-10 10l12 70l10 10h450l10 -10l-14 -80l-10 -20l-433 -490l-1 -10h361l10 -10zM445 790l-10 -10h-81l-10 10l14 80l10 10h81l10 -10z" />
    <glyph glyph-name="zdotaccent" unicode="&#x17c;" horiz-adv-x="500" 
d="M417 10l-10 -10h-400l-10 10l14 80l14 20l314 290l2 10h-251l-10 10l12 70l10 10h380l10 -10l-14 -80l-14 -20l-314 -290l-2 -10h272l10 -10zM360 590l-10 -10h-81l-10 10l14 80l10 10h81l10 -10z" />
    <glyph glyph-name="Zcaron" unicode="&#x17d;" horiz-adv-x="600" 
d="M253 890l10 10h44l20 -10l59 -60h21l80 60l20 10h56l10 -10l-4 -20l-107 -100l-20 -10h-100l-20 10l-73 100zM507 10l-10 -10h-480l-10 10l14 80l10 20l432 490l1 10h-329l-10 10l12 70l10 10h450l10 -10l-14 -80l-10 -20l-433 -490l-1 -10h361l10 -10z" />
    <glyph glyph-name="zcaron" unicode="&#x17e;" horiz-adv-x="500" 
d="M417 10l-10 -10h-400l-10 10l14 80l14 20l314 290l2 10h-251l-10 10l12 70l10 10h380l10 -10l-14 -80l-14 -20l-314 -290l-2 -10h272l10 -10zM188 690l10 10h44l20 -10l59 -60h21l80 60l20 10h56l10 -10l-4 -20l-107 -100l-20 -10h-100l-20 10l-73 100z" />
    <glyph glyph-name="longs" unicode="&#x17f;" horiz-adv-x="370" 
d="M177 10l-10 -10h-81l-10 10l69 390l-10 10h-66l-10 10l12 70l10 10h73l10 10l7 40q23 130 153 130h90l10 -10l-13 -70l-10 -10h-81q-41 0 -48 -40z" />
    <glyph glyph-name="uni018F" unicode="&#x18f;" horiz-adv-x="660" 
d="M300 80q86 0 144 57.5t83 152.5l-10 10h-361l-10 -10q-3 -18 -3 -36q0 -79 39.5 -126.5t117.5 -47.5zM196 500h-92l-10 10q35 66 70 106.5t93.5 67t137.5 26.5q120 0 189.5 -74t69.5 -193q0 -43 -9 -93q-29 -166 -115 -263t-230 -97q-122 0 -191.5 75t-69.5 188
q0 47 8 96l5 31l10 10h474l10 10q4 16 4 42q0 83 -38.5 130.5t-116.5 47.5q-71 0 -113 -26.5t-76 -83.5z" />
    <glyph glyph-name="florin" unicode="&#x192;" 
d="M455 560l-19 -50l10 -10h127l10 -10l-11 -60l-10 -10h-153l-10 -10l-170 -450q-30 -82 -75 -121t-130 -39h-32l-10 10l11 60l10 10h21q42 0 65.5 19.5t38.5 60.5l170 450l-10 10h-67l-10 10l11 60l10 10h93l10 10l19 50q29 77 69 108.5t113 31.5h42l10 -10l-10 -60
l-10 -10h-32q-32 0 -49.5 -12t-31.5 -48z" />
    <glyph glyph-name="uni01B5" unicode="&#x1b5;" horiz-adv-x="600" 
d="M534 330l-10 -10h-169l-20 -10l-185 -210l-1 -10h361l10 -10l-13 -70l-10 -10h-480l-10 10l14 80l10 20l176 200l2 10h-105l-10 10l12 70l10 10h169l20 10l158 180l1 10h-329l-10 10l12 70l10 10h450l10 -10l-14 -80l-10 -20l-150 -170l-2 -10h105l10 -10z" />
    <glyph glyph-name="uni01B6" unicode="&#x1b6;" horiz-adv-x="500" 
d="M434 220l-10 -10h-146l-20 -10l-108 -100l-2 -10h272l10 -10l-13 -70l-10 -10h-400l-10 10l14 80l14 20l97 90l2 10h-60l-10 10l11 60l10 10h136l20 10l108 100l2 10h-251l-10 10l12 70l10 10h380l10 -10l-14 -80l-14 -20l-97 -90l-1 -10h69l10 -10z" />
    <glyph glyph-name="Aringacute" unicode="&#x1fa;" horiz-adv-x="630" 
d="M567 10l-10 -10h-57l-10 10l-34 150l-20 10h-270l-20 -10l-86 -150l-10 -10h-62l-10 10l12 70l287 506l1 10q-7 16 -7 32q0 44 30 73t78 29h10q44 0 69 -22.5t25 -55.5q0 -30 -14 -53l-1 -10l111 -509zM435 270l-60 280h-10l-159 -280l10 -10h209zM551 870l-128 -100
l-20 -10h-54l-10 10l4 20l107 100l20 10h74l10 -10zM389 680h-10q-18 0 -33 -13.5t-15 -38.5q0 -28 34 -28h10q18 0 33 13.5t15 38.5q0 28 -34 28z" />
    <glyph glyph-name="aringacute" unicode="&#x1fb;" horiz-adv-x="550" 
d="M354 50h-10q-53 -60 -135 -60t-133.5 58t-51.5 150q0 127 70.5 219.5t187.5 92.5q94 0 133 -60h10l17 40l12 10h71l8 -10l-85 -480l-12 -10h-71l-8 10zM228 80q55 0 95 38t56.5 88t16.5 103q0 54 -27 82.5t-79 28.5q-53 0 -92 -34t-56 -83t-17 -105q0 -57 26.5 -87.5
t76.5 -30.5zM491 870l-128 -100l-20 -10h-54l-10 10l4 20l107 100l20 10h74l10 -10zM417 652q0 -44 -30 -73t-78 -29q-44 0 -69 22.5t-25 55.5q0 44 30 73t78 29q44 0 69 -22.5t25 -55.5zM357 652q0 28 -34 28q-18 0 -33 -13.5t-15 -38.5q0 -28 34 -28q18 0 33 13.5t15 38.5
z" />
    <glyph glyph-name="AEacute" unicode="&#x1fc;" horiz-adv-x="960" 
d="M857 10l-10 -10h-408l-10 10l27 150l-10 10h-255l-20 -10l-107 -150l-20 -10h-57l-10 10l13 70l447 610l20 10h510l10 -10l-12 -70l-10 -10h-311l-10 -10l-33 -190l10 -10h283l10 -10l-12 -70l-10 -10h-291l-10 -10l-35 -200l10 -10h304l10 -10zM475 270l58 330l-10 10
h-15l-20 -10l-238 -330l10 -10h205zM851 870l-128 -100l-20 -10h-54l-10 10l4 20l107 100l20 10h74l10 -10z" />
    <glyph glyph-name="aeacute" unicode="&#x1fd;" horiz-adv-x="830" 
d="M438 450h10q65 60 160 60q97 0 149 -54.5t52 -141.5q0 -31 -6 -64l-6 -30l-11 -10h-333l-12 -10q-1 -4 -1 -17q0 -16 4.5 -31.5t15 -33t35 -28t58.5 -10.5q75 0 110 60l12 10h80l8 -10q-45 -150 -216 -150q-54 0 -100 18.5t-72 51.5h-10q-70 -70 -191 -70q-76 0 -121 41
t-45 101q0 95 70 136.5t182 41.5q22 0 44.5 -2.5t33.5 -5.5l12 -2l10 10l4 20q3 16 3 29q0 34 -20.5 47.5t-66.5 13.5q-100 0 -111 -60l-10 -10h-80l-10 10q5 30 16 53.5t33.5 47t63.5 36.5t98 13q112 0 158 -60zM337 180l6 30l-10 10q-27 10 -77 10q-146 0 -146 -92
q0 -58 80 -58q59 0 98.5 27t48.5 73zM693 290l11 10q3 14 3 28q0 36 -23.5 64t-80.5 28q-38 0 -67.5 -14t-44.5 -35.5t-22.5 -38t-10.5 -32.5l9 -10h226zM616 670l-128 -100l-20 -10h-54l-10 10l4 20l107 100l20 10h74l10 -10z" />
    <glyph glyph-name="Oslashacute" unicode="&#x1fe;" horiz-adv-x="740" 
d="M171 194l405 346l4 20q-49 60 -149 60q-65 0 -119.5 -30.5t-89 -81t-53.5 -112t-19 -126.5q0 -41 11 -76h10zM341 -10q-148 0 -228 91h-10l-48 -41l-22 -10h-12l-8 10l3 23l57 47l4 26q-28 56 -28 134q0 80 25 157.5t71.5 141t121 102.5t164.5 39q148 0 228 -91h10l48 41
l22 10h12l8 -10l-3 -23l-57 -47l-4 -26q28 -56 28 -134q0 -80 -25 -157.5t-71.5 -141t-121 -102.5t-164.5 -39zM601 506l-405 -346l-4 -20q49 -60 149 -60q65 0 119.5 30.5t89 81t53.5 112t19 126.5q0 41 -11 76h-10zM591 870l-128 -100l-20 -10h-54l-10 10l4 20l107 100
l20 10h74l10 -10z" />
    <glyph glyph-name="oslashacute" unicode="&#x1ff;" horiz-adv-x="540" 
d="M239 -10q-105 0 -163 60h-10l-35 -30l-22 -10h-12l-8 10l4 22l50 42l1 10q-21 40 -21 96q0 86 29.5 157t93.5 117t154 46q105 0 163 -60h10l35 30l22 10h12l8 -10l-4 -22l-50 -42l-1 -10q21 -41 21 -96q0 -86 -29.5 -157t-93.5 -117t-154 -46zM239 80q87 0 131.5 67.5
t44.5 162.5q0 18 -2 26h-10l-246 -209l-3 -19q30 -28 85 -28zM136 164l246 209l3 19q-30 28 -85 28q-87 0 -131.5 -67.5t-44.5 -162.5q0 -18 2 -26h10zM468 670l-128 -100l-20 -10h-54l-10 10l4 20l107 100l20 10h74l10 -10z" />
    <glyph glyph-name="Scommaaccent" unicode="&#x218;" horiz-adv-x="630" 
d="M581 200q0 -72 -42.5 -120.5t-108 -69t-149.5 -20.5q-122 0 -186 56.5t-64 143.5q0 16 3 30l10 10h81l9 -10q-3 -14 -3 -30q0 -53 40.5 -81.5t119.5 -28.5q86 0 138 31t52 89q0 50 -36.5 74.5t-132.5 45.5q-100 22 -154 65.5t-54 124.5q0 95 76.5 147.5t200.5 52.5
q106 0 171.5 -49t65.5 -131q0 -17 -4 -30l-10 -10h-80l-10 10q4 20 4 30q0 90 -147 90q-30 0 -57.5 -5t-53 -16.5t-41 -34.5t-15.5 -54q0 -44 38 -66.5t134 -43.5q99 -22 152 -68.5t53 -131.5zM314 -130l-16 -30l-59 -50l-20 -10h-22l1 10l51 60l2 10l-10 10h-17l-10 10
l13 70l10 10h81l10 -10z" />
    <glyph glyph-name="scommaaccent" unicode="&#x219;" horiz-adv-x="460" 
d="M413 156q0 -83 -61 -124.5t-152 -41.5q-86 0 -138 38t-52 102q0 15 4 30l11 10h80l9 -10q-3 -9 -3 -20q0 -60 89 -60q46 0 79 17t33 59q0 26 -24 37.5t-94 26.5q-64 14 -100 49t-36 86q0 75 58 115t144 40q82 0 131 -35t49 -95l-2 -20l-12 -10h-80l-8 10q2 5 2 15
q0 19 -19 32t-61 13q-100 0 -100 -65q0 -27 25.5 -38.5t101.5 -26.5q61 -13 93.5 -48.5t32.5 -85.5zM224 -130l-16 -30l-59 -50l-20 -10h-22l1 10l51 60l2 10l-10 10h-17l-10 10l13 70l10 10h81l10 -10z" />
    <glyph glyph-name="uni021A" unicode="&#x21a;" horiz-adv-x="600" 
d="M645 620l-10 -10h-213l-10 -10l-104 -590l-10 -10h-81l-10 10l104 590l-10 10h-206l-10 10l12 70l10 10h540l10 -10zM284 -130l-16 -30l-59 -50l-20 -10h-22l1 10l51 60l2 10l-10 10h-17l-10 10l13 70l10 10h81l10 -10z" />
    <glyph glyph-name="uni021B" unicode="&#x21b;" horiz-adv-x="380" 
d="M297 10l-10 -10h-81q-51 0 -84.5 31t-33.5 83q0 18 4 38l44 248l-10 10h-66l-10 10l12 70l10 10h73l10 10l16 90l10 10h81l10 -10l-16 -90l10 -10h107l10 -10l-12 -70l-10 -10h-114l-10 -10l-46 -259q-2 -10 -2 -21q0 -30 34 -30h77l10 -10zM241 -130l-16 -30l-59 -50
l-20 -10h-22l1 10l51 60l2 10l-10 10h-17l-10 10l13 70l10 10h81l10 -10z" />
    <glyph glyph-name="uni0259" unicode="&#x259;" horiz-adv-x="520" 
d="M140 210l-11 -10q-3 -14 -3 -28q0 -36 23.5 -64t80.5 -28q38 0 67.5 14t44.5 35.5t22.5 38t10.5 32.5l-9 10h-226zM286 510q99 0 154.5 -57.5t55.5 -147.5q0 -137 -70 -226t-201 -89q-97 0 -149 54.5t-52 141.5q0 31 6 64l6 30l11 10h333l12 10q1 4 1 18q0 16 -4.5 31
t-15 32.5t-35 28t-58.5 10.5q-75 0 -110 -60l-12 -10h-80l-8 10q45 150 216 150z" />
    <glyph glyph-name="circumflex" unicode="&#x2c6;" horiz-adv-x="500" 
d="M466 570l-10 -10h-45l-20 10l-59 60h-21l-80 -60l-20 -10h-55l-10 10l4 20l107 100l20 10h100l20 -10l73 -100z" />
    <glyph glyph-name="caron" unicode="&#x2c7;" horiz-adv-x="500" 
d="M167 690l10 10h44l20 -10l59 -60h21l80 60l20 10h56l10 -10l-4 -20l-107 -100l-20 -10h-100l-20 10l-73 100z" />
    <glyph glyph-name="uni02C9" unicode="&#x2c9;" horiz-adv-x="500" 
d="M470 590l-10 -10h-300l-10 10l10 60l10 10h300l10 -10z" />
    <glyph glyph-name="breve" unicode="&#x2d8;" horiz-adv-x="500" 
d="M245 690l10 -10q-1 -5 -1 -15q0 -21 16.5 -33t44.5 -12q31 0 52.5 15.5t26.5 44.5l10 10h51l10 -10q-11 -60 -50.5 -95t-99.5 -35q-65 0 -98.5 32t-33.5 83q0 10 1 15l10 10h51z" />
    <glyph glyph-name="dotaccent" unicode="&#x2d9;" horiz-adv-x="500" 
d="M360 590l-10 -10h-81l-10 10l14 80l10 10h81l10 -10z" />
    <glyph glyph-name="ring" unicode="&#x2da;" horiz-adv-x="500" 
d="M419 652q0 -44 -30 -73t-78 -29q-44 0 -69 22.5t-25 55.5q0 44 30 73t78 29q44 0 69 -22.5t25 -55.5zM359 652q0 28 -34 28q-18 0 -33 -13.5t-15 -38.5q0 -28 34 -28q18 0 33 13.5t15 38.5z" />
    <glyph glyph-name="ogonek" unicode="&#x2db;" horiz-adv-x="500" 
d="M186 0h80q-43 -7 -79.5 -29t-36.5 -61q0 -18 11.5 -29t31.5 -11q13 0 26 2.5t19 5.5l6 2l9 -10l-7 -40l-12 -10q-29 -20 -69 -20q-41 0 -70 25t-29 62q0 86 120 113z" />
    <glyph glyph-name="tilde" unicode="&#x2dc;" horiz-adv-x="500" 
d="M372 550q-34 0 -60 17.5t-43.5 35t-33.5 17.5q-41 0 -49 -50l-10 -10h-30l-10 10q18 110 109 110q34 0 60 -17.5t44 -35t34 -17.5q39 0 49 50l10 10h30l10 -10q-20 -110 -110 -110z" />
    <glyph glyph-name="hungarumlaut" unicode="&#x2dd;" horiz-adv-x="500" 
d="M328 670l-128 -100l-20 -10h-54l-10 10l4 20l107 100l20 10h74l10 -10zM524 670l-128 -100l-20 -10h-54l-10 10l4 20l107 100l20 10h74l10 -10z" />
    <glyph glyph-name="uni0394" unicode="&#x394;" 
d="M-3 0l-10 10l13 70l307 610l10 10h100l10 -10l93 -610l-13 -70l-9 -10h-501zM338 560l-231 -460l-2 -10h320l2 10l-69 460h-20z" />
    <glyph glyph-name="uni03A9" unicode="&#x3a9;" horiz-adv-x="760" 
d="M171 90l2 10q-53 64 -78.5 119t-25.5 119q0 164 103.5 268t272.5 104q132 0 215 -70t83 -189q0 -113 -51 -190.5t-164 -160.5l-2 -10h124l10 -10l-13 -70l-10 -10h-241l-10 10l14 80l14 20q45 35 69.5 55t59.5 55.5t52.5 66t31 73.5t13.5 91q0 84 -53.5 126.5
t-141.5 42.5q-123 0 -199.5 -78t-76.5 -204q0 -59 25 -109t80 -119l6 -20l-14 -80l-10 -10h-219l-10 10l13 70l10 10h121z" />
    <glyph glyph-name="uni03BC" unicode="&#x3bc;" 
d="M361 30h-10q-42 -40 -102 -40q-31 0 -55.5 10t-33.5 20l-9 10h-10l-39 -220l-10 -10h-81l-10 10l120 680l10 10h81l10 -10l-44 -249q-7 -35 -7 -61q0 -100 89 -100q109 0 136 150l46 260l10 10h81l10 -10l-85 -480l-10 -10h-71l-10 10z" />
    <glyph glyph-name="pi" unicode="&#x3c0;" 
d="M477 10l-10 -10h-161l-10 10l69 390l-10 10h-88l-10 -10l-69 -390l-10 -10h-81l-10 10l69 390l-10 10h-57l-10 10l13 70l10 10h460l10 -10l-13 -70l-10 -10h-73l-10 -10l-53 -300l10 -10h56l10 -10z" />
    <glyph glyph-name="Wgrave" unicode="&#x1e80;" horiz-adv-x="930" 
d="M955 620l-268 -610l-10 -10h-89l-10 10l-57 530h-10l-244 -530l-10 -10h-90l-10 10l-52 610l12 70l10 10h61l10 -10l40 -510h10l237 510l10 10h90l10 -10l57 -510h10l217 510l10 10h68l10 -10zM616 770l-10 -10h-39l-20 10l-92 100l3 20l10 10h59l20 -10l72 -100z" />
    <glyph glyph-name="wgrave" unicode="&#x1e81;" horiz-adv-x="750" 
d="M740 420l-193 -410l-10 -10h-90l-10 10l-38 350h-10l-162 -350l-10 -10h-90l-10 10l-47 410l12 70l10 10h57l10 -10l30 -340h10l155 340l10 10h95l10 -10l36 -340h10l150 340l10 10h67l10 -10zM491 570l-10 -10h-39l-20 10l-92 100l3 20l10 10h59l20 -10l72 -100z" />
    <glyph glyph-name="Wacute" unicode="&#x1e82;" horiz-adv-x="930" 
d="M955 620l-268 -610l-10 -10h-89l-10 10l-57 530h-10l-244 -530l-10 -10h-90l-10 10l-52 610l12 70l10 10h61l10 -10l40 -510h10l237 510l10 10h90l10 -10l57 -510h10l217 510l10 10h68l10 -10zM701 870l-128 -100l-20 -10h-54l-10 10l4 20l107 100l20 10h74l10 -10z" />
    <glyph glyph-name="wacute" unicode="&#x1e83;" horiz-adv-x="750" 
d="M740 420l-193 -410l-10 -10h-90l-10 10l-38 350h-10l-162 -350l-10 -10h-90l-10 10l-47 410l12 70l10 10h57l10 -10l30 -340h10l155 340l10 10h95l10 -10l36 -340h10l150 340l10 10h67l10 -10zM576 670l-128 -100l-20 -10h-54l-10 10l4 20l107 100l20 10h74l10 -10z" />
    <glyph glyph-name="Wdieresis" unicode="&#x1e84;" horiz-adv-x="930" 
d="M515 790l-10 -10h-81l-10 10l14 80l10 10h81l10 -10zM706 790l-10 -10h-81l-10 10l14 80l10 10h81l10 -10zM955 620l-268 -610l-10 -10h-89l-10 10l-57 530h-10l-244 -530l-10 -10h-90l-10 10l-52 610l12 70l10 10h61l10 -10l40 -510h10l237 510l10 10h90l10 -10l57 -510
h10l217 510l10 10h68l10 -10z" />
    <glyph glyph-name="wdieresis" unicode="&#x1e85;" horiz-adv-x="750" 
d="M390 590l-10 -10h-81l-10 10l14 80l10 10h81l10 -10zM581 590l-10 -10h-81l-10 10l14 80l10 10h81l10 -10zM740 420l-193 -410l-10 -10h-90l-10 10l-38 350h-10l-162 -350l-10 -10h-90l-10 10l-47 410l12 70l10 10h57l10 -10l30 -340h10l155 340l10 10h95l10 -10l36 -340
h10l150 340l10 10h67l10 -10z" />
    <glyph glyph-name="uni1E8A" unicode="&#x1e8a;" horiz-adv-x="650" 
d="M568 10l-10 -10h-29l-20 10l-168 268h-10l-254 -268l-20 -10h-50l-10 10l13 70l270 277l2 10l-167 253l12 70l10 10h28l20 -10l161 -255h10l241 255l20 10h50l10 -10l-12 -70l-259 -265l-2 -10l176 -265zM475 790l-10 -10h-91l-10 10l14 80l10 10h91l10 -10z" />
    <glyph glyph-name="uni1E8B" unicode="&#x1e8b;" horiz-adv-x="490" 
d="M417 10l-10 -10h-24l-20 10l-118 168h-10l-167 -168l-20 -10h-51l-10 10l13 70l180 177l1 10l-111 153l12 70l10 10h24l20 -10l110 -156h10l155 156l20 10h51l10 -10l-12 -70l-169 -165l-1 -10l120 -165zM360 590l-10 -10h-91l-10 10l14 80l10 10h91l10 -10z" />
    <glyph glyph-name="Ygrave" unicode="&#x1ef2;" 
d="M615 620l-269 -340l-48 -270l-10 -10h-81l-10 10l48 270l-150 340l12 70l10 10h44l10 -10l126 -300h20l231 300l20 10h49l10 -10zM446 770l-10 -10h-39l-20 10l-92 100l3 20l10 10h59l20 -10l72 -100z" />
    <glyph glyph-name="ygrave" unicode="&#x1ef3;" horiz-adv-x="510" 
d="M511 420l-242 -420q-58 -102 -99.5 -131t-128.5 -29h-32l-10 10l12 70l10 10h20q47 0 69.5 11.5t43.5 48.5l2 10l-96 420l12 70l10 10h54l10 -10l77 -370h10l203 370l10 10h67l10 -10zM371 570l-10 -10h-39l-20 10l-92 100l3 20l10 10h59l20 -10l72 -100z" />
    <glyph glyph-name="endash" unicode="&#x2013;" horiz-adv-x="620" 
d="M554 220l-10 -10h-480l-10 10l13 70l10 10h480l10 -10z" />
    <glyph glyph-name="emdash" unicode="&#x2014;" horiz-adv-x="1120" 
d="M1054 220l-10 -10h-980l-10 10l13 70l10 10h980l10 -10z" />
    <glyph glyph-name="quoteleft" unicode="&#x2018;" horiz-adv-x="280" 
d="M282 690l-76 -90l-1 -10l10 -10h21l10 -10l-18 -100l-10 -10h-100l-10 10l19 110l15 30l75 80l20 10h47z" />
    <glyph glyph-name="quoteright" unicode="&#x2019;" horiz-adv-x="280" 
d="M269 580l-16 -30l-74 -80l-20 -10h-47l2 10l76 90l2 10l-10 10h-22l-10 10l17 100l10 10h101l10 -10z" />
    <glyph glyph-name="quotesinglbase" unicode="&#x201a;" horiz-adv-x="280" 
d="M156 0l-16 -30l-74 -80l-20 -10h-47l2 10l76 90l2 10l-10 10h-22l-10 10l17 100l10 10h101l10 -10z" />
    <glyph glyph-name="quotedblleft" unicode="&#x201c;" horiz-adv-x="480" 
d="M282 690l-76 -90l-1 -10l10 -10h21l10 -10l-18 -100l-10 -10h-100l-10 10l19 110l15 30l75 80l20 10h47zM482 690l-76 -90l-1 -10l10 -10h21l10 -10l-18 -100l-10 -10h-100l-10 10l19 110l15 30l75 80l20 10h47z" />
    <glyph glyph-name="quotedblright" unicode="&#x201d;" horiz-adv-x="480" 
d="M269 581l-16 -30l-74 -80l-20 -10h-47l2 10l76 90l2 10l-10 10h-22l-10 10l17 100l10 10h101l10 -10zM469 581l-16 -30l-74 -80l-20 -10h-47l2 10l76 90l2 10l-10 10h-22l-10 10l17 100l10 10h101l10 -10z" />
    <glyph glyph-name="quotedblbase" unicode="&#x201e;" horiz-adv-x="480" 
d="M157 0l-16 -30l-74 -80l-20 -10h-47l2 10l76 90l2 10l-10 10h-22l-10 10l17 100l10 10h101l10 -10zM357 0l-16 -30l-74 -80l-20 -10h-47l2 10l76 90l2 10l-10 10h-22l-10 10l17 100l10 10h101l10 -10z" />
    <glyph glyph-name="dagger" unicode="&#x2020;" 
d="M263 -190l-10 -10h-81l-10 10l104 590l-10 10h-176l-10 10l12 70l10 10h183l10 10l32 180l10 10h81l10 -10l-32 -180l10 -10h177l10 -10l-12 -70l-10 -10h-184l-10 -10z" />
    <glyph glyph-name="daggerdbl" unicode="&#x2021;" 
d="M317 690l10 10h81l10 -10l-32 -180l10 -10h177l10 -10l-12 -70l-10 -10h-184l-10 -10l-53 -300l10 -10h177l10 -10l-13 -70l-10 -10h-183l-10 -10l-32 -180l-10 -10h-81l-10 10l32 180l-10 10h-177l-10 10l13 70l10 10h183l10 10l55 300l-10 10h-178l-10 10l12 70l10 10
h183l10 10z" />
    <glyph glyph-name="bullet" unicode="&#x2022;" horiz-adv-x="390" 
d="M312 240l-2 -10l-129 -90h-10l-91 130l2 10l129 90h10z" />
    <glyph glyph-name="ellipsis" unicode="&#x2026;" horiz-adv-x="720" 
d="M158 10l-10 -10h-101l-10 10l17 100l10 10h101l10 -10zM378 10l-10 -10h-101l-10 10l17 100l10 10h101l10 -10zM598 10l-10 -10h-101l-10 10l17 100l10 10h101l10 -10z" />
    <glyph glyph-name="perthousand" unicode="&#x2030;" horiz-adv-x="1150" 
d="M1104 223q0 -60 -19 -111t-64.5 -86.5t-110.5 -35.5q-81 0 -118 50h-10q-47 -50 -124 -50q-75 0 -115 41.5t-40 105.5q0 60 19 111t64.5 86.5t110.5 35.5q79 0 117 -50h10q48 50 125 50q75 0 115 -41.5t40 -105.5zM432 563q0 -60 -19 -111t-64.5 -86.5t-110.5 -35.5
q-75 0 -115 41.5t-40 105.5q0 60 19 111t64.5 86.5t110.5 35.5q75 0 115 -41.5t40 -105.5zM745 620l-499 -610l-20 -10h-39l-10 10l13 70l498 610l20 10h39l10 -10zM173 477q0 -67 65 -67q52 0 78 46t26 107q0 67 -65 67q-52 0 -78 -46t-26 -107zM845 137q0 -67 65 -67
q52 0 78 46t26 107q0 67 -65 67q-52 0 -78 -46t-26 -107zM593 137q0 -67 65 -67q52 0 78 46t26 107q0 67 -65 67q-52 0 -78 -46t-26 -107z" />
    <glyph glyph-name="guilsinglleft" unicode="&#x2039;" horiz-adv-x="440" 
d="M323 40l-10 -10h-70l-20 10l-142 172l-7 20l11 60l13 20l176 148l20 10h93l10 -10l-6 -30l-210 -170l-3 -20l150 -170z" />
    <glyph glyph-name="guilsinglright" unicode="&#x203a;" horiz-adv-x="440" 
d="M53 30l-10 10l5 30l210 170l3 20l-150 170l6 30l10 10h67l20 -10l144 -172l7 -20l-11 -60l-13 -20l-174 -148l-20 -10h-94z" />
    <glyph glyph-name="fraction" unicode="&#x2044;" horiz-adv-x="620" 
d="M605 620l-508 -610l-20 -10h-30l-10 10l13 70l507 610l20 10h30l10 -10z" />
    <glyph glyph-name="Euro" unicode="&#x20ac;" horiz-adv-x="710" 
d="M207 230q1 -21 10 -45t26.5 -48.5t50.5 -40.5t76 -16q139 0 190 120l10 10h81l10 -10q-67 -210 -291 -210q-113 0 -184 64t-80 176l-10 10h-65l-10 10l10 60l10 10h63l10 10l6 40l-10 10h-56l-9 10l11 60l10 10h68l10 10q35 108 119 174t201 66q113 0 181.5 -58
t68.5 -152l-10 -10h-80l-10 10q-4 59 -44 89.5t-105 30.5q-87 0 -141.5 -46.5t-74.5 -103.5l10 -10h237l10 -10l-11 -60l-11 -10h-253l-10 -10l-6 -40l10 -10h206l10 -10l-10 -60l-10 -10h-204z" />
    <glyph glyph-name="uni2117" unicode="&#x2117;" horiz-adv-x="840" 
d="M384 380h119q24 0 41.5 18t17.5 44q0 17 -11.5 27.5t-30.5 10.5h-122l-10 -10l-14 -80zM490 310h-122l-10 -10l-24 -140l-10 -10h-61l-10 10l67 380l10 10h191q52 0 87.5 -31t35.5 -77q0 -52 -42 -92t-112 -40zM487 630q-138 0 -236.5 -98.5t-98.5 -234.5
q0 -100 65 -163.5t171 -63.5q138 0 236 98.5t98 234.5q0 100 -64.5 163.5t-170.5 63.5zM70 297q0 107 52.5 201t149.5 153t215 59q140 0 228.5 -86t88.5 -221q0 -107 -52 -201t-149 -153t-215 -59q-141 0 -229.5 86t-88.5 221z" />
    <glyph glyph-name="trademark" unicode="&#x2122;" horiz-adv-x="830" 
d="M96 690l10 10h291l10 -10l-7 -40l-10 -10h-103l-10 -10l-50 -280l-10 -10h-51l-10 10l50 280l-10 10h-97l-10 10zM618 340h-50l-10 10l-45 200h-10l-35 -200l-10 -10h-51l-10 10l60 340l10 10h66l10 -10l56 -250h10l144 250l10 10h76l10 -10l-60 -340l-10 -10h-51l-10 10
l35 200h-10l-115 -200z" />
    <glyph glyph-name="Omega" unicode="&#x2126;" horiz-adv-x="760" 
d="M171 90l2 10q-53 64 -78.5 119t-25.5 119q0 164 103.5 268t272.5 104q132 0 215 -70t83 -189q0 -113 -51 -190.5t-164 -160.5l-2 -10h124l10 -10l-13 -70l-10 -10h-241l-10 10l14 80l14 20q45 35 69.5 55t59.5 55.5t52.5 66t31 73.5t13.5 91q0 84 -53.5 126.5
t-141.5 42.5q-123 0 -199.5 -78t-76.5 -204q0 -59 25 -109t80 -119l6 -20l-14 -80l-10 -10h-219l-10 10l13 70l10 10h121z" />
    <glyph glyph-name="arrowleft" unicode="&#x2190;" horiz-adv-x="860" 
d="M366 500h86l10 -10l-2 -10l-211 -180l-2 -10h528l10 -10l-11 -60l-10 -10h-533l-2 -10l148 -180l-2 -10l-10 -10h-71l-19 10l-197 237l3 20l263 223z" />
    <glyph glyph-name="arrowup" unicode="&#x2191;" horiz-adv-x="660" 
d="M613 439l-12 -69l-12 -10h-10l-148 180h-10l-94 -530l-11 -10h-61l-9 10l94 530h-10l-212 -180h-9l-8 10l16 88l13 20l261 222h18l197 -241z" />
    <glyph glyph-name="arrowright" unicode="&#x2192;" horiz-adv-x="860" 
d="M493 0h-86l-10 10l2 10l211 180l2 10h-528l-10 10l11 60l10 10h533l2 10l-148 180l2 10l10 10h71l19 -10l197 -237l-3 -20l-263 -223z" />
    <glyph glyph-name="arrowdown" unicode="&#x2193;" horiz-adv-x="660" 
d="M80 261l12 69l12 10h10l148 -180h10l94 530l11 10h61l9 -10l-94 -530h10l212 180h9l8 -10l-16 -88l-13 -20l-261 -222h-18l-197 241z" />
    <glyph glyph-name="arrowboth" unicode="&#x2194;" horiz-adv-x="1060" 
d="M693 0h-86l-10 10l2 10l211 180l2 10h-581l-2 -10l148 -180l-2 -10l-10 -10h-71l-19 10l-197 237l3 20l263 223l22 10h86l10 -10l-2 -10l-211 -180l-2 -10h581l2 10l-148 180l2 10l10 10h71l19 -10l197 -237l-3 -20l-263 -223z" />
    <glyph glyph-name="arrowupdn" unicode="&#x2195;" horiz-adv-x="660" 
d="M45 61l12 69l12 10h10l148 -180h10l103 580h-10l-212 -180h-9l-8 10l16 88l13 20l261 222h18l197 -241l7 -20l-12 -69l-12 -10h-10l-148 180h-10l-103 -580h10l212 180h9l8 -10l-16 -88l-13 -20l-261 -222h-18l-197 241z" />
    <glyph glyph-name="uni2196" unicode="&#x2196;" horiz-adv-x="690" 
d="M517 690l41 -50l-1 -10l-10 -10h-252l-2 -10l313 -380l-2 -10l-53 -45h-10l-313 380h-10l-45 -255l-10 -10h-16l-42 50l-6 20l56 320l24 20h320z" />
    <glyph glyph-name="uni2197" unicode="&#x2197;" horiz-adv-x="690" 
d="M268 640l59 50l22 10h320l16 -20l-56 -320l-14 -20l-58 -50h-12l-9 10l44 250h-10l-447 -380h-9l-46 56l2 10l440 374l2 10h-237l-8 10z" />
    <glyph glyph-name="uni2198" unicode="&#x2198;" horiz-adv-x="690" 
d="M207 10l-41 50l1 10l10 10h252l2 10l-313 380l2 10l53 45h10l313 -380h10l45 255l10 10h16l42 -50l6 -20l-56 -320l-24 -20h-320z" />
    <glyph glyph-name="uni2199" unicode="&#x2199;" horiz-adv-x="690" 
d="M456 60l-59 -50l-22 -10h-320l-16 20l56 320l14 20l58 50h12l9 -10l-44 -250h10l447 380h9l46 -56l-2 -10l-440 -374l-2 -10h237l8 -10z" />
    <glyph glyph-name="partialdiff" unicode="&#x2202;" 
d="M428 470h10q0 28 -6.5 54t-21 51t-43.5 40t-70 15q-27 0 -53 -5t-38 -10l-13 -5l-8 10l10 60l12 10q39 20 94 20q116 0 176.5 -72t60.5 -209q0 -62 -5.5 -116.5t-23.5 -116t-47 -105t-80 -72.5t-118 -29q-89 0 -149.5 53.5t-60.5 148.5q0 82 27 152.5t87 118t143 47.5
q71 0 117 -40zM264 80q80 0 120.5 68t40.5 159q0 113 -109 113q-78 0 -120 -69t-42 -159q0 -58 31 -85t79 -27z" />
    <glyph glyph-name="Delta" unicode="&#x2206;" 
d="M-3 0l-10 10l13 70l307 610l10 10h100l10 -10l93 -610l-13 -70l-9 -10h-501zM338 560l-231 -460l-2 -10h320l2 10l-69 460h-20z" />
    <glyph glyph-name="product" unicode="&#x220f;" 
d="M372 -190l-10 -10h-81l-10 10l139 790l-10 10h-98l-10 -10l-139 -790l-10 -10h-81l-10 10l139 790l-10 10h-66l-10 10l12 70l10 10h480l10 -10l-12 -70l-10 -10h-74l-10 -10z" />
    <glyph glyph-name="summation" unicode="&#x2211;" 
d="M478 -30l10 -10l-26 -150l-10 -10h-480l-10 10l14 80l14 20l301 352l1 10l-174 318l-6 20l14 80l10 10h461l10 -10l-26 -150l-10 -10h-81l-10 10l10 60l-10 10h-256l-2 -10l158 -290l7 -20l-13 -70l-13 -20l-253 -300l-2 -10h261l10 10l10 60l10 10h81z" />
    <glyph glyph-name="minus" unicode="&#x2212;" horiz-adv-x="560" 
d="M494 220l-10 -10h-420l-10 10l13 70l10 10h420l10 -10z" />
    <glyph glyph-name="uni2215" unicode="&#x2215;" horiz-adv-x="620" 
d="M605 620l-508 -610l-20 -10h-30l-10 10l13 70l507 610l20 10h30l10 -10z" />
    <glyph glyph-name="uni2219" unicode="&#x2219;" horiz-adv-x="280" 
d="M194 210l-10 -10h-101l-10 10l17 100l10 10h101l10 -10z" />
    <glyph glyph-name="radical" unicode="&#x221a;" 
d="M198 150l255 540l20 10h144l10 -10l-10 -60l-10 -10h-74l-20 -10l-286 -600l-10 -10h-90l-10 10l-47 410l12 70l10 10h56l10 -10l30 -340h10z" />
    <glyph glyph-name="infinity" unicode="&#x221e;" horiz-adv-x="710" 
d="M358 230h-10q-35 -30 -56 -46t-60.5 -35t-74.5 -19q-53 0 -85.5 30t-32.5 79q0 65 45.5 108t114.5 43q32 0 65 -18.5t51 -36.5t40 -45h10q35 30 56 46t61 35t74 19q53 0 85 -29.5t32 -78.5q0 -65 -45 -108.5t-114 -43.5q-74 0 -156 100zM199 360q-51 0 -85.5 -35
t-34.5 -86q0 -36 22 -57.5t61 -21.5q28 0 62 17t53 32t53 44l3 20q-22 26 -37 41.5t-42 30.5t-55 15zM551 360q-28 0 -62 -17t-53 -32t-53 -44l-3 -20q22 -26 37 -41.5t42 -30.5t55 -15q52 0 85.5 35t33.5 87q0 36 -21.5 57t-60.5 21z" />
    <glyph glyph-name="integral" unicode="&#x222b;" 
d="M158 -30l179 560q32 102 79 136t128 34h53l10 -10l-22 -70l-10 -10h-31q-43 0 -64.5 -15t-37.5 -65l-179 -560q-32 -100 -78 -135t-129 -35h-34l-10 10l22 70l10 10h12q43 0 64.5 15t37.5 65z" />
    <glyph glyph-name="approxequal" unicode="&#x2248;" 
d="M191 380q-28 0 -42.5 -19.5t-21.5 -60.5l-10 -10h-60l-10 10q32 180 172 180q39 0 72 -19t52 -41t42 -41t43 -19q28 0 42.5 19.5t21.5 60.5l10 10h60l10 -10q-32 -180 -172 -180q-39 0 -72 19t-52 41t-42 41t-43 19zM150 140q-28 0 -42.5 -19.5t-21.5 -60.5l-10 -10h-60
l-10 10q32 180 172 180q39 0 72 -19t52 -41t42 -41t43 -19q28 0 42.5 19.5t21.5 60.5l10 10h60l10 -10q-32 -180 -172 -180q-39 0 -72 19t-52 41t-42 41t-43 19z" />
    <glyph glyph-name="notequal" unicode="&#x2260;" 
d="M448 480l10 10h24l10 -10l-3 -20l-51 -60l-2 -10h87l10 -10l-13 -70l-10 -10h-141l-20 -10l-64 -80l-2 -10h206l10 -10l-12 -70l-10 -10h-262l-20 -10l-64 -80l-10 -10h-24l-10 10l4 20l50 60l2 10h-86l-10 10l12 70l10 10h142l20 10l64 80l1 10h-206l-10 10l13 70l10 10
h261l20 10z" />
    <glyph glyph-name="lessequal" unicode="&#x2264;" 
d="M467 10l-10 -10h-430l-10 10l13 70l10 10h430l10 -10zM81 370l10 10l353 120h98l10 -10l-8 -45l-10 -10l-341 -110l-4 -20l299 -110l10 -10l-6 -35l-10 -10h-102l-307 120l-10 10z" />
    <glyph glyph-name="greaterequal" unicode="&#x2265;" 
d="M27 0l-10 10l13 70l10 10h430l10 -10l-13 -70l-10 -10h-430zM521 380l10 -10l-18 -100l-10 -10l-353 -120h-98l-10 10l8 45l10 10l341 110l4 20l-299 110l-10 10l6 35l10 10h102z" />
    <glyph glyph-name="lozenge" unicode="&#x25ca;" 
d="M553 363l-11 -60l-248 -293l-20 -10h-60l-10 10l-142 327l11 60l249 293l20 10h60l10 -10zM164 360l-4 -20l93 -210h20l177 210l4 20l-93 210h-20z" />
    <glyph glyph-name="uniFB00" unicode="&#xfb00;" horiz-adv-x="680" 
d="M670 410h-104l-10 -10l-69 -390l-10 -10h-81l-10 10l69 390l-10 10h-189l-10 -10l-69 -390l-10 -10h-81l-10 10l69 390l-10 10h-66l-10 10l12 70l10 10h73l10 10l7 40q23 130 153 130h90l10 -10l-13 -70l-10 -10h-81q-40 0 -48 -40l-7 -40l10 -10h189l10 10l7 40
q23 130 153 130h90l10 -10l-13 -70l-10 -10h-81q-40 0 -48 -40l-7 -40l10 -10h97l10 -10l-12 -70z" />
    <glyph glyph-name="fi" unicode="&#xfb01;" horiz-adv-x="589" 
d="M488 10l-10 -10h-81l-10 10l68 390l-10 10h-189l-10 -10l-69 -390l-10 -10h-81l-10 10l69 390l-10 10h-66l-10 10l12 70l10 10h73l10 10l7 40q23 130 153 130h90l10 -10l-13 -70l-10 -10h-81q-40 0 -48 -40l-7 -40l10 -10h287l10 -10zM589 590l-10 -10h-81l-10 10l14 80
l10 10h81l10 -10z" />
    <glyph glyph-name="fl" unicode="&#xfb02;" horiz-adv-x="589" 
d="M487 10l-10 -10h-81l-10 10l69 390l-10 10h-189l-10 -10l-69 -390l-10 -10h-81l-10 10l69 390l-10 10h-66l-10 10l12 70l10 10h73l10 10l7 40q23 130 153 130h90l10 -10l-13 -70l-10 -10h-81q-40 0 -48 -40l-7 -40l10 -10h189l10 10l32 180l10 10h81l10 -10z" />
    <glyph glyph-name="uniFB03" unicode="&#xfb03;" horiz-adv-x="899" 
d="M798 10l-10 -10h-81l-10 10l68 390l-10 10h-189l-10 -10l-69 -390l-10 -10h-81l-10 10l69 390l-10 10h-189l-10 -10l-69 -390l-10 -10h-81l-10 10l69 390l-10 10h-66l-10 10l12 70l10 10h73l10 10l7 40q23 130 153 130h90l10 -10l-13 -70l-10 -10h-81q-40 0 -48 -40
l-7 -40l10 -10h189l10 10l7 40q23 130 153 130h90l10 -10l-13 -70l-10 -10h-81q-40 0 -48 -40l-7 -40l10 -10h287l10 -10zM899 590l-10 -10h-81l-10 10l14 80l10 10h81l10 -10z" />
    <glyph glyph-name="uniFB04" unicode="&#xfb04;" horiz-adv-x="900" 
d="M575 510l10 -10h189l10 10l32 180l10 10h81l10 -10l-120 -680l-10 -10h-81l-10 10l69 390l-10 10h-189l-10 -10l-69 -390l-10 -10h-81l-10 10l69 390l-10 10h-189l-10 -10l-69 -390l-10 -10h-81l-10 10l69 390l-10 10h-66l-10 10l12 70l10 10h73l10 10l7 40
q23 130 153 130h90l10 -10l-13 -70l-10 -10h-81q-40 0 -48 -40l-7 -40l10 -10h189l10 10l7 40q23 130 153 130h90l10 -10l-13 -70l-10 -10h-81q-40 0 -48 -40z" />
    <glyph glyph-name="i.latn_TRK" horiz-adv-x="220" 
d="M220 590l-10 -10h-81l-10 10l14 80l10 10h81l10 -10zM118 10l-10 -10h-81l-10 10l85 480l10 10h81l10 -10z" />
    <glyph glyph-name="zero.osf" horiz-adv-x="540" 
d="M25 210q0 121 82.5 210.5t204.5 89.5q108 0 165.5 -62t57.5 -159q0 -120 -83 -209.5t-204 -89.5q-108 0 -165.5 62t-57.5 158zM310 420q-78 0 -131 -63.5t-53 -146.5q0 -59 33.5 -94.5t90.5 -35.5q78 0 130.5 63.5t52.5 145.5q0 60 -32.5 95.5t-90.5 35.5z" />
    <glyph glyph-name="one.osf" horiz-adv-x="310" 
d="M106 10l63 351h-10l-71 -61h-37l-10 10l12 70l128 110l20 10h81l10 -10l-85 -480l-10 -10h-81z" />
    <glyph glyph-name="two.osf" horiz-adv-x="520" 
d="M447 10l-10 -10h-430l-10 10l13 70l13 20l218 100q36 16 55 26t43.5 28.5t35.5 40.5t11 51q0 74 -96 74q-53 0 -85 -20t-41 -70l-10 -10h-80l-10 10q15 88 74.5 134t151.5 46q98 0 147.5 -47.5t49.5 -112.5q0 -42 -14.5 -75.5t-44 -58t-59.5 -41t-75 -35.5l-97 -40
l-2 -10h255l10 -10z" />
    <glyph glyph-name="three.osf" horiz-adv-x="520" 
d="M64 0l10 -10q-3 -13 -3 -30q0 -38 31 -59t90 -21q82 0 127.5 49t45.5 136q0 49 -25.5 77t-73.5 28q-64 0 -94 -30h-30l-10 10l12 70l212 180l2 10h-268l-10 10l12 70l10 10h390l10 -10l-14 -80l-13 -20l-165 -140l-2 -10h10q62 0 105 -44t43 -131q0 -121 -71.5 -198
t-202.5 -77q-103 0 -162 47t-59 123l3 30l10 10h80z" />
    <glyph glyph-name="four.osf" horiz-adv-x="530" 
d="M392 -190l-10 -10h-80l-10 10l31 180l-10 10h-325l-10 10l14 80l13 20l387 380l20 10h90l10 -10zM343 100l46 260h-10l-265 -260l-2 -10h219z" />
    <glyph glyph-name="five.osf" horiz-adv-x="560" 
d="M486 80q0 -126 -70 -208t-200 -82q-99 0 -154.5 52t-55.5 148l12 10h80l8 -10q0 -51 24 -80.5t86 -29.5q85 0 127.5 55.5t42.5 144.5q0 52 -29 81t-81 29q-37 0 -65.5 -13t-41.5 -27t-30 -40l-20 -10l-72 10l-10 10l85 370l10 10h392l10 -10l-12 -70l-10 -10h-302
l-10 -10l-39 -165h10q28 24 55 34.5t70 10.5q89 0 139.5 -54.5t50.5 -145.5z" />
    <glyph glyph-name="six.osf" horiz-adv-x="560" 
d="M259 80q77 0 118.5 53t41.5 127q0 110 -120 110q-73 0 -116.5 -51.5t-43.5 -128.5q0 -51 33 -80.5t87 -29.5zM55 339q37 208 107 289.5t207 81.5q82 0 137.5 -45.5t55.5 -124.5l-10 -10h-80l-10 10q0 80 -113 80q-43 0 -73.5 -15t-49 -46t-28.5 -64.5t-19 -84.5h10
q50 50 135 50q89 0 142 -53t53 -137q0 -119 -69 -199.5t-191 -80.5q-98 0 -157.5 55t-59.5 145q0 77 13 149z" />
    <glyph glyph-name="seven.osf" horiz-adv-x="500" 
d="M498 410l-397 -600l-10 -10h-58l-10 10l14 80l340 510l1 10h-308l-10 10l12 70l10 10h420l10 -10z" />
    <glyph glyph-name="eight.osf" horiz-adv-x="540" 
d="M504 227q0 -106 -72 -171.5t-188 -65.5q-102 0 -164.5 57t-62.5 132q0 68 33.5 119.5t100.5 74.5l2 10q-59 44 -59 117q0 97 69 153.5t173 56.5q92 0 148 -50t56 -120q0 -56 -29 -99.5t-78 -63.5l-2 -10q28 -15 50.5 -52t22.5 -88zM303 410q57 0 96.5 31.5t39.5 88.5
q0 36 -27 63t-81 27q-57 0 -96.5 -30.5t-39.5 -89.5q0 -39 28.5 -64.5t79.5 -25.5zM244 80q67 0 113.5 38.5t46.5 108.5q0 45 -31.5 74t-93.5 29q-68 0 -114 -39t-46 -107q0 -42 32 -73t93 -31z" />
    <glyph glyph-name="nine.osf" horiz-adv-x="560" 
d="M301 420q-78 0 -119 -51t-41 -124q0 -50 31 -77.5t91 -27.5q73 0 115.5 48t42.5 122q0 51 -33 80.5t-87 29.5zM201 -210q-80 0 -136.5 45.5t-56.5 124.5l10 10h80l10 -10q0 -80 103 -80q43 0 73.5 15.5t49.5 48t29 66t19 85.5h-10q-52 -45 -129 -45q-90 0 -146 51.5
t-56 133.5q0 118 70 196.5t194 78.5q102 0 158 -52.5t56 -137.5q0 -71 -14 -149q-37 -209 -104.5 -295t-199.5 -86z" />
    <glyph glyph-name="numbersign.tf" 
d="M230 80l49 110l-10 10h-70l-10 -10l-82 -180l-10 -10h-56l-10 10l13 70l49 110l-10 10h-60l-10 10l10 60l10 10h98l10 10l51 120l-10 10h-71l-10 10l11 60l10 10h107l10 10l82 180l10 10h56l10 -10l-12 -70l-50 -110l10 -10h70l10 10l82 180l10 10h56l10 -10l-12 -70
l-50 -110l10 -10h61l10 -10l-11 -60l-10 -10h-97l-10 -10l-51 -120l10 -10h70l10 -10l-10 -60l-10 -10h-108l-10 -10l-82 -180l-10 -10h-56l-10 10zM247 280h70l10 10l51 120l-10 10h-70l-10 -10l-51 -120z" />
    <glyph glyph-name="dollar.tf" 
d="M420 703q76 -16 117 -61t41 -112q0 -17 -4 -30l-10 -10h-80l-10 10q4 20 4 30q0 67 -77 83l-9 -9l-35 -200l10 -10q86 -24 130.5 -69.5t44.5 -124.5q0 -98 -71 -153t-180 -61l-10 -10l-10 -56l-10 -10h-60l-10 10l11 63l-10 10q-87 13 -129.5 66t-42.5 131q0 17 4 30
l10 10h81l9 -10q-4 -16 -4 -30q0 -93 91 -107l10 10l40 223l-10 10q-81 23 -123.5 65.5t-42.5 118.5q0 91 64 142.5t173 56.5l10 10l11 61l10 10h60l10 -10l-13 -67zM442 200q0 39 -21.5 62t-73.5 40l-10 -10l-36 -203l10 -10q58 5 94.5 38.5t36.5 82.5zM185 510
q0 -36 19 -56t67 -35l10 10l32 179l-10 10q-51 -5 -84.5 -30.5t-33.5 -77.5z" />
    <glyph glyph-name="plus.tf" 
d="M524 220l-10 -10h-172l-10 -10l-30 -170l-10 -10h-72l-10 10l30 170l-10 10h-166l-10 10l13 70l10 10h172l10 10l30 170l10 10h72l10 -10l-30 -170l10 -10h166l10 -10z" />
    <glyph glyph-name="zero.tf" 
d="M142 230q0 -73 33 -111.5t87 -38.5q60 0 104 40.5t65.5 104t31 125t9.5 120.5q0 73 -33 111.5t-87 38.5q-60 0 -104 -40.5t-65.5 -104t-31 -125t-9.5 -120.5zM572 470q0 -61 -8 -121t-29.5 -126.5t-55 -117t-89.5 -83t-128 -32.5q-95 0 -157.5 62.5t-62.5 177.5
q0 61 8 121t29.5 126.5t55 117t89.5 83t128 32.5q95 0 157.5 -62.5t62.5 -177.5z" />
    <glyph glyph-name="one.tf" 
d="M7 10l13 70l10 10h191l10 10l82 459h-10l-139 -119h-30l-10 10l14 80l188 160l20 10h83l8 -10l-104 -590l10 -10h157l10 -10l-13 -70l-10 -10h-470z" />
    <glyph glyph-name="two.tf" 
d="M41 110l287 215q130 98 130 205q0 36 -25.5 63t-74.5 27q-66 0 -105 -34t-50 -96l-10 -10h-80l-10 10q15 99 78 159.5t177 60.5q98 0 149 -53t51 -127q0 -159 -175 -282l-209 -148l-2 -10h318l10 -10l-13 -70l-10 -10h-449l-10 10l13 80z" />
    <glyph glyph-name="three.tf" 
d="M129 200l10 -10q-3 -13 -3 -30q0 -38 31 -59t90 -21q82 0 127.5 49t45.5 136q0 49 -25.5 77t-73.5 28q-64 0 -94 -30h-30l-10 10l12 70l212 180l2 10h-268l-10 10l12 70l10 10h390l10 -10l-14 -80l-13 -20l-165 -140l-2 -10h10q62 0 105 -44t43 -131q0 -121 -71.5 -198
t-202.5 -77q-103 0 -162 47t-59 123l3 30l10 10h80z" />
    <glyph glyph-name="four.tf" 
d="M447 10l-10 -10h-80l-10 10l31 180l-10 10h-325l-10 10l14 80l13 20l387 380l20 10h90l10 -10zM398 300l46 260h-10l-265 -260l-2 -10h219z" />
    <glyph glyph-name="five.tf" 
d="M539 280q0 -126 -70 -208t-200 -82q-99 0 -154.5 52t-55.5 148l12 10h80l8 -10q0 -51 24 -80.5t86 -29.5q85 0 127.5 55.5t42.5 144.5q0 52 -28.5 81t-81.5 29q-37 0 -65.5 -13t-41.5 -27t-30 -40l-20 -10l-72 10l-10 10l85 370l10 10h392l10 -10l-12 -70l-10 -10h-302
l-10 -10l-39 -165h10q28 24 55 34.5t70 10.5q89 0 139.5 -54.5t50.5 -145.5z" />
    <glyph glyph-name="six.tf" 
d="M269 80q77 0 118.5 53t41.5 127q0 110 -120 110q-73 0 -116.5 -51.5t-43.5 -128.5q0 -51 33 -80.5t87 -29.5zM65 339q37 208 107 289.5t207 81.5q82 0 137.5 -45.5t55.5 -124.5l-10 -10h-80l-10 10q0 80 -113 80q-43 0 -73.5 -15t-49 -46t-28.5 -64.5t-19 -84.5h10
q50 50 135 50q89 0 142 -53t53 -137q0 -119 -69 -199.5t-191 -80.5q-98 0 -157.5 55t-59.5 145q0 77 13 149z" />
    <glyph glyph-name="seven.tf" 
d="M573 610l-397 -600l-10 -10h-58l-10 10l14 80l340 510l1 10h-308l-10 10l12 70l10 10h420l10 -10z" />
    <glyph glyph-name="eight.tf" 
d="M524 227q0 -106 -72 -171.5t-188 -65.5q-102 0 -164.5 57t-62.5 132q0 68 33.5 119.5t100.5 74.5l2 10q-59 44 -59 117q0 97 69 153.5t173 56.5q92 0 148 -50t56 -120q0 -56 -29 -99.5t-78 -63.5l-2 -10q28 -15 50.5 -52t22.5 -88zM323 410q57 0 96.5 31.5t39.5 88.5
q0 36 -27 63t-81 27q-57 0 -96.5 -30.5t-39.5 -89.5q0 -39 28.5 -64.5t79.5 -25.5zM264 80q67 0 113.5 38.5t46.5 108.5q0 45 -31.5 74t-93.5 29q-68 0 -114 -39t-46 -107q0 -42 32 -73t93 -31z" />
    <glyph glyph-name="nine.tf" 
d="M346 620q-78 0 -119 -51t-41 -124q0 -50 31 -77.5t91 -27.5q73 0 115.5 48t42.5 122q0 51 -33 80.5t-87 29.5zM246 -10q-80 0 -136.5 45.5t-56.5 124.5l10 10h80l10 -10q0 -80 103 -80q43 0 73.5 15.5t49.5 48t29 66t19 85.5h-10q-52 -45 -129 -45q-90 0 -146 51.5
t-56 133.5q0 118 70 196.5t194 78.5q102 0 158 -52.5t56 -137.5q0 -71 -14 -149q-37 -209 -104.5 -295t-199.5 -86z" />
    <glyph glyph-name="less.tf" 
d="M532 430l-14 -20l-337 -150l-3 -20l283 -150l8 -20l-11 -60l-10 -10h-20l-356 209l-7 20l11 60l13 20l402 191h42l10 -10z" />
    <glyph glyph-name="equal.tf" 
d="M511 310l-10 -10h-400l-10 10l12 70l10 10h400l10 -10zM478 120l-10 -10h-400l-10 10l12 70l10 10h400l10 -10z" />
    <glyph glyph-name="greater.tf" 
d="M48 70l14 20l337 150l3 20l-283 150l-8 20l11 60l10 10h20l356 -209l7 -20l-11 -60l-13 -20l-402 -191h-42l-10 10z" />
    <glyph glyph-name="asciitilde.tf" 
d="M171 260q-28 0 -42.5 -19.5t-21.5 -60.5l-10 -10h-60l-10 10q32 180 172 180q39 0 72 -19t52 -41t42 -41t43 -19q28 0 42.5 19.5t21.5 60.5l10 10h60l10 -10q-32 -180 -172 -180q-39 0 -72 19t-52 41t-42 41t-43 19z" />
    <glyph glyph-name="cent.tf" 
d="M231 98l54 305l-8 10q-13 -3 -26.5 -10t-31.5 -24t-32 -40t-23.5 -62t-9.5 -87q0 -81 67 -102zM367 404l-55 -309l10 -10q25 4 48.5 24t33.5 51l10 10h81l10 -10q-41 -157 -203 -169l-10 -10l-7 -41l-10 -10h-61l-10 10l9 48l-10 10q-20 4 -42.5 15.5t-48.5 32.5
t-42.5 58.5t-16.5 85.5q0 82 23 145.5t61 99t77.5 53.5t79.5 21l12 10l7 41l10 10h61l10 -10l-8 -47l8 -10q53 -10 97 -48.5t44 -96.5q0 -12 -1 -18l-10 -10h-80l-10 10q3 59 -55 74z" />
    <glyph glyph-name="sterling.tf" 
d="M574 500l-10 -10h-80l-10 10q3 20 3 36q0 84 -80 84q-57 0 -85.5 -34t-41.5 -106l-19 -110l10 -10h196l10 -10l-10 -60l-10 -10h-204l-10 -10l-14 -80q-13 -70 -56 -90l-2 -10h350l10 -10l-13 -70l-10 -10h-492l-10 10l13 70l10 10h10q71 0 87 90l16 90l-10 10h-56
l-10 10l10 60l10 10h64l10 10l21 120q39 220 226 220q81 0 131.5 -44.5t50.5 -123.5q0 -23 -5 -42z" />
    <glyph glyph-name="currency.tf" 
d="M25 209q0 105 67 190l2 10l-47 57l1 10l65 54h10l47 -57h9q69 37 146 37t137 -41h10l72 61h10l54 -65l-1 -10l-72 -61l-2 -9q21 -47 21 -95q0 -106 -67 -189l-2 -10l44 -53l-2 -10l-61 -58h-10l-46 57h-10q-66 -37 -146 -37q-79 0 -137 41h-10l-72 -61h-10l-54 65l2 10
l71 61l1 8q-20 45 -20 95zM320 420q-78 0 -135.5 -61t-57.5 -143q0 -59 35 -97.5t98 -38.5q78 0 135.5 61t57.5 142q0 60 -35 98.5t-98 38.5z" />
    <glyph glyph-name="yen.tf" 
d="M318 120l-20 -110l-10 -10h-81l-10 10l20 110l-10 10h-107l-10 10l11 60l10 10h113l10 10l4 20l-13 40l-20 10h-107l-10 10l11 60l10 10h82l2 10l-78 240l12 70l10 10h43l20 -10l94 -320h20l206 320l20 10h58l10 -10l-12 -70l-162 -240l-2 -10h78l10 -10l-11 -60l-10 -10
h-113l-20 -10l-27 -40l-4 -20l10 -10h107l10 -10l-11 -60l-10 -10h-113z" />
    <glyph glyph-name="section.tf" 
d="M213 380q-35 -9 -56 -37.5t-21 -66.5q0 -30 11.5 -50.5t35 -33t47.5 -20.5t62.5 -19.5t65.5 -22.5h10q34 9 56 38.5t22 67.5q0 21 -8.5 37.5t-21 27t-36.5 22t-43.5 18t-54.5 18.5t-59 21h-10zM431 90l-1 -10q45 -34 45 -99q0 -95 -69 -143t-172 -48q-105 0 -164 41
t-59 124q0 23 5 45l10 10h80l10 -10q-5 -20 -5 -38q0 -43 26 -62.5t97 -19.5q32 0 60.5 6.5t54.5 31t26 63.5q0 26 -18.5 43.5t-48.5 28.5t-66 21t-72.5 24t-66.5 34.5t-48.5 56.5t-18.5 85q0 54 31.5 95t82.5 51l1 10q-44 38 -44 99q0 50 21.5 87t58 56.5t76 28.5t82.5 9
q101 0 162 -42t61 -124q0 -21 -4 -44l-10 -10h-80l-10 10q4 24 4 36q0 44 -26 64t-97 20q-138 0 -138 -91q0 -24 18.5 -42t48.5 -30t66 -23.5t72.5 -27t66.5 -36.5t48.5 -55.5t18.5 -80.5q0 -53 -32.5 -93.5t-82.5 -50.5z" />
    <glyph glyph-name="logicalnot.tf" 
d="M474 100l-10 -10h-71l-10 10l18 100l-10 10h-327l-10 10l13 70l10 10h421l10 -10z" />
    <glyph glyph-name="plusminus.tf" 
d="M528 290l-10 -10h-164l-10 -10l-19 -110l-10 -10h-71l-10 10l19 110l-10 10h-156l-10 10l12 70l10 10h164l10 10l19 110l10 10h71l10 -10l-19 -110l10 -10h156l10 -10zM478 10l-10 -10h-431l-10 10l13 70l10 10h431l10 -10z" />
    <glyph glyph-name="multiply.tf" 
d="M489 76l-54 -46h-10l-131 159h-10l-187 -159h-10l-46 55l1 10l189 160l1 10l-131 159l1 10l54 46h10l131 -160h10l189 160h10l44 -55l-1 -10l-188 -160l-1 -10l130 -159z" />
    <glyph glyph-name="divide.tf" 
d="M525 220l-10 -10h-461l-10 10l13 70l10 10h461l10 -10zM311 20l-10 -10h-101l-10 10l17 100l10 10h101l10 -10zM376 390l-10 -10h-101l-10 10l17 100l10 10h101l10 -10z" />
    <glyph glyph-name="florin.tf" 
d="M455 560l-19 -50l10 -10h127l10 -10l-11 -60l-10 -10h-153l-10 -10l-170 -450q-30 -82 -75 -121t-130 -39h-32l-10 10l11 60l10 10h21q42 0 65.5 19.5t38.5 60.5l170 450l-10 10h-67l-10 10l11 60l10 10h93l10 10l19 50q29 77 69 108.5t113 31.5h42l10 -10l-10 -60
l-10 -10h-32q-32 0 -49.5 -12t-31.5 -48z" />
    <glyph glyph-name="Euro.tf" 
d="M368 240l-10 -10h-164l-10 -10q-1 -13 -1 -32q0 -108 113 -108q58 0 97.5 34.5t57.5 85.5l10 10h80l10 -10q-24 -94 -90.5 -152t-164.5 -58q-102 0 -158 52t-56 142q0 10 2 36l-10 10h-46l-10 10l10 60l10 10h44l10 10l7 40l-10 10h-36l-10 10l10 60l10 10h54l10 10
q61 250 269 250q98 0 154 -49t56 -134q0 -9 -2 -27l-10 -10h-80l-10 10q1 10 1 27q0 93 -109 93q-70 0 -109 -42t-60 -118l10 -10h196l10 -10l-10 -60l-10 -10h-214l-10 -10l-7 -40l10 -10h166l10 -10z" />
    <glyph glyph-name="minus.tf" 
d="M504 220l-10 -10h-420l-10 10l13 70l10 10h420l10 -10z" />
    <glyph glyph-name="zero.tosf" 
d="M35 210q0 121 82.5 210.5t204.5 89.5q108 0 165.5 -62t57.5 -159q0 -120 -83 -209.5t-204 -89.5q-108 0 -165.5 62t-57.5 158zM320 420q-78 0 -131 -63.5t-53 -146.5q0 -59 33.5 -94.5t90.5 -35.5q78 0 130.5 63.5t52.5 145.5q0 60 -32.5 95.5t-90.5 35.5z" />
    <glyph glyph-name="one.tosf" 
d="M27 10l13 70l10 10h182l10 10l47 261h-10l-108 -91h-37l-10 10l12 70l165 140l20 10h81l10 -10l-69 -390l10 -10h147l10 -10l-13 -70l-10 -10h-450z" />
    <glyph glyph-name="two.tosf" 
d="M477 10l-10 -10h-430l-10 10l13 70l13 20l218 100q36 16 55 26t43.5 28.5t35.5 40.5t11 51q0 74 -96 74q-53 0 -85 -20t-41 -70l-10 -10h-80l-10 10q15 88 74.5 134t151.5 46q98 0 147.5 -47.5t49.5 -112.5q0 -42 -14.5 -75.5t-44 -58t-59.5 -41t-75 -35.5l-97 -40
l-2 -10h255l10 -10z" />
    <glyph glyph-name="three.tosf" 
d="M94 0l10 -10q-3 -13 -3 -30q0 -38 31 -59t90 -21q82 0 127.5 49t45.5 136q0 49 -25.5 77t-73.5 28q-64 0 -94 -30h-30l-10 10l12 70l212 180l2 10h-268l-10 10l12 70l10 10h390l10 -10l-14 -80l-13 -20l-165 -140l-2 -10h10q62 0 105 -44t43 -131q0 -121 -71.5 -198
t-202.5 -77q-103 0 -162 47t-59 123l3 30l10 10h80z" />
    <glyph glyph-name="four.tosf" 
d="M412 -190l-10 -10h-80l-10 10l31 180l-10 10h-325l-10 10l14 80l13 20l387 380l20 10h90l10 -10zM363 100l46 260h-10l-265 -260l-2 -10h219z" />
    <glyph glyph-name="five.tosf" 
d="M496 80q0 -126 -70 -208t-200 -82q-99 0 -154.5 52t-55.5 148l12 10h80l8 -10q0 -51 24 -80.5t86 -29.5q85 0 127.5 55.5t42.5 144.5q0 52 -29 81t-81 29q-37 0 -65.5 -13t-41.5 -27t-30 -40l-20 -10l-72 10l-10 10l85 370l10 10h392l10 -10l-12 -70l-10 -10h-302
l-10 -10l-39 -165h10q28 24 55 34.5t70 10.5q89 0 139.5 -54.5t50.5 -145.5z" />
    <glyph glyph-name="six.tosf" 
d="M279 80q77 0 118.5 53t41.5 127q0 110 -120 110q-73 0 -116.5 -51.5t-43.5 -128.5q0 -51 33 -80.5t87 -29.5zM75 339q37 208 107 289.5t207 81.5q82 0 137.5 -45.5t55.5 -124.5l-10 -10h-80l-10 10q0 80 -113 80q-43 0 -73.5 -15t-49 -46t-28.5 -64.5t-19 -84.5h10
q50 50 135 50q89 0 142 -53t53 -137q0 -119 -69 -199.5t-191 -80.5q-98 0 -157.5 55t-59.5 145q0 77 13 149z" />
    <glyph glyph-name="seven.tosf" 
d="M538 410l-397 -600l-10 -10h-58l-10 10l14 80l340 510l1 10h-308l-10 10l12 70l10 10h420l10 -10z" />
    <glyph glyph-name="eight.tosf" 
d="M524 227q0 -106 -72 -171.5t-188 -65.5q-102 0 -164.5 57t-62.5 132q0 68 33.5 119.5t100.5 74.5l2 10q-59 44 -59 117q0 97 69 153.5t173 56.5q92 0 148 -50t56 -120q0 -56 -29 -99.5t-78 -63.5l-2 -10q28 -15 50.5 -52t22.5 -88zM323 410q57 0 96.5 31.5t39.5 88.5
q0 36 -27 63t-81 27q-57 0 -96.5 -30.5t-39.5 -89.5q0 -39 28.5 -64.5t79.5 -25.5zM264 80q67 0 113.5 38.5t46.5 108.5q0 45 -31.5 74t-93.5 29q-68 0 -114 -39t-46 -107q0 -42 32 -73t93 -31z" />
    <glyph glyph-name="nine.tosf" 
d="M311 420q-78 0 -119 -51t-41 -124q0 -50 31 -77.5t91 -27.5q73 0 115.5 48t42.5 122q0 51 -33 80.5t-87 29.5zM211 -210q-80 0 -136.5 45.5t-56.5 124.5l10 10h80l10 -10q0 -80 103 -80q43 0 73.5 15.5t49.5 48t29 66t19 85.5h-10q-52 -45 -129 -45q-90 0 -146 51.5
t-56 133.5q0 118 70 196.5t194 78.5q102 0 158 -52.5t56 -137.5q0 -71 -14 -149q-37 -209 -104.5 -295t-199.5 -86z" />
    <glyph glyph-name="parenleft.case" horiz-adv-x="420" 
d="M281 -90l-10 -10h-10l-20 10q-99 109 -130.5 161t-31.5 122q0 51 19 157q12 71 18.5 103.5t22 75.5t27.5 62t45.5 55.5t65.5 63.5t97 80l20 10h32l10 -10l-12 -70q-54 -43 -76 -61t-51 -48t-38 -46t-23 -52t-20 -69t-17 -94q-21 -121 -21 -165q0 -55 22.5 -92.5
t92.5 -112.5z" />
    <glyph glyph-name="parenright.case" horiz-adv-x="420" 
d="M173 790l10 10h10l20 -10q99 -109 130.5 -161t31.5 -122q0 -51 -19 -157q-12 -71 -18.5 -103.5t-22 -75.5t-27.5 -62t-45.5 -55.5t-65.5 -63.5t-97 -80l-20 -10h-32l-10 10l12 70q54 43 76 61t51 48t38 46t23 52t20 69t17 94q21 121 21 165q0 55 -22.5 92.5t-92.5 112.5z
" />
    <glyph glyph-name="hyphen.case" horiz-adv-x="410" 
d="M361 320l-10 -10h-270l-10 10l13 70l10 10h270l10 -10z" />
    <glyph glyph-name="at.case" horiz-adv-x="920" 
d="M502 480q-45 0 -75.5 -29t-41.5 -67t-11 -81q0 -83 82 -83q45 0 73 32.5t36.5 70.5t8.5 81q0 41 -17.5 58.5t-54.5 17.5zM600 530l4 20l10 10h80l10 -10l-49 -279q-4 -20 -4 -34q0 -37 41 -37q28 0 48 27t29 67.5t13 73.5t4 58q0 109 -62 176.5t-189 67.5
q-107 0 -192 -59.5t-128 -149t-43 -188.5q0 -110 63.5 -176.5t186.5 -66.5q101 0 167 40h18l10 -10l-12 -70q-75 -50 -183 -50q-163 0 -256.5 90.5t-93.5 242.5q0 205 132.5 346t330.5 141q163 0 257 -91.5t94 -242.5q0 -56 -10 -106.5t-32.5 -97t-65 -74.5t-100.5 -28
q-81 0 -109 60h-10q-47 -50 -129 -50q-63 0 -109.5 48t-46.5 125q0 112 59.5 189.5t163.5 77.5q61 0 93 -40h10z" />
    <glyph glyph-name="bracketleft.case" horiz-adv-x="370" 
d="M230 -90l-10 -10h-190l-10 10l155 880l10 10h190l10 -10l-12 -70l-10 -10h-93l-10 -10l-123 -700l10 -10h85l10 -10z" />
    <glyph glyph-name="bracketright.case" horiz-adv-x="370" 
d="M175 790l10 10h190l10 -10l-155 -880l-10 -10h-190l-10 10l12 70l10 10h93l10 10l123 700l-10 10h-85l-10 10z" />
    <glyph glyph-name="underscore.case" 
d="M497 10l-10 -10h-480l-10 10l13 70l10 10h480l10 -10z" />
    <glyph glyph-name="braceleft.case" horiz-adv-x="440" 
d="M127 62l29 168q3 15 3 31q0 27 -13.5 38t-43.5 11l-10 10l11 60l10 10q38 0 58 18t28 62l31 180q26 150 161 150h55l10 -10l-12 -70l-10 -10h-42q-50 0 -61 -60l-33 -190q-14 -79 -68 -100l-3 -20q34 -25 34 -75q0 -16 -4 -36l-29 -167q-4 -20 -4 -29q0 -43 40 -43h39
l10 -10l-12 -70l-10 -10h-27q-56 0 -98 34.5t-42 93.5q0 19 3 34z" />
    <glyph glyph-name="braceright.case" horiz-adv-x="440" 
d="M348 638l-29 -168q-3 -15 -3 -31q0 -27 13.5 -38t43.5 -11l10 -10l-11 -60l-10 -10q-38 0 -58 -18t-28 -62l-31 -180q-26 -150 -161 -150h-55l-10 10l12 70l10 10h42q23 0 39.5 15.5t21.5 44.5l33 190q14 79 68 100l3 20q-34 25 -34 75q0 16 4 36l29 167q4 20 4 29
q0 43 -40 43h-39l-10 10l12 70l10 10h27q56 0 98 -34.5t42 -93.5q0 -19 -3 -34z" />
    <glyph glyph-name="exclamdown.case" horiz-adv-x="360" 
d="M131 260l60 230l10 10h41l10 -10l-20 -230l-44 -250l-10 -10h-81l-10 10zM196 690l10 10h101l10 -10l-17 -100l-10 -10h-101l-10 10z" />
    <glyph glyph-name="guillemotleft.case" horiz-adv-x="700" 
d="M341 140l-10 -10h-70l-20 10l-142 172l-7 20l11 60l13 20l176 148l20 10h93l10 -10l-6 -30l-210 -170l-3 -20l150 -170zM601 140l-10 -10h-70l-20 10l-142 172l-7 20l11 60l13 20l176 148l20 10h93l10 -10l-6 -30l-210 -170l-3 -20l150 -170z" />
    <glyph glyph-name="periodcentered.case" horiz-adv-x="280" 
d="M209 300l-10 -10h-101l-10 10l17 100l10 10h101l10 -10z" />
    <glyph glyph-name="guillemotright.case" horiz-adv-x="700" 
d="M71 130l-10 10l5 30l210 170l3 20l-150 170l6 30l10 10h67l20 -10l144 -172l7 -20l-11 -60l-13 -20l-174 -148l-20 -10h-94zM331 130l-10 10l5 30l210 170l3 20l-150 170l6 30l10 10h67l20 -10l144 -172l7 -20l-11 -60l-13 -20l-174 -148l-20 -10h-94z" />
    <glyph glyph-name="questiondown.case" horiz-adv-x="600" 
d="M64 155q0 66 29 114.5t94 95.5q59 43 84 70t32 65l10 10h80l10 -10q-6 -57 -33 -96t-82 -79q-31 -22 -45 -33.5t-36.5 -34t-32 -47.5t-9.5 -55q0 -33 27 -54t76 -21q121 0 144 130l10 10h80l10 -10q-14 -102 -75 -161t-169 -59q-91 0 -147.5 46t-56.5 119zM326 690l10 10
h101l10 -10l-17 -100l-10 -10h-101l-10 10z" />
    <glyph glyph-name="endash.case" horiz-adv-x="620" 
d="M571 320l-10 -10h-480l-10 10l13 70l10 10h480l10 -10z" />
    <glyph glyph-name="emdash.case" horiz-adv-x="1120" 
d="M1071 320l-10 -10h-980l-10 10l13 70l10 10h980l10 -10z" />
    <glyph glyph-name="bullet.case" horiz-adv-x="390" 
d="M329 320l-2 -10l-129 -90h-10l-91 130l2 10l129 90h10z" />
    <glyph glyph-name="guilsinglleft.case" horiz-adv-x="440" 
d="M340 140l-10 -10h-70l-20 10l-142 172l-7 20l11 60l13 20l176 148l20 10h93l10 -10l-6 -30l-210 -170l-3 -20l150 -170z" />
    <glyph glyph-name="guilsinglright.case" horiz-adv-x="440" 
d="M71 130l-10 10l5 30l210 170l3 20l-150 170l6 30l10 10h67l20 -10l144 -172l7 -20l-11 -60l-13 -20l-174 -148l-20 -10h-94z" />
    <glyph glyph-name="zero.zero" 
d="M572 470q0 -61 -8 -121t-29.5 -126.5t-55 -117t-89.5 -83t-128 -32.5q-95 0 -157.5 62.5t-62.5 177.5q0 61 8 121t29.5 126.5t55 117t89.5 83t128 32.5q95 0 157.5 -62.5t62.5 -177.5zM196 110l-2 -10q27 -20 68 -20q60 0 104 40.5t65.5 104t31 125t9.5 120.5q0 16 -4 42
h-10zM142 230q0 -23 3 -41h10l262 402v10q-26 19 -65 19q-60 0 -104 -40.5t-65.5 -104t-31 -125t-9.5 -120.5z" />
    <glyph glyph-name="quotedbl.ss01" horiz-adv-x="340" 
d="M287 400l-10 -10h-11l-10 10l51 290l10 10h11l10 -10zM136 400l-10 -10h-11l-10 10l51 290l10 10h11l10 -10z" />
    <glyph glyph-name="numbersign.ss01" horiz-adv-x="600" 
d="M296 20l60 170l-10 10h-174l-10 -10l-62 -180l-10 -10h-13l-10 10l2 10l60 170l-10 10h-86l-10 10l1 10l10 10h104l10 10l79 220l-10 10h-87l-10 10l2 10l10 10h103l10 10l62 180l10 10h13l10 -10l-2 -10l-60 -170l10 -10h174l10 10l62 180l10 10h13l10 -10l-2 -10
l-60 -170l10 -10h87l10 -10l-2 -10l-10 -10h-103l-10 -10l-79 -220l10 -10h86l10 -10l-1 -10l-10 -10h-104l-10 -10l-62 -180l-10 -10h-13l-10 10zM270 470l-10 -10l-79 -220l10 -10h174l10 10l79 220l-10 10h-174z" />
    <glyph glyph-name="quotesingle.ss01" horiz-adv-x="190" 
d="M136 400l-10 -10h-11l-10 10l51 290l10 10h11l10 -10z" />
    <glyph glyph-name="parenleft.ss01" horiz-adv-x="400" 
d="M110 250q-21 -116 -21 -163q0 -64 29 -113t124 -164l-2 -10h-15l-20 10q-87 105 -117 159t-30 118q0 42 22 163q12 69 18.5 102.5t22.5 76t27 60.5t45.5 56t64 63.5t95.5 81.5l20 10h26l-2 -10q-72 -62 -101 -86.5t-67.5 -64.5t-49.5 -58t-28 -59t-23.5 -74t-17.5 -98z
" />
    <glyph glyph-name="parenright.ss01" horiz-adv-x="400" 
d="M289 250q21 116 21 163q0 64 -29 113t-124 164l2 10h15l20 -10q87 -105 117 -159t30 -118q0 -42 -22 -163q-12 -69 -18.5 -102.5t-22.5 -76t-27 -60.5t-45.5 -56t-64 -63.5t-95.5 -81.5l-20 -10h-26l2 10q72 62 101 86.5t67.5 64.5t49.5 58t28 59t23.5 74t17.5 98z" />
    <glyph glyph-name="slash.ss01" horiz-adv-x="490" 
d="M524 670l-505 -660l-10 -10h-13l5 30l504 660l11 10h13z" />
    <glyph glyph-name="bracketleft.ss01" horiz-adv-x="340" 
d="M182 -190l-10 -10h-160l-10 10l155 880l10 10h160l10 -10l-2 -10l-10 -10h-132l-10 -10l-145 -820l10 -10h126l10 -10z" />
    <glyph glyph-name="backslash.ss01" horiz-adv-x="490" 
d="M389 10l-275 660l5 30h6l10 -10l276 -660l-5 -30h-8z" />
    <glyph glyph-name="bracketright.ss01" horiz-adv-x="340" 
d="M157 690l10 10h160l10 -10l-155 -880l-10 -10h-160l-10 10l2 10l10 10h132l10 10l145 820l-10 10h-126l-10 10z" />
    <glyph glyph-name="underscore.ss01" 
d="M495 -20l-10 -10h-480l-10 10l1 10l10 10h480l10 -10z" />
    <glyph glyph-name="braceleft.ss01" horiz-adv-x="420" 
d="M152 260l-1 -10q28 -13 28 -56q0 -14 -4 -34l-41 -230q-3 -17 -3 -27q0 -73 86 -73h39l8 -10l-2 -10l-12 -10h-34q-50 0 -83 25.5t-33 77.5q0 11 3 27l41 230q3 16 3 30q0 28 -13.5 40.5t-45.5 12.5l-8 10l1 10l12 10q39 0 58 16.5t26 60.5l39 220q12 68 53.5 99t99.5 31
h40l8 -10l-2 -10l-11 -10h-40q-100 0 -117 -100l-39 -220q-14 -77 -56 -90z" />
    <glyph glyph-name="bar.ss01" horiz-adv-x="270" 
d="M72 -190l-10 -10h-11l-10 10l155 880l10 10h11l10 -10z" />
    <glyph glyph-name="braceright.ss01" horiz-adv-x="420" 
d="M267 240l1 10q-28 13 -28 56q0 14 4 34l41 230q3 16 3 27q0 73 -86 73h-39l-8 10l2 10l12 10h34q50 0 83 -25.5t33 -77.5q0 -11 -3 -27l-41 -230q-3 -16 -3 -30q0 -28 13.5 -40.5t45.5 -12.5l8 -10l-1 -10l-12 -10q-39 0 -58 -16.5t-26 -60.5l-39 -220q-12 -68 -53.5 -99
t-99.5 -31h-40l-8 10l2 10l11 10h40q100 0 117 100l39 220q14 77 56 90z" />
    <glyph glyph-name="guillemotleft.ss01" horiz-adv-x="590" 
d="M281 30h-17l-18 10l-168 203l3 20l233 197l21 10h23l-1 -10l-236 -200l-3 -20l165 -200zM471 30h-17l-18 10l-168 203l3 20l233 197l21 10h23l-1 -10l-236 -200l-3 -20l165 -200z" />
    <glyph glyph-name="logicalnot.ss01" 
d="M473 100l-10 -10h-11l-10 10l23 130l-10 10h-385l-10 10l1 10l10 10h420l10 -10z" />
    <glyph glyph-name="degree.ss01" horiz-adv-x="560" 
d="M163 480q0 -58 35.5 -94t97.5 -36q78 0 135 55.5t57 133.5q0 58 -36 94.5t-98 36.5q-78 0 -134.5 -56t-56.5 -134zM122 480q0 95 69 162.5t165 67.5q81 0 126.5 -49t45.5 -122q0 -95 -69 -162t-165 -67q-81 0 -126.5 48.5t-45.5 121.5z" />
    <glyph glyph-name="guillemotright.ss01" horiz-adv-x="590" 
d="M308 470h17l18 -10l168 -203l-3 -20l-233 -197l-21 -10h-23l1 10l236 200l3 20l-165 200zM118 470h17l18 -10l168 -203l-3 -20l-233 -197l-21 -10h-23l1 10l236 200l3 20l-165 200z" />
    <glyph glyph-name="endash.ss01" horiz-adv-x="620" 
d="M560 250l-10 -10h-480l-10 10l1 10l10 10h480l10 -10z" />
    <glyph glyph-name="emdash.ss01" horiz-adv-x="1120" 
d="M1060 250l-10 -10h-980l-10 10l1 10l10 10h980l10 -10z" />
    <glyph glyph-name="quoteleft.ss01" horiz-adv-x="240" 
d="M127 580l16 30l65 80l12 10h22l-2 -10l-66 -90l-2 -10l10 -10h15l10 -10l-18 -100l-10 -10h-61l-10 10z" />
    <glyph glyph-name="quoteright.ss01" horiz-adv-x="240" 
d="M228 580l-16 -30l-65 -80l-12 -10h-22l2 10l66 90l2 10l-10 10h-15l-10 10l18 100l10 10h61l10 -10z" />
    <glyph glyph-name="quotesinglbase.ss01" horiz-adv-x="240" 
d="M117 0l-16 -30l-65 -80l-12 -10h-22l2 10l66 90l2 10l-10 10h-15l-10 10l18 100l10 10h61l10 -10z" />
    <glyph glyph-name="quotedblleft.ss01" horiz-adv-x="400" 
d="M286 580l16 30l65 80l12 10h22l-2 -10l-66 -90l-2 -10l10 -10h15l10 -10l-18 -100l-10 -10h-61l-10 10zM127 580l16 30l65 80l12 10h22l-2 -10l-66 -90l-2 -10l10 -10h15l10 -10l-18 -100l-10 -10h-61l-10 10z" />
    <glyph glyph-name="quotedblright.ss01" horiz-adv-x="400" 
d="M229 580l-16 -30l-65 -80l-12 -10h-22l2 10l66 90l2 10l-10 10h-15l-10 10l18 100l10 10h61l10 -10zM388 580l-16 -30l-65 -80l-12 -10h-22l2 10l66 90l2 10l-10 10h-15l-10 10l18 100l10 10h61l10 -10z" />
    <glyph glyph-name="quotedblbase.ss01" horiz-adv-x="400" 
d="M117 0l-16 -30l-65 -80l-12 -10h-22l2 10l66 90l2 10l-10 10h-15l-10 10l18 100l10 10h61l10 -10zM276 0l-16 -30l-65 -80l-12 -10h-22l2 10l66 90l2 10l-10 10h-15l-10 10l18 100l10 10h61l10 -10z" />
    <glyph glyph-name="guilsinglleft.ss01" horiz-adv-x="400" 
d="M281 30h-17l-18 10l-168 203l3 20l233 197l21 10h23l-1 -10l-236 -200l-3 -20l165 -200z" />
    <glyph glyph-name="guilsinglright.ss01" horiz-adv-x="400" 
d="M118 470h17l18 -10l168 -203l-3 -20l-233 -197l-21 -10h-23l1 10l236 200l3 20l-165 200z" />
    <glyph glyph-name="arrowleft.ss01" horiz-adv-x="860" 
d="M361 500l21 10h23l-1 -10l-259 -220l-2 -10h630l8 -10l-1 -10l-12 -10h-630l-2 -10l181 -220l-1 -10h-17l-19 10l-200 243l1 10z" />
    <glyph glyph-name="arrowup.ss01" horiz-adv-x="670" 
d="M614 460l6 -20l-3 -20h-7l-182 220h-10l-111 -630l-10 -10h-10l-10 10l111 630h-10l-258 -220h-13l3 20l14 20l282 240h10z" />
    <glyph glyph-name="arrowright.ss01" horiz-adv-x="860" 
d="M500 10l-21 -10h-23l1 10l259 220l2 10h-630l-8 10l1 10l12 10h630l2 10l-181 220l1 10h17l19 -10l200 -243l-1 -10z" />
    <glyph glyph-name="arrowdown.ss01" horiz-adv-x="670" 
d="M90 240l-6 20l3 20h7l182 -220h10l111 630l10 10h10l10 -10l-111 -630h10l258 220h13l-3 -20l-14 -20l-282 -240h-10z" />
    <glyph glyph-name="arrowboth.ss01" horiz-adv-x="1060" 
d="M700 10l-21 -10h-23l1 10l259 220l2 10h-780l-2 -10l181 -220l-1 -10h-17l-19 10l-200 243l1 10l280 237l21 10h23l-1 -10l-259 -220l-2 -10h780l2 10l-181 220l1 10h17l19 -10l200 -243l-1 -10z" />
    <glyph glyph-name="arrowupdn.ss01" horiz-adv-x="670" 
d="M53 40l-6 20l3 20h7l182 -220h10l139 780h-10l-258 -220h-13l3 20l14 20l282 240h10l198 -240l6 -20l-3 -20h-7l-182 220h-10l-139 -780h10l258 220h13l-3 -20l-14 -20l-282 -240h-10z" />
    <glyph glyph-name="uni2196.ss01" horiz-adv-x="660" 
d="M499 700l18 -10l8 -10l-1 -10h-310l-2 -10l362 -440l-1 -10l-12 -10h-8l-363 440h-11l-54 -310h-11l-9 10l-6 20l58 330l12 10h330z" />
    <glyph glyph-name="uni2197.ss01" horiz-adv-x="660" 
d="M297 690l22 10h332l8 -10l-58 -330l-14 -20l-11 -10h-12l56 310h-10l-517 -440h-10l-10 12l1 10l516 438l2 10h-308l1 10z" />
    <glyph glyph-name="uni2198.ss01" horiz-adv-x="660" 
d="M195 0l-18 10l-8 10l1 10h310l2 10l-362 440l1 10l12 10h8l363 -440h11l54 310h11l9 -10l6 -20l-58 -330l-12 -10h-330z" />
    <glyph glyph-name="uni2199.ss01" horiz-adv-x="660" 
d="M398 10l-22 -10h-332l-8 10l58 330l14 20l11 10h12l-56 -310h10l517 440h10l10 -12l-1 -10l-516 -438l-2 -10h308l-1 -10z" />
    <glyph glyph-name="a.ss02" horiz-adv-x="500" 
d="M407 10l-10 -10h-70l-10 10l-3 35h-10q-55 -55 -140 -55q-69 0 -112.5 41.5t-43.5 100.5q0 95 70 136.5t182 41.5q22 0 44.5 -2.5t33.5 -5.5l12 -2l10 10l4 20q3 16 3 29q0 34 -20.5 47.5t-66.5 13.5q-100 0 -111 -60l-10 -10h-80l-10 10q5 30 16 53.5t33.5 47t63.5 36.5
t98 13q91 0 137.5 -39t46.5 -112q0 -32 -8 -77zM337 180l6 30l-10 10q-27 10 -77 10q-146 0 -146 -92q0 -58 80 -58q59 0 98.5 27t48.5 73z" />
    <glyph glyph-name="agrave.ss02" horiz-adv-x="500" 
d="M407 10l-10 -10h-70l-10 10l-3 35h-10q-55 -55 -140 -55q-69 0 -112.5 41.5t-43.5 100.5q0 95 70 136.5t182 41.5q22 0 44.5 -2.5t33.5 -5.5l12 -2l10 10l4 20q3 16 3 29q0 34 -20.5 47.5t-66.5 13.5q-100 0 -111 -60l-10 -10h-80l-10 10q5 30 16 53.5t33.5 47t63.5 36.5
t98 13q91 0 137.5 -39t46.5 -112q0 -32 -8 -77zM337 180l6 30l-10 10q-27 10 -77 10q-146 0 -146 -92q0 -58 80 -58q59 0 98.5 27t48.5 73zM370 570l-10 -10h-39l-20 10l-92 100l3 20l10 10h59l20 -10l72 -100z" />
    <glyph glyph-name="aacute.ss02" horiz-adv-x="500" 
d="M407 10l-10 -10h-70l-10 10l-3 35h-10q-55 -55 -140 -55q-69 0 -112.5 41.5t-43.5 100.5q0 95 70 136.5t182 41.5q22 0 44.5 -2.5t33.5 -5.5l12 -2l10 10l4 20q3 16 3 29q0 34 -20.5 47.5t-66.5 13.5q-100 0 -111 -60l-10 -10h-80l-10 10q5 30 16 53.5t33.5 47t63.5 36.5
t98 13q91 0 137.5 -39t46.5 -112q0 -32 -8 -77zM337 180l6 30l-10 10q-27 10 -77 10q-146 0 -146 -92q0 -58 80 -58q59 0 98.5 27t48.5 73zM451 670l-128 -100l-20 -10h-54l-10 10l4 20l107 100l20 10h74l10 -10z" />
    <glyph glyph-name="acircumflex.ss02" horiz-adv-x="500" 
d="M407 10l-10 -10h-70l-10 10l-3 35h-10q-55 -55 -140 -55q-69 0 -112.5 41.5t-43.5 100.5q0 95 70 136.5t182 41.5q22 0 44.5 -2.5t33.5 -5.5l12 -2l10 10l4 20q3 16 3 29q0 34 -20.5 47.5t-66.5 13.5q-100 0 -111 -60l-10 -10h-80l-10 10q5 30 16 53.5t33.5 47t63.5 36.5
t98 13q91 0 137.5 -39t46.5 -112q0 -32 -8 -77zM337 180l6 30l-10 10q-27 10 -77 10q-146 0 -146 -92q0 -58 80 -58q59 0 98.5 27t48.5 73zM465 570l-10 -10h-45l-20 10l-59 60h-21l-80 -60l-20 -10h-55l-10 10l4 20l107 100l20 10h100l20 -10l73 -100z" />
    <glyph glyph-name="atilde.ss02" horiz-adv-x="500" 
d="M407 10l-10 -10h-70l-10 10l-3 35h-10q-55 -55 -140 -55q-69 0 -112.5 41.5t-43.5 100.5q0 95 70 136.5t182 41.5q22 0 44.5 -2.5t33.5 -5.5l12 -2l10 10l4 20q3 16 3 29q0 34 -20.5 47.5t-66.5 13.5q-100 0 -111 -60l-10 -10h-80l-10 10q5 30 16 53.5t33.5 47t63.5 36.5
t98 13q91 0 137.5 -39t46.5 -112q0 -32 -8 -77zM337 180l6 30l-10 10q-27 10 -77 10q-146 0 -146 -92q0 -58 80 -58q59 0 98.5 27t48.5 73zM381 550q-34 0 -60 17.5t-43.5 35t-33.5 17.5q-41 0 -49 -50l-10 -10h-30l-10 10q18 110 109 110q34 0 60 -17.5t44 -35t34 -17.5
q39 0 49 50l10 10h30l10 -10q-20 -110 -110 -110z" />
    <glyph glyph-name="adieresis.ss02" horiz-adv-x="500" 
d="M407 10l-10 -10h-70l-10 10l-3 35h-10q-55 -55 -140 -55q-69 0 -112.5 41.5t-43.5 100.5q0 95 70 136.5t182 41.5q22 0 44.5 -2.5t33.5 -5.5l12 -2l10 10l4 20q3 16 3 29q0 34 -20.5 47.5t-66.5 13.5q-100 0 -111 -60l-10 -10h-80l-10 10q5 30 16 53.5t33.5 47t63.5 36.5
t98 13q91 0 137.5 -39t46.5 -112q0 -32 -8 -77zM337 180l6 30l-10 10q-27 10 -77 10q-146 0 -146 -92q0 -58 80 -58q59 0 98.5 27t48.5 73zM270 590l-10 -10h-81l-10 10l14 80l10 10h81l10 -10zM451 590l-10 -10h-81l-10 10l14 80l10 10h81l10 -10z" />
    <glyph glyph-name="aring.ss02" horiz-adv-x="500" 
d="M407 10l-10 -10h-70l-10 10l-3 35h-10q-55 -55 -140 -55q-69 0 -112.5 41.5t-43.5 100.5q0 95 70 136.5t182 41.5q22 0 44.5 -2.5t33.5 -5.5l12 -2l10 10l4 20q3 16 3 29q0 34 -20.5 47.5t-66.5 13.5q-100 0 -111 -60l-10 -10h-80l-10 10q5 30 16 53.5t33.5 47t63.5 36.5
t98 13q91 0 137.5 -39t46.5 -112q0 -32 -8 -77zM337 180l6 30l-10 10q-27 10 -77 10q-146 0 -146 -92q0 -58 80 -58q59 0 98.5 27t48.5 73zM421 652q0 -44 -30 -73t-78 -29q-44 0 -69 22.5t-25 55.5q0 44 30 73t78 29q44 0 69 -22.5t25 -55.5zM361 652q0 28 -34 28
q-18 0 -33 -13.5t-15 -38.5q0 -28 34 -28q18 0 33 13.5t15 38.5z" />
    <glyph glyph-name="amacron.ss02" horiz-adv-x="500" 
d="M407 10l-10 -10h-70l-10 10l-3 35h-10q-55 -55 -140 -55q-69 0 -112.5 41.5t-43.5 100.5q0 95 70 136.5t182 41.5q22 0 44.5 -2.5t33.5 -5.5l12 -2l10 10l4 20q3 16 3 29q0 34 -20.5 47.5t-66.5 13.5q-100 0 -111 -60l-10 -10h-80l-10 10q5 30 16 53.5t33.5 47t63.5 36.5
t98 13q91 0 137.5 -39t46.5 -112q0 -32 -8 -77zM337 180l6 30l-10 10q-27 10 -77 10q-146 0 -146 -92q0 -58 80 -58q59 0 98.5 27t48.5 73zM470 590l-10 -10h-300l-10 10l10 60l10 10h300l10 -10z" />
    <glyph glyph-name="abreve.ss02" horiz-adv-x="500" 
d="M407 10l-10 -10h-70l-10 10l-3 35h-10q-55 -55 -140 -55q-69 0 -112.5 41.5t-43.5 100.5q0 95 70 136.5t182 41.5q22 0 44.5 -2.5t33.5 -5.5l12 -2l10 10l4 20q3 16 3 29q0 34 -20.5 47.5t-66.5 13.5q-100 0 -111 -60l-10 -10h-80l-10 10q5 30 16 53.5t33.5 47t63.5 36.5
t98 13q91 0 137.5 -39t46.5 -112q0 -32 -8 -77zM337 180l6 30l-10 10q-27 10 -77 10q-146 0 -146 -92q0 -58 80 -58q59 0 98.5 27t48.5 73zM245 690l10 -10q-1 -5 -1 -15q0 -21 16.5 -33t44.5 -12q31 0 52.5 15.5t26.5 44.5l10 10h51l10 -10q-11 -60 -50.5 -95t-99.5 -35
q-65 0 -98.5 32t-33.5 83q0 10 1 15l10 10h51z" />
    <glyph glyph-name="aogonek.ss02" horiz-adv-x="500" 
d="M317 10l-3 35h-10q-55 -55 -140 -55q-69 0 -112.5 41.5t-43.5 100.5q0 95 70 136.5t182 41.5q22 0 44.5 -2.5t33.5 -5.5l12 -2l10 10l4 20q3 16 3 29q0 34 -20.5 47.5t-66.5 13.5q-100 0 -111 -60l-10 -10h-80l-10 10q5 30 16 53.5t33.5 47t63.5 36.5t98 13
q91 0 137.5 -39t46.5 -112q0 -32 -8 -77l-49 -272l-10 -10q-26 -4 -50.5 -13t-46 -29.5t-21.5 -47.5q0 -18 11.5 -29t31.5 -11q13 0 26 2.5t19 5.5l6 2l9 -10l-7 -40l-12 -10q-29 -20 -69 -20q-41 0 -70 25t-29 62q0 47 34.5 79.5t87.5 43.5zM337 180l6 30l-10 10
q-27 10 -77 10q-146 0 -146 -92q0 -58 80 -58q59 0 98.5 27t48.5 73z" />
    <glyph glyph-name="aringacute.ss02" horiz-adv-x="500" 
d="M407 10l-10 -10h-70l-10 10l-3 35h-10q-55 -55 -140 -55q-69 0 -112.5 41.5t-43.5 100.5q0 95 70 136.5t182 41.5q22 0 44.5 -2.5t33.5 -5.5l12 -2l10 10l4 20q3 16 3 29q0 34 -20.5 47.5t-66.5 13.5q-100 0 -111 -60l-10 -10h-80l-10 10q5 30 16 53.5t33.5 47t63.5 36.5
t98 13q91 0 137.5 -39t46.5 -112q0 -32 -8 -77zM337 180l6 30l-10 10q-27 10 -77 10q-146 0 -146 -92q0 -58 80 -58q59 0 98.5 27t48.5 73zM481 870l-128 -100l-20 -10h-54l-10 10l4 20l107 100l20 10h74l10 -10zM417 652q0 -44 -30 -73t-78 -29q-44 0 -69 22.5t-25 55.5
q0 44 30 73t78 29q44 0 69 -22.5t25 -55.5zM357 652q0 28 -34 28q-18 0 -33 -13.5t-15 -38.5q0 -28 34 -28q18 0 33 13.5t15 38.5z" />
    <glyph glyph-name="parenleft.ss03" horiz-adv-x="390" 
d="M267 10l-10 -10h-11l-20 10q-81 98 -111 148.5t-30 95.5q0 28 12 96q8 48 12 69t16 52t22.5 45.5t38.5 45t57 55.5t85 73l20 10h29l10 -10l-12 -70q-51 -44 -71.5 -62.5t-43.5 -42.5t-31 -45.5t-16 -47.5t-16 -72q-11 -64 -11 -96q0 -41 18 -72t76 -102z" />
    <glyph glyph-name="parenright.ss03" horiz-adv-x="390" 
d="M157 690l10 10h11l20 -10q81 -98 111 -148.5t30 -95.5q0 -28 -12 -96q-8 -48 -12 -69t-16 -52t-22.5 -45.5t-38.5 -45t-57 -55.5t-85 -73l-20 -10h-29l-10 10l12 70q51 44 71.5 62.5t43.5 42.5t31 45.5t16 47.5t16 72q11 64 11 96q0 41 -18 72t-76 102z" />
    <glyph glyph-name="bracketleft.ss03" horiz-adv-x="370" 
d="M247 10l-10 -10h-190l-10 10l120 680l10 10h190l10 -10l-12 -70l-10 -10h-93l-10 -10l-88 -500l10 -10h85l10 -10z" />
    <glyph glyph-name="bracketright.ss03" horiz-adv-x="370" 
d="M157 690l10 10h190l10 -10l-120 -680l-10 -10h-190l-10 10l12 70l10 10h93l10 10l88 500l-10 10h-85l-10 10z" />
    <glyph glyph-name="braceleft.ss03" horiz-adv-x="440" 
d="M143 162l12 68q3 15 3 31q0 27 -13.5 38t-43.5 11l-10 10l11 60l10 10q38 0 58 18t28 62l14 80q26 150 161 150h55l10 -10l-12 -70l-10 -10h-42q-50 0 -61 -60l-15 -90q-14 -79 -69 -100l-3 -20q34 -25 34 -75q0 -16 -4 -36l-12 -67q-4 -20 -4 -29q0 -43 40 -43h39
l10 -10l-12 -70l-10 -10h-27q-56 0 -98 34.5t-42 93.5q0 19 3 34z" />
    <glyph glyph-name="braceright.ss03" horiz-adv-x="440" 
d="M331 538l-12 -68q-3 -15 -3 -31q0 -27 13.5 -38t43.5 -11l10 -10l-11 -60l-10 -10q-38 0 -58 -18t-28 -62l-14 -80q-26 -150 -161 -150h-55l-10 10l12 70l10 10h42q50 0 61 60l15 90q14 79 69 100l3 20q-34 25 -34 75q0 16 4 36l12 67q4 20 4 29q0 43 -40 43h-39l-10 10
l12 70l10 10h27q56 0 98 -34.5t42 -93.5q0 -19 -3 -34z" />
    <glyph glyph-name="parenleft.ss04" horiz-adv-x="380" 
d="M127 350q-12 -69 -12 -97q0 -50 25.5 -91t116.5 -152l-1 -10h-17l-20 10q-79 97 -106.5 144.5t-27.5 98.5q0 29 12 97q7 43 12 65.5t17 51.5t24 46t40 46.5t58.5 56.5t85.5 74l20 10h25l-2 -10q-64 -55 -91 -78t-61 -56.5t-43.5 -47.5t-23.5 -43t-18.5 -51t-12.5 -64z
" />
    <glyph glyph-name="parenright.ss04" horiz-adv-x="380" 
d="M287 350q12 69 12 97q0 50 -25.5 91t-116.5 152l1 10h17l20 -10q79 -97 106.5 -144.5t27.5 -98.5q0 -29 -12 -97q-7 -43 -12 -65.5t-17 -51.5t-24 -46t-40 -46.5t-58.5 -56.5t-85.5 -74l-20 -10h-25l2 10q64 55 91 78t61 56.5t43.5 47.5t23.5 43t18.5 51t12.5 64z" />
    <glyph glyph-name="bracketleft.ss04" horiz-adv-x="340" 
d="M217 10l-10 -10h-160l-10 10l120 680l10 10h160l10 -10l-2 -10l-10 -10h-132l-10 -10l-109 -620l10 -10h125l10 -10z" />
    <glyph glyph-name="bracketright.ss04" horiz-adv-x="340" 
d="M157 690l10 10h160l10 -10l-120 -680l-10 -10h-160l-10 10l2 10l10 10h132l10 10l109 620l-10 10h-125l-10 10z" />
    <glyph glyph-name="braceleft.ss04" horiz-adv-x="420" 
d="M170 360l-1 -10q28 -13 28 -56q0 -14 -4 -34l-24 -130q-3 -16 -3 -27q0 -73 86 -73h39l8 -10l-2 -10l-12 -10h-34q-50 0 -83 25.5t-33 77.5q0 11 3 27l24 130q3 16 3 30q0 28 -13.5 40.5t-45.5 12.5l-8 10l1 10l12 10q39 0 58 16.5t26 60.5l21 120q12 68 53.5 99t99.5 31
h40l8 -10l-2 -10l-11 -10h-40q-100 0 -117 -100l-21 -120q-14 -77 -56 -90z" />
    <glyph glyph-name="bar.ss04" horiz-adv-x="270" 
d="M107 10l-10 -10h-11l-10 10l120 680l10 10h11l10 -10z" />
    <glyph glyph-name="braceright.ss04" horiz-adv-x="420" 
d="M284 340l1 10q-28 13 -28 56q0 14 4 34l24 130q3 16 3 27q0 73 -86 73h-39l-8 10l2 10l12 10h34q50 0 83 -25.5t33 -77.5q0 -11 -3 -27l-24 -130q-3 -16 -3 -30q0 -28 13.5 -40.5t45.5 -12.5l8 -10l-1 -10l-12 -10q-39 0 -58 -16.5t-26 -60.5l-21 -120q-12 -68 -53.5 -99
t-99.5 -31h-40l-8 10l2 10l11 10h40q100 0 117 100l21 120q14 77 56 90z" />
    <glyph glyph-name="slash.ss05" horiz-adv-x="750" 
d="M775 620l-710 -610l-20 -10h-38l-10 10l13 70l709 610l20 10h38l10 -10z" />
    <glyph glyph-name="backslash.ss05" horiz-adv-x="750" 
d="M619 10l-514 610l12 70l10 10h18l20 -10l515 -610l-13 -70l-10 -10h-18z" />
    <glyph glyph-name="slash.ss06" horiz-adv-x="780" 
d="M815 680l-786 -670l-21 -10h-12l3 20l786 670l20 10h14z" />
    <glyph glyph-name="backslash.ss06" horiz-adv-x="780" 
d="M670 10l-555 670l4 20h5l20 -10l555 -670l-3 -20h-6z" />
    <glyph glyph-name="emdash.ss07" horiz-adv-x="1620" 
d="M1554 220l-10 -10h-1480l-10 10l13 70l10 10h1480l10 -10z" />
    <glyph glyph-name="emdash.ss08" horiz-adv-x="1620" 
d="M1560 250l-10 -10h-1480l-10 10l1 10l10 10h1480l10 -10z" />
    <glyph glyph-name="ampersand.ss09" horiz-adv-x="680" 
d="M290 80q75 0 113.5 38t48.5 92l37 210l10 10h141l10 -10l-13 -70l-10 -10h-43l-10 -10l-21 -120q-17 -93 -83 -156.5t-184 -63.5q-104 0 -160.5 57t-56.5 133q0 77 36.5 130t107.5 71l1 10q-30 13 -49 45.5t-19 73.5q0 91 68 145.5t167 54.5q86 0 138.5 -41.5
t52.5 -108.5q0 -12 -3 -30l-10 -10h-80l-10 10q2 14 2 21q0 69 -96 69q-54 0 -91 -28.5t-37 -81.5q0 -37 24.5 -58.5t69.5 -21.5h39l10 -10l-13 -70l-10 -10h-32q-73 0 -119 -42.5t-46 -117.5q0 -43 28 -71.5t92 -28.5z" />
    <glyph glyph-name="one.ss10" horiz-adv-x="320" 
d="M198 10l-10 -10h-81l-10 10l92 520l-10 10h-77l-10 10l9 50l106 90l20 10h81l10 -10z" />
    <glyph glyph-name="commaaccent" horiz-adv-x="260" 
d="M104 -130l-16 -30l-59 -50l-20 -10h-22l1 10l51 60l2 10l-10 10h-17l-10 10l13 70l10 10h81l10 -10z" />
    <glyph glyph-name="orn001" horiz-adv-x="660" 
d="M502 -190l-10 -10h-480l-10 10l155 880l10 10h480l10 -10zM232 600l-123 -700l10 -10h298l10 10l123 700l-10 10h-298z" />
    <glyph glyph-name="orn002" horiz-adv-x="660" 
d="M502 -190l-10 -10h-480l-10 10l155 880l10 10h480l10 -10z" />
    <glyph glyph-name="orn003" horiz-adv-x="660" 
d="M537 10l-10 -10h-480l-10 10l120 680l10 10h480l10 -10zM231 600l-88 -500l10 -10h300l10 10l88 500l-10 10h-300z" />
    <glyph glyph-name="orn004" horiz-adv-x="660" 
d="M537 10l-10 -10h-480l-10 10l120 680l10 10h480l10 -10z" />
    <glyph glyph-name="orn005" horiz-adv-x="660" 
d="M537 10l-10 -10h-480l-10 10l85 480l11 10h479l10 -10zM197 400l-53 -300l10 -10h298l10 10l53 300l-10 10h-297z" />
    <glyph glyph-name="orn006" horiz-adv-x="660" 
d="M537 10l-10 -10h-480l-10 10l85 480l11 10h479l10 -10z" />
    <glyph glyph-name="orn007" horiz-adv-x="660" 
d="M183 660l-145 -820l10 -10h418l10 10l145 820l-10 10h-418zM502 -190l-10 -10h-480l-10 10l155 880l10 10h480l10 -10z" />
    <glyph glyph-name="orn008" horiz-adv-x="660" 
d="M537 10l-10 -10h-480l-10 10l120 680l10 10h480l10 -10zM183 660l-109 -620l10 -10h418l10 10l109 620l-10 10h-418z" />
    <glyph glyph-name="orn009" horiz-adv-x="660" 
d="M148 460l-74 -420l10 -10h418l10 10l74 420l-10 10h-418zM537 10l-10 -10h-480l-10 10l85 480l11 10h479l10 -10z" />
    <glyph glyph-name="orn010" horiz-adv-x="660" 
d="M502 -190l-10 -10h-480l-10 10l155 880l10 10h480l10 -10zM470 -140h10l137 780h-10l-257 -380l-3 -20zM189 640h-10l-137 -780h10l257 380l3 20zM214 670l-2 -10l116 -360h15l244 360l2 10h-375zM448 -160l-116 360h-16l-244 -360l-1 -10h376z" />
    <glyph glyph-name="orn011" horiz-adv-x="660" 
d="M537 10l-10 -10h-480l-10 10l120 680l10 10h480l10 -10zM373 330l132 -270h10l102 580h-10l-227 -270zM189 640h-10l-102 -580h10l228 270l7 40zM360 390l228 270l2 10h-377l-2 -10l132 -270h17zM107 40l-2 -10h377l2 10l-133 270h-17z" />
    <glyph glyph-name="orn012" horiz-adv-x="660" 
d="M357 240l148 -180h10l67 380h-10l-212 -180zM154 440h-10l-67 -380h10l212 180l3 20zM340 280l212 180l1 10h-378l-1 -10l148 -180h18zM108 40l-2 -10h378l2 10l-149 180h-18zM537 10l-10 -10h-480l-10 10l85 480l11 10h479l10 -10z" />
    <glyph glyph-name="orn013" horiz-adv-x="660" 
d="M37 10l9 -10h-10zM56 0l-17 20l2 10l25 -30h-10zM76 0l-33 40l1 10l42 -50h-10zM96 0l-50 60l2 10l58 -70h-10zM116 0l-66 80l1 10l75 -90h-10zM136 0l-83 100l2 10l91 -110h-10zM156 0l-99 120l1 10l108 -130h-10zM176 0l-116 140l2 10l124 -150h-10zM196 0l-132 160
l1 10l141 -170h-10zM216 0l-149 180l2 10l157 -190h-10zM236 0l-165 200l2 10l173 -210h-10zM256 0l-182 220l2 10l190 -230h-10zM276 0l-198 240l2 10l206 -250h-10zM296 0l-215 260l2 10l223 -270h-10zM316 0l-231 280l2 10l239 -290h-10zM336 0l-248 300l2 10l256 -310
h-10zM356 0l-264 320l2 10l272 -330h-10zM376 0l-281 340l2 10l289 -350h-10zM396 0l-297 360l2 10l305 -370h-10zM416 0l-313 380l1 10l322 -390h-10zM436 0l-330 400l2 10l338 -410h-10zM456 0l-346 420l1 10l355 -430h-10zM476 0l-363 440l2 10l371 -450h-10zM496 0
l-379 460l1 10l388 -470h-10zM516 0l-396 480l2 10l404 -490h-10zM536 0l-412 500l1 10l412 -500zM539 20l-412 500l2 10l412 -500zM543 40l-412 500l1 10l412 -500zM546 60l-412 500l2 10l412 -500zM550 80l-412 500l2 10l411 -500zM553 100l-412 500l2 10l412 -500z
M557 120l-412 500l2 10l411 -500zM560 140l-412 500l2 10l412 -500zM564 160l-412 500l2 10l411 -500zM567 180l-412 500l2 10l412 -500zM571 200l-412 500h10l404 -490zM649 700l8 -10l-2 -10l-16 20h10zM629 700l25 -30l-2 -10l-33 40h10zM609 700l41 -50l-2 -10l-49 60
h10zM589 700l58 -70l-2 -10l-66 80h10zM569 700l74 -90l-2 -10l-82 100h10zM549 700l91 -110l-2 -10l-99 120h10zM529 700l107 -130l-2 -10l-115 140h10zM509 700l123 -150l-1 -10l-132 160h10zM489 700l140 -170l-2 -10l-148 180h10zM469 700l156 -190l-1 -10l-165 200h10z
M449 700l173 -210l-2 -10l-181 220h10zM429 700l189 -230l-1 -10l-198 240h10zM409 700l206 -250l-2 -10l-214 260h10zM389 700l222 -270l-1 -10l-231 280h10zM369 700l239 -290l-2 -10l-247 300h10zM349 700l255 -310l-1 -10l-264 320h10zM329 700l272 -330l-2 -10
l-280 340h10zM309 700l288 -350l-2 -10l-296 360h10zM289 700l305 -370l-2 -10l-313 380h10zM269 700l321 -390l-2 -10l-329 400h10zM249 700l338 -410l-2 -10l-346 420h10zM229 700l354 -430l-2 -10l-362 440h10zM209 700l371 -450l-2 -10l-379 460h10zM189 700l387 -470
l-2 -10l-395 480h10z" />
    <glyph glyph-name="orn014" horiz-adv-x="660" 
d="M657 690l-8 10h10zM639 700l16 -20l-1 -10l-25 30h10zM619 700l33 -40l-2 -10l-41 50h10zM599 700l49 -60l-1 -10l-58 70h10zM579 700l66 -80l-2 -10l-74 90h10zM559 700l82 -100l-1 -10l-91 110h10zM539 700l99 -120l-2 -10l-107 130h10zM519 700l115 -140l-2 -10
l-123 150h10zM499 700l132 -160l-2 -10l-140 170h10zM479 700l148 -180l-2 -10l-156 190h10zM459 700l165 -200l-2 -10l-173 210h10zM439 700l181 -220l-2 -10l-189 230h10zM419 700l198 -240l-2 -10l-206 250h10zM399 700l214 -260l-2 -10l-222 270h10zM379 700l231 -280
l-2 -10l-239 290h10zM359 700l247 -300l-2 -10l-255 310h10zM339 700l264 -320l-2 -10l-272 330h10zM319 700l280 -340l-2 -10l-288 350h10zM299 700l296 -360l-1 -10l-305 370h10zM279 700l313 -380l-2 -10l-321 390h10zM259 700l329 -400l-1 -10l-338 410h10zM239 700
l346 -420l-2 -10l-354 430h10zM219 700l362 -440l-1 -10l-371 450h10zM199 700l379 -460l-2 -10l-387 470h10zM179 700l395 -480l-1 -10l-404 490h10zM159 700l412 -500l-2 -10l-412 500zM155 680l412 -500l-2 -10l-411 500zM152 660l412 -500l-2 -10l-412 500zM148 640
l412 -500l-2 -10l-411 500zM145 620l412 -500l-2 -10l-412 500zM141 600l412 -500l-2 -10l-411 500zM138 580l412 -500l-2 -10l-412 500zM134 560l412 -500l-2 -10l-412 500zM131 540l412 -500l-2 -10l-412 500zM127 520l412 -500l-2 -10l-412 500zM124 500l412 -500h-10
l-404 490zM46 0l-9 10l2 10l17 -20h-10zM66 0l-25 30l2 10l33 -40h-10zM86 0l-42 50l2 10l50 -60h-10zM106 0l-58 70l2 10l66 -80h-10zM126 0l-75 90l2 10l83 -100h-10zM146 0l-91 110l2 10l99 -120h-10zM166 0l-108 130l2 10l116 -140h-10zM186 0l-124 150l2 10l132 -160
h-10zM206 0l-141 170l2 10l149 -180h-10zM226 0l-157 190l2 10l165 -200h-10zM246 0l-173 210l1 10l182 -220h-10zM266 0l-190 230l2 10l198 -240h-10zM286 0l-206 250l1 10l215 -260h-10zM306 0l-223 270l2 10l231 -280h-10zM326 0l-239 290l1 10l248 -300h-10zM346 0
l-256 310l2 10l264 -320h-10zM366 0l-272 330l1 10l281 -340h-10zM386 0l-289 350l2 10l297 -360h-10zM406 0l-305 370l2 10l313 -380h-10zM426 0l-322 390l2 10l330 -400h-10zM446 0l-338 410l2 10l346 -420h-10zM466 0l-355 430l2 10l363 -440h-10zM486 0l-371 450l2 10
l379 -460h-10zM506 0l-388 470l2 10l396 -480h-10z" />
    <glyph glyph-name="orn015" horiz-adv-x="660" 
d="M526 0l11 10l-1 -10h-10zM539 20l-23 -20h-10l35 30zM543 40l-47 -40h-10l58 50zM546 60l-70 -60h-10l82 70zM550 80l-94 -80h-10l105 90zM553 100l-117 -100h-10l129 110zM557 120l-141 -120h-10l152 130zM560 140l-164 -140h-10l176 150zM564 160l-188 -160h-10
l199 170zM567 180l-211 -180h-10l223 190zM571 200l-235 -200h-10l247 210zM574 220l-258 -220h-10l270 230zM578 240l-282 -240h-10l294 250zM581 260l-305 -260h-10l317 270zM585 280l-329 -280h-10l341 290zM588 300l-352 -300h-10l364 310zM592 320l-376 -320h-10
l388 330zM595 340l-399 -340h-10l411 350zM599 360l-423 -360h-10l435 370zM603 380l-447 -380h-10l458 390zM606 400l-470 -400h-10l482 410zM610 420l-494 -420h-10l505 430zM613 440l-517 -440h-10l529 450zM617 460l-541 -460h-10l552 470zM620 480l-564 -480h-10
l576 490zM624 500l-588 -500l1 10l588 500zM627 520l-588 -500l2 10l588 500zM631 540l-588 -500l1 10l588 500zM634 560l-588 -500l2 10l588 500zM638 580l-588 -500l1 10l589 500zM641 600l-588 -500l2 10l588 500zM645 620l-588 -500l1 10l589 500zM648 640l-588 -500
l2 10l588 500zM652 660l-588 -500l1 10l589 500zM655 680l-588 -500l2 10l588 500zM659 700l-588 -500l2 10l576 490h10zM157 690l12 10h10l-24 -20zM154 670l35 30h10l-47 -40zM150 650l59 50h10l-71 -60zM147 630l82 70h10l-94 -80zM143 610l106 90h10l-118 -100zM140 590
l129 110h10l-141 -120zM136 570l153 130h10l-165 -140zM132 550l177 150h10l-188 -160zM129 530l200 170h10l-212 -180zM125 510l224 190h10l-235 -200zM122 490l247 210h10l-259 -220zM118 470l271 230h10l-282 -240zM115 450l294 250h10l-306 -260zM111 430l318 270h10
l-329 -280zM108 410l341 290h10l-353 -300zM104 390l365 310h10l-376 -320zM101 370l388 330h10l-400 -340zM97 350l412 350h10l-424 -360zM94 330l435 370h10l-447 -380zM90 310l459 390h10l-471 -400zM87 290l482 410h10l-494 -420zM83 270l506 430h10l-518 -440zM80 250
l529 450h10l-541 -460zM76 230l553 470h10l-565 -480z" />
    <glyph glyph-name="orn016" horiz-adv-x="660" 
d="M169 700l-12 -10l2 10h10zM155 680l24 20h10l-35 -30zM152 660l47 40h10l-59 -50zM148 640l71 60h10l-82 -70zM145 620l94 80h10l-106 -90zM141 600l118 100h10l-129 -110zM138 580l141 120h10l-153 -130zM134 560l165 140h10l-177 -150zM131 540l188 160h10l-200 -170z
M127 520l212 180h10l-224 -190zM124 500l235 200h10l-247 -210zM120 480l259 220h10l-271 -230zM117 460l282 240h10l-294 -250zM113 440l306 260h10l-318 -270zM110 420l329 280h10l-341 -290zM106 400l353 300h10l-365 -310zM103 380l376 320h10l-388 -330zM99 360
l400 340h10l-412 -350zM95 340l424 360h10l-435 -370zM92 320l447 380h10l-459 -390zM88 300l471 400h10l-482 -410zM85 280l494 420h10l-506 -430zM81 260l518 440h10l-529 -450zM78 240l541 460h10l-553 -470zM74 220l565 480h10l-576 -490zM71 200l588 500l-2 -10
l-588 -500zM67 180l588 500l-1 -10l-589 -500zM64 160l588 500l-2 -10l-588 -500zM60 140l588 500l-1 -10l-589 -500zM57 120l588 500l-2 -10l-588 -500zM53 100l588 500l-1 -10l-589 -500zM50 80l588 500l-2 -10l-588 -500zM46 60l588 500l-2 -10l-588 -500zM43 40l588 500
l-2 -10l-588 -500zM39 20l588 500l-2 -10l-588 -500zM36 0l588 500l-2 -10l-576 -490h-10zM537 10l-11 -10h-10l23 20zM541 30l-35 -30h-10l47 40zM544 50l-58 -50h-10l70 60zM548 70l-82 -70h-10l94 80zM551 90l-105 -90h-10l117 100zM555 110l-129 -110h-10l141 120z
M558 130l-152 -130h-10l164 140zM562 150l-176 -150h-10l188 160zM565 170l-199 -170h-10l211 180zM569 190l-223 -190h-10l235 200zM573 210l-247 -210h-10l258 220zM576 230l-270 -230h-10l282 240zM580 250l-294 -250h-10l305 260zM583 270l-317 -270h-10l329 280z
M587 290l-341 -290h-10l352 300zM590 310l-364 -310h-10l376 320zM594 330l-388 -330h-10l399 340zM597 350l-411 -350h-10l423 360zM601 370l-435 -370h-10l447 380zM604 390l-458 -390h-10l470 400zM608 410l-482 -410h-10l494 420zM611 430l-505 -430h-10l517 440z
M615 450l-529 -450h-10l541 460zM618 470l-552 -470h-10l564 480z" />
    <glyph glyph-name="uni00AD.case" horiz-adv-x="410" 
d="M360 315l-10 -10h-270l-10 10l13 70l10 10h270l10 -10z" />
    </font>
</defs>
</svg>
